<svg xmlns="http://www.w3.org/2000/svg" viewBox="0 0 1200 400"><defs><style>.cls-1,.cls-4{fill:none;stroke-miterlimit:10;stroke-width:4px;}.cls-1{stroke:#000;opacity:0.2;}.cls-2{opacity:0.7;}.cls-3{fill:#005b72;}.cls-4{stroke:#005b72;}.cls-5{fill:#fff;}</style></defs><title>font-characteristics</title><g id="lines"><line class="cls-1" y1="292" x2="1200" y2="292"/><line class="cls-1" x1="805" y1="185.5" x2="1090" y2="185.5"/><line class="cls-1" x1="94" y1="177" x2="406" y2="177"/></g><g id="font"><path d="M45.23,282.47l14.2-2.56V189.28l-14.2-2.57v-7.52H88.32v7.52l-14.19,2.57v39.16h52.16V189.28l-14-2.57v-7.52h42.93v7.52l-14,2.57v90.63l14,2.56V290H112.26v-7.53l14-2.56V237.84H74.13v42.07l14.19,2.56V290H45.23Z"/><path d="M177.07,285.21a20.63,20.63,0,0,1-6-15.22q0-21.56,30.61-25.82l15.39-2.23V229.12q0-14.37-16.76-14.37a35.4,35.4,0,0,0-6.76.6l-3.84.77-2.57,15.74c0,.11-.51.34-1.54.68a12.71,12.71,0,0,1-3.93.51,7.81,7.81,0,0,1-5.47-2.22,7.35,7.35,0,0,1-2.4-5.64q0-6.49,6.33-11.38a45.9,45.9,0,0,1,14.79-7.43q8.46-2.56,13.77-2.57,10.77,0,16.58,5.56a18.66,18.66,0,0,1,5.82,14.11v54.89l12.14,2.39v6.5a27,27,0,0,1-3.08,1.11,60.27,60.27,0,0,1-6.16,1.54,39.32,39.32,0,0,1-7.86.77q-7.53,0-8.21-7.87h-.68q-2.23,2.4-8.47,5.39a30.69,30.69,0,0,1-13.42,3Q183.06,291.19,177.07,285.21Zm32-5.47a37.31,37.31,0,0,0,5.47-1.46l2.57-.94V250.15q-16.26,1.2-23.6,5.22t-7.36,12.05a12,12,0,0,0,4.19,9.24c2.8,2.51,6.64,3.76,11.55,3.76A37.06,37.06,0,0,0,209.05,279.74Z"/><path d="M251.11,283l13.68-2.39v-61l-13.68-2.73v-6.5l23.09-4.79,4.62,7a59.05,59.05,0,0,1,13.08-6.24,40.3,40.3,0,0,1,12.74-2.48,25.2,25.2,0,0,1,11.11,2.57,19.74,19.74,0,0,1,8,6.66,45.24,45.24,0,0,1,13.51-6.49,50.48,50.48,0,0,1,15.22-2.74,21.51,21.51,0,0,1,15.73,6.24,21.07,21.07,0,0,1,6.33,15.65v54.89L388.26,283v7h-41v-7l13.33-2.39v-51c0-5-1.28-8.58-3.84-10.68s-6.87-3.17-12.91-3.17a65.07,65.07,0,0,0-8.3.68c-3.36.46-6.35,1-9,1.54v62.59l10.78,2.57V290H301.39v-6.84l11.11-2.57v-51c0-5-1.25-8.58-3.76-10.68s-6.78-3.17-12.82-3.17a58.59,58.59,0,0,0-7.87.68q-4.79.69-9.23,1.72v62.41L292.33,283v7H251.11Z"/><path d="M425,289.14a31.51,31.51,0,0,1-7.87-5.13h-1.36l-4.79,6.5h-7V184l-14-2.23v-6.67l23.43-4.61,4.62,2.39V212.7a35.85,35.85,0,0,1,9.4-6.07,33.48,33.48,0,0,1,14.37-2.82q14.36,0,23,9.66t8.63,29.33q0,15.55-4.87,26.5t-13.08,16.59a31.32,31.32,0,0,1-18.13,5.64A28.14,28.14,0,0,1,425,289.14Zm27.19-15.48q5.81-7.95,5.81-26.07,0-16.76-5.13-24.29t-17.27-7.52A65.75,65.75,0,0,0,418,218.35V278.2a51.12,51.12,0,0,0,7.69,2.3,41.77,41.77,0,0,0,9.58,1.12Q446.4,281.62,452.21,273.66Z"/><path d="M502.22,285.38q-6.59-6.17-6.58-17.44V217.49l-14.19-2.39v-6.5l23.43-4.79,4.78,2.4v54.37q0,11.13,4.11,15.48t14.53,4.36a30.31,30.31,0,0,0,8.3-1.37,38,38,0,0,0,8.29-3.42V217.49l-14-2.39v-6.5l23.42-4.79,4.79,2.4v71.64l12.14,2.74v6.5l-23.77,3.42L544.89,282l-.17.17A26.07,26.07,0,0,1,534.29,289a37.37,37.37,0,0,1-13.51,2.56Q508.81,291.53,502.22,285.38Z"/><path d="M592.43,280.59V218.86l-13.34-2.4v-7l24.62-4.61,2.74,9.4a50.55,50.55,0,0,1,4.1-3.33,56.64,56.64,0,0,1,7.53-4.79,16.47,16.47,0,0,1,7.69-2.31,7,7,0,0,1,5.47,2.31,8.78,8.78,0,0,1,2,6.07,9.91,9.91,0,0,1-1.11,4.79,11.2,11.2,0,0,1-2.39,3.16,12.1,12.1,0,0,1-1.63,1.28l-7.86-2a18.9,18.9,0,0,0-3.08-.68,25.84,25.84,0,0,0-3.08-.17,21.73,21.73,0,0,0-5,.6c-1.71.4-2.62.59-2.73.59v60.71l15.73,2.22V290H580.63v-7Z"/><path d="M648.26,313.68q-9.33-4.71-9.32-14.28a16.21,16.21,0,0,1,5.73-12.74,66.35,66.35,0,0,1,13.76-9.15,9.68,9.68,0,0,1-2.48-3.76,13.83,13.83,0,0,1-.94-5.13,9.79,9.79,0,0,1,2.22-6,23.83,23.83,0,0,1,5.48-5.13q-10.61-2.21-15.74-8.89a24.78,24.78,0,0,1-5.13-15.56,26.62,26.62,0,0,1,4.36-14.87,30.27,30.27,0,0,1,12-10.52,36.38,36.38,0,0,1,16.68-3.85q11.28,0,18.29,5.3c.12-.11,1.65-1.34,4.62-3.67a16.33,16.33,0,0,1,10.43-3.51q7.53,0,7.53,7.35a11.46,11.46,0,0,1-3.08,7.53l-6.33-1.37c-.91-.11-2.08-.31-3.5-.6a22.72,22.72,0,0,0-4.37-.43,26.11,26.11,0,0,1,3.85,8,29.69,29.69,0,0,1,1.29,8.46,24.59,24.59,0,0,1-4.37,14.45,28.71,28.71,0,0,1-11.71,9.66,37.22,37.22,0,0,1-15.9,3.42h-2.22v9.58l18.12,3.59q12.48,2.39,18.81,6.75t6.33,13.08a20.68,20.68,0,0,1-5.47,14.28,35.63,35.63,0,0,1-14.8,9.41,60.85,60.85,0,0,1-20.6,3.33Q657.57,318.38,648.26,313.68Zm44.88-8c4.22-2.56,6.33-6,6.33-10.17A9.57,9.57,0,0,0,697,288.8q-2.47-2.73-9.32-4.11l-23.6-4.44a29.69,29.69,0,0,0-7.69,7.86,16.31,16.31,0,0,0-3.25,9.07q0,6.66,5.22,9.49t17.18,2.82Q686.81,309.49,693.14,305.64Zm-7.61-61q4.2-3.84,4.19-13.76,0-8.37-3.84-12.74t-12.57-4.36q-9.24,0-13.25,4.36t-4,13.59q0,8.73,4.27,12.74t12.66,4Q681.34,248.44,685.53,244.59Z"/><path d="M727.69,279.91q-9.41-11.64-9.41-29.76a56.65,56.65,0,0,1,4.87-24,39.13,39.13,0,0,1,13.6-16.42,34.3,34.3,0,0,1,19.66-5.9q14,0,21,9.06t7,22.06q0,9.07-1.71,12.14c-1.14,2.06-3.31,3.08-6.5,3.08H733.33q0,13,6.41,21.21t20.44,8.2a51.91,51.91,0,0,0,10.51-.94,47.34,47.34,0,0,0,7-1.88,21.2,21.2,0,0,0,3-1.28l2.39,4.79q0,.35-3.85,3.33a41,41,0,0,1-10.09,5.47,37.78,37.78,0,0,1-14.1,2.48Q737.1,291.53,727.69,279.91Zm42.4-39a40.84,40.84,0,0,0,.52-6.84q0-10.26-3.68-15.31t-13.08-5q-10.26,0-15.22,7.18t-5.13,21.38Z"/><path d="M795.06,283l11.8-2.39V215.27H796.43v-8l10.26-2a39.55,39.55,0,0,1,5.47-18,35.81,35.81,0,0,1,12.31-12.48,30.66,30.66,0,0,1,16.08-4.54c3.07,0,5.44.77,7.09,2.31a7.72,7.72,0,0,1,2.48,5.9,8.87,8.87,0,0,1-1.62,5.22,8.41,8.41,0,0,1-3.17,3q-8.55-2.22-12.65-3.25a28.47,28.47,0,0,0-6.33-1,9.42,9.42,0,0,0-5.47,1.53v21.72H842.6v5.3l-2.22,4.45h-19.5v65L838.67,283v7H795.06Z"/><path d="M857.39,280.08q-9.33-11.46-9.32-31.12a52.77,52.77,0,0,1,4.79-22.49A40,40,0,0,1,866.54,210a35.38,35.38,0,0,1,20.69-6.16q18,0,27.36,11T924,245a59.08,59.08,0,0,1-4.61,23.77,37.77,37.77,0,0,1-13.6,16.67q-9,6.07-21.63,6.07Q866.71,291.53,857.39,280.08Zm46.42-6.84q4.79-8.39,4.79-25.14,0-18-5-26.16t-17.36-8.21q-9.24,0-14.19,3.93a19.86,19.86,0,0,0-6.76,11.2q-1.79,7.27-1.79,19.24,0,16.41,5.38,25t18.56,8.55Q899,281.62,903.81,273.24Z"/><path d="M933.22,283l13.68-2.39V219.71l-13.68-2.39v-7l25.48-4.79,1.37,5.64.34,1q15.57-8.37,27.36-8.38,10.61,0,16.5,6.16t5.9,17.27v53.35l13.68,2.39v7h-41v-7l13.34-2.39v-51q0-7.35-4.27-10.6t-13.68-3.25a78.5,78.5,0,0,0-9.41.6,50.29,50.29,0,0,0-7.86,1.45v62.76L974.26,283v7h-41Z"/><path d="M1029.5,214.41v-7.18l13.33-3.59,4.11-17.78h9.92v19.49H1081v4.79l-2.4,4.27h-21.71V270.5q0,5.13,2,6.84t6.59,1.71a37.65,37.65,0,0,0,8.29-.94q4.18-.93,5.39-1.28l1.71,5.47c.22,0-.77.77-3,2.31a43.25,43.25,0,0,1-7.78,4.19,22.33,22.33,0,0,1-8.72,1.88q-10.26,0-14.36-4.87t-4.11-14.11V214.41Z"/><path d="M1100.12,264l2.39,13.34a25.47,25.47,0,0,0,6.76,3.34,28.79,28.79,0,0,0,9.49,1.45q9.91,0,13.76-3.93t3.85-10.95a10.29,10.29,0,0,0-2.48-7.18,16.26,16.26,0,0,0-6.16-4.19,94,94,0,0,0-10.17-3.16,92,92,0,0,1-13.42-4.28,21.42,21.42,0,0,1-8.9-7.18q-3.67-4.95-3.67-13.34,0-11.62,8.72-17.87t22.4-6.24a68.83,68.83,0,0,1,14.53,1.54q7.18,1.54,9.92,3.08l-2.39,21.37h-7l-2.4-13.68a31,31,0,0,0-5-1.37,39.2,39.2,0,0,0-9.06-1.19q-9.22,0-12.91,3t-3.68,9.49a8.81,8.81,0,0,0,2.4,6.41,16.13,16.13,0,0,0,5.9,3.85,100.51,100.51,0,0,0,9.83,3.08,93.28,93.28,0,0,1,13.76,4.62,23.51,23.51,0,0,1,9.24,7.43q3.84,5.06,3.85,13.6,0,14.19-8.81,20.35t-22.83,6.15a59.49,59.49,0,0,1-16.24-2.22q-7.87-2.22-10.78-4.44l2.06-20.87Z"/></g><g id="caption"><g class="cls-2"><circle class="cls-3" cx="180" cy="218" r="20"/><circle class="cls-3" cx="245" cy="72" r="40"/><polyline class="cls-4" points="179 217.5 179 138 245 72"/><circle class="cls-3" cx="407" cy="185" r="20"/></g><path class="cls-5" d="M257.93,94H229.78V89.81l11.28-11.34A81.59,81.59,0,0,0,247.85,71a18.51,18.51,0,0,0,2.46-4.33,12.38,12.38,0,0,0,.82-4.55,7.19,7.19,0,0,0-2.08-5.43,8,8,0,0,0-5.77-2,14.61,14.61,0,0,0-5.05.88,20.1,20.1,0,0,0-5.32,3.2l-2.58-3.32a19.77,19.77,0,0,1,12.89-4.92q6,0,9.47,3.09A10.65,10.65,0,0,1,256.11,62,16.1,16.1,0,0,1,253.83,70q-2.28,4-8.56,10.07l-9.37,9.17v.24h22Z"/><g class="cls-2"><circle class="cls-3" cx="482" cy="72" r="40"/><polyline class="cls-4" points="408 165 408 141 466 94"/></g><path class="cls-5" d="M494.32,61.25A9.8,9.8,0,0,1,492,68a11.52,11.52,0,0,1-6.52,3.48v.24q5.16.64,7.65,3.28a9.64,9.64,0,0,1,2.49,6.91q0,6.12-4.25,9.42t-12.07,3.3a34.26,34.26,0,0,1-6.23-.52,21.28,21.28,0,0,1-5.49-1.8V87.64a28,28,0,0,0,11.9,2.82q11.1,0,11.1-8.71,0-7.78-12.25-7.79h-4.22V69.77h4.28a12.9,12.9,0,0,0,7.94-2.21,7.27,7.27,0,0,0,2.93-6.14,6.06,6.06,0,0,0-2.15-4.92,8.91,8.91,0,0,0-5.85-1.79,18.3,18.3,0,0,0-5.3.76,23.59,23.59,0,0,0-5.68,2.82L467.83,55a20.52,20.52,0,0,1,6.08-3.27,22.19,22.19,0,0,1,7.26-1.19q6.24,0,9.69,2.86A9.61,9.61,0,0,1,494.32,61.25Z"/><g class="cls-2"><circle class="cls-3" cx="698" cy="211" r="20"/><circle class="cls-3" cx="698" cy="72" r="40"/><line class="cls-4" x1="698" y1="210.5" x2="698" y2="71.5"/></g><path class="cls-5" d="M714,84.16h-6.36V94h-4.65V84.16H682.11V79.91l20.33-29h5.15v28.8H714Zm-11-4.43V65.49c0-2.79.09-5.94.29-9.46H703a44,44,0,0,1-2.64,4.66L687,79.73Z"/><g class="cls-2"><circle class="cls-3" cx="785" cy="281" r="20"/><circle class="cls-3" cx="785" cy="72" r="40"/><line class="cls-4" x1="785" y1="280.5" x2="785" y2="71.5"/></g><path class="cls-5" d="M784.17,67.84q6.76,0,10.64,3.35a11.52,11.52,0,0,1,3.89,9.19q0,6.65-4.24,10.43t-11.67,3.78q-7.24,0-11-2.32V87.58a16.87,16.87,0,0,0,5.1,2.07,25,25,0,0,0,6,.75c3.43,0,6.11-.81,8-2.44a8.73,8.73,0,0,0,2.86-7q0-9-11-9a43.26,43.26,0,0,0-7.44.85l-2.52-1.61,1.61-20h21.3v4.48H778.54l-1.08,12.86A34,34,0,0,1,784.17,67.84Z"/><g class="cls-2"><circle class="cls-3" cx="1139" cy="215" r="20"/><circle class="cls-3" cx="1139" cy="72" r="40"/><line class="cls-4" x1="1139" y1="195" x2="1139" y2="71.5"/></g><path class="cls-5" d="M1125.27,75.69q0-12.63,4.91-18.88t14.52-6.26a19.31,19.31,0,0,1,5.21.56V55.3a16.59,16.59,0,0,0-5.15-.73q-6.88,0-10.52,4.29t-4,13.49h.36q3.21-5,10.19-5,5.78,0,9.1,3.49t3.32,9.46q0,6.67-3.64,10.5a13,13,0,0,1-9.86,3.83,12.67,12.67,0,0,1-10.55-5Q1125.27,84.6,1125.27,75.69Zm14.39,14.77a8.14,8.14,0,0,0,6.46-2.63q2.3-2.62,2.3-7.57a9.75,9.75,0,0,0-2.14-6.68q-2.15-2.43-6.39-2.43a10.8,10.8,0,0,0-4.83,1.08,9,9,0,0,0-3.5,3,6.92,6.92,0,0,0-1.31,4,13.58,13.58,0,0,0,1.18,5.62,9.89,9.89,0,0,0,3.32,4.13A8.27,8.27,0,0,0,1139.66,90.46Z"/><g class="cls-2"><circle class="cls-3" cx="84" cy="180" r="20"/><circle class="cls-3" cx="84" cy="72" r="40"/><line class="cls-4" x1="84" y1="169.5" x2="84" y2="71.5"/></g><path class="cls-5" d="M87.79,94H83.05V63.47q0-3.81.23-7.2c-.41.41-.87.84-1.37,1.28s-2.84,2.36-7,5.72l-2.58-3.34,11.34-8.76h4.1Z"/></g></svg>