<?xml version="1.0" encoding="utf-8"?>
<!-- Generator: Adobe Illustrator 22.0.1, SVG Export Plug-In . SVG Version: 6.00 Build 0)  -->
<svg version="1.1" xmlns="http://www.w3.org/2000/svg" xmlns:xlink="http://www.w3.org/1999/xlink" x="0px" y="0px"
	 viewBox="0 0 1275.9 400" style="enable-background:new 0 0 1275.9 400;" xml:space="preserve">
<style type="text/css">
	.st0{opacity:0.2;}
	.st1{opacity:0.7;}
	.st2{fill:#005B72;}
	.st3{fill:#FFFFFF;}
	.st4{display:none;}
</style>
<g id="lines">
	<g class="st0">
		<rect y="290" width="1200" height="4"/>
	</g>
	<g class="st0">
		<rect x="805" y="189.5" width="285" height="4"/>
	</g>
	<g class="st0">
		<rect x="94" y="181" width="312" height="4"/>
	</g>
</g>
<g id="caption">
	<g class="st1">
		<g>
			<circle class="st2" cx="357" cy="72" r="40"/>
		</g>
		<g>
			<rect x="355" y="71.5" class="st2" width="4" height="139.5"/>
		</g>
	</g>
	<g>
		<path class="st3" d="M355.4,69.4c5.9,0,9.4-3.2,9.4-7.7V61c0-4.7-3.5-7.5-8.5-7.5c-4.9,0-7.7,2.3-9.5,5.6l-2.7-1.9
			c2-3.6,5.7-6.8,12.2-6.8c7,0,12.2,3.9,12.2,10.5c0,5.6-3.6,8.8-8.3,9.9V71c5,0.8,9.1,4.3,9.1,10.6c0,7.3-5.4,12.1-13.7,12.1
			c-6.8,0-10.7-2.9-13.3-6.8l2.7-2c2.3,3.6,5.3,5.8,10.6,5.8c6.1,0,9.9-3.3,9.9-8.6v-1c0-5.2-3.5-8.5-10-8.5h-5.3v-3.1H355.4z"/>
	</g>
	<g id="Layer_4">
	</g>
	<g>
		<g class="st1">
			<g>
				<circle class="st2" cx="666" cy="211" r="20"/>
			</g>
			<g>
				<circle class="st2" cx="666" cy="72" r="40"/>
			</g>
			<g>
				<rect x="664" y="71.5" class="st2" width="4" height="139"/>
			</g>
		</g>
		<g>
			<path class="st3" d="M671.5,94v-8.8h-21.1v-3.2l19.5-29.9h5v30.2h6.5v2.9h-6.5V94H671.5z M653.6,82.3h17.9V55.2h-0.2L653.6,82.3z
				"/>
		</g>
	</g>
	<g>
		<g class="st1">
			<g>
				<circle class="st2" cx="540" cy="225" r="20"/>
			</g>
			<g>
				<circle class="st2" cx="540" cy="69" r="40"/>
			</g>
			<g>
				<rect x="538" y="68.5" class="st2" width="4" height="139"/>
			</g>
		</g>
		<g>
			<path class="st3" d="M532.7,91l17.1-38.8h-20.3v8.6h-3.2V49.1h27.2v3.2L536.6,91H532.7z"/>
		</g>
	</g>
	<g>
		<g class="st1">
			<g>
				<circle class="st2" cx="745" cy="281" r="20"/>
			</g>
			<g>
				<circle class="st2" cx="745" cy="72" r="40"/>
			</g>
			<g>
				<rect x="743" y="71.5" class="st2" width="4" height="209"/>
			</g>
		</g>
		<g>
			<path class="st3" d="M756.6,55.2h-19l-1.3,17.6l0.4,0.1c2.2-2.9,4.8-4.4,9.2-4.4c7.4,0,12.4,4.8,12.4,12.8
				c0,8.1-5.2,13.5-13.6,13.5c-6.6,0-10.5-2.9-13.1-6.8l2.8-2c2.3,3.6,5.2,5.8,10.4,5.8c6.2,0,9.8-3.8,9.8-9.6v-1
				c0-5.8-3.4-9.5-9.7-9.5c-4.4,0-6.5,1.5-8.6,3.8l-3.1-0.5l1.5-22.7h21.9V55.2z"/>
		</g>
	</g>
	<g>
		<g class="st1">
			<g>
				<circle class="st2" cx="1091" cy="186" r="20"/>
			</g>
			<g>
				<circle class="st2" cx="1091" cy="72" r="40"/>
			</g>
			<g>
				<rect x="1089" y="71.5" class="st2" width="4" height="114"/>
			</g>
		</g>
		<g>
			<path class="st3" d="M1077.4,79.4c0-12.9,7.9-22.3,15.7-27.2h4.7c-9.4,6.4-14.5,12.5-16.6,22.3l0.2,0.1c2-3.7,5.5-6.1,10.6-6.1
				c7.5,0,12.6,4.9,12.6,12.8c0,8.1-5.3,13.6-13.5,13.6C1082.1,94.7,1077.4,88.5,1077.4,79.4z M1100.9,82.1V81
				c0-5.8-3.7-9.6-9.9-9.6c-6.3,0-10,3.8-10,9.6v1.1c0,5.8,3.7,9.6,10,9.6C1097.2,91.7,1100.9,87.9,1100.9,82.1z"/>
		</g>
	</g>
	<g>
		<g class="st1">
			<g>
				<circle class="st2" cx="824" cy="183" r="20"/>
			</g>
			<g>
				<circle class="st2" cx="824" cy="74" r="40"/>
			</g>
			<g>
				<rect x="822" y="73.5" class="st2" width="4" height="114"/>
			</g>
		</g>
		<g>
			<path class="st3" d="M809.7,84.8c0-5.8,3.4-9.4,8.8-10.6v-0.4c-4.6-1.3-7.4-4.9-7.4-9.9c0-6.4,4.9-10.5,13-10.5s13,4.1,13,10.5
				c0,5-2.9,8.6-7.4,9.9v0.4c5.3,1.2,8.8,4.8,8.8,10.6c0,6.9-5.1,11.9-14.3,11.9S809.7,91.7,809.7,84.8z M834.6,85.3v-1.4
				c0-5.2-4-8.4-10.6-8.4c-6.5,0-10.6,3.2-10.6,8.4v1.4c0,5.1,4.1,8.4,10.6,8.4C830.5,93.7,834.6,90.4,834.6,85.3z M833.3,65V64
				c0-4.6-3.5-7.5-9.3-7.5s-9.3,2.9-9.3,7.5V65c0,4.6,3.5,7.5,9.3,7.5C829.8,72.5,833.3,69.7,833.3,65z"/>
		</g>
	</g>
	<g>
		<g class="st1">
			<g>
				<circle class="st2" cx="188" cy="217" r="20"/>
			</g>
			<g>
				<circle class="st2" cx="188" cy="70" r="40"/>
			</g>
			<g>
				<rect x="186" y="69.5" class="st2" width="4" height="130.5"/>
			</g>
		</g>
		<g>
			<path class="st3" d="M201.9,92h-27.2v-3.7l14.8-14c4.1-3.8,6.8-7.7,6.8-12.1V61c0-5.2-3-8.5-8.7-8.5c-5.6,0-8.5,3-9.9,7.6
				l-3.2-1.1c1.6-5.1,5.4-9.6,13.1-9.6c8,0,12.4,4.8,12.4,11.9c0,5.9-3.2,10.5-8.4,15.2l-13.2,12.3h23.5V92z"/>
		</g>
	</g>
	<g class="st1">
		<g>
			<path class="st2" d="M354.6,214c-9.8,0-16.8,2.7-21.1,8.2c-4.3,5.5-6.5,14.7-6.5,27.6c0,13,2.2,22.2,6.6,27.8
				c4.4,5.6,11.5,8.4,21.3,8.4c8.8,0,15.3-3.1,19.6-9.4c4.3-6.3,6.5-15.2,6.5-27c0-12-2.2-20.9-6.5-26.8
				C370.2,216.9,363.6,214,354.6,214z"/>
		</g>
	</g>
</g>
<g id="grid" class="st4">
</g>
<g id="font">
	<g>
		<path d="M95.3,239H47.7v51h-9.3V181.5h9.3v49.4h47.6v-49.4h9.3V290h-9.3V239z"/>
		<path d="M192.6,290c-7.2,0-10-3.9-10.4-9.8v-2.8h-0.8c-3.6,8.4-11.4,14.5-25.2,14.5c-16.8,0-27.1-8.7-27.1-23.5c0-14.2,9-23,33-23
			h19.6v-9.8c0-13.4-7.8-20.1-20.8-20.1c-11,0-18.7,4.5-23,13.2l-6.1-4.4c4.2-9.2,14-16.5,29.5-16.5c18,0,29.2,10,29.2,26.7v47.6h12
			v7.8H192.6z M181.7,266.8v-14.8h-19.6c-16.6,0-23.6,5.4-23.6,14.2v4c0,9.2,7.6,14.2,19.1,14.2
			C171.2,284.4,181.7,277.6,181.7,266.8z"/>
		<path d="M221.1,290v-80.2h8.2v9.3h0.5c2.5-6.2,7-11.2,15.9-11.2c9,0,14,4.8,15.2,12.6h0.3c2.8-7.2,7.9-12.6,17.4-12.6
			c12.3,0,16.6,8.6,16.6,23.9V290H287v-56.8c0-13.1-3.4-17.9-11.4-17.9c-7.5,0-13.4,5.1-13.4,15.4V290H254v-56.8
			c0-13.1-3.4-17.9-11.4-17.9c-7.5,0-13.4,5.1-13.4,15.4V290H221.1z"/>
		<path d="M321.4,174.9h8.9v47.6h0.5c4.5-8.7,12.8-14.6,24.9-14.6c19.9,0,31.9,15.1,31.9,42c0,26.9-12,42-31.9,42
			c-12.1,0-20.4-5.9-24.9-14.6h-0.5V290h-8.9V174.9z M378,255.5v-11.2c0-17.4-9.2-28.5-25.3-28.5c-12,0-22.4,6.8-22.4,18.2v31.7
			c0,11.4,10.4,18.2,22.4,18.2C368.8,283.9,378,272.9,378,255.5z"/>
		<path d="M465.5,277.6h-0.6c-3.1,7.5-10,14.3-23.5,14.3c-17.3,0-27.5-10.9-27.5-30.3v-51.8h8.9V260c0,16.5,7.5,23.9,21,23.9
			c11,0,21.8-5.6,21.8-17.7v-56.4h8.9V290h-8.9V277.6z"/>
		<path d="M503.4,282.4h25.2v-65h-25.2v-7.6h34.1v18.3h0.6c3.3-9.8,10.3-18.3,26.1-18.3h13.8v8.7h-16.5c-14.5,0-24.1,9.3-24.1,23.8
			v40.1h32.7v7.6h-66.7V282.4z"/>
		<path d="M631.6,323c-24.9,0-35.1-7.5-35.1-20.1c0-9,5.3-14.2,14.2-16.8v-1.2c-5.1-2-7.6-5.6-7.6-10.9c0-7.8,6.2-11.8,14-13.8v-0.6
			c-9.5-4-15.1-12.8-15.1-24.3c0-16.3,11.5-27.4,29.4-27.4c6.4,0,12,1.4,16.5,4v-3.3c0-5,2.2-8.2,7.6-8.2h15.7v7.8h-18.3v7.3
			c5.1,4.7,8.1,11.5,8.1,19.7c0,16.2-11.8,27.2-29.5,27.2c-2.8,0-5.3-0.2-8.1-0.8c-6.5,1.6-12.4,4.8-12.4,10.4c0,4.7,4.2,7,13.1,7
			h19.1c19.4,0,27.8,7.9,27.8,20.4C670.8,315.5,657.1,323,631.6,323z M642.9,287.4h-26.3c-7.2,2.3-11.5,6.7-11.5,13.8
			c0,8.4,7,14.6,21,14.6h10.4c15.9,0,25.8-5.3,25.8-16C662.4,292.2,657.4,287.4,642.9,287.4z M651.5,237.7v-5.1
			c0-10.4-6.8-17.7-20.2-17.7c-13.2,0-20.1,7.3-20.1,17.7v5.1c0,10.3,7,17.7,20.1,17.7C644.6,255.5,651.5,248,651.5,237.7z"/>
		<path d="M689.9,250c0-26.6,13.8-42.1,35.1-42.1c21.5,0,34.4,16.2,34.4,39.8v3.9h-60.2v3.9c0,17.1,10,28.6,26.6,28.6
			c11.7,0,20.4-5.6,24.9-16l6.7,4.2c-4.8,11.7-15.9,19.6-31.6,19.6C703.6,291.9,689.9,276.3,689.9,250z M699.2,244v0.9h50.7v-1.2
			c0-17.3-9.5-28.3-24.9-28.3C709.5,215.4,699.2,226.9,699.2,244z"/>
		<path d="M784.7,282.4H813v-65h-29.9v-7.6H813v-21.9c0-7.8,3.9-12.9,12.6-12.9h29.5v7.6h-33.3v27.2h33.3v7.6h-33.3v65h29.7v7.6
			h-66.9V282.4z"/>
		<path d="M876.2,249.9c0-26.4,13.2-42,35-42c21.8,0,35,15.5,35,42s-13.2,42-35,42C889.4,291.9,876.2,276.3,876.2,249.9z
			 M936.7,254.9v-10c0-19-9.8-29.2-25.5-29.2c-15.7,0-25.5,10.3-25.5,29.2v10c0,19,9.8,29.2,25.5,29.2
			C926.9,284.1,936.7,273.8,936.7,254.9z"/>
		<path d="M974.8,290v-80.2h8.9v12.4h0.6c3.1-7.5,10-14.3,23.5-14.3c17.3,0,27.5,10.9,27.5,30.3V290h-8.9v-50.2
			c0-16.5-7.5-23.9-21-23.9c-11,0-21.8,5.6-21.8,17.7V290H974.8z"/>
		<path d="M1098.1,290c-8.6,0-12.6-5.1-12.6-12.9v-59.7H1057v-7.6h22.5c4.5,0,6.2-1.7,6.2-6.2v-22.1h8.6v28.3h38.3v7.6h-38.3v65
			h38.3v7.6H1098.1z"/>
		<path d="M1156.2,276.2l6.1-5.3c7.9,9,17.3,13.5,30.6,13.5c14,0,23.8-5.3,23.8-16.5c0-9.8-7.5-12.4-17.3-13.8l-12.4-1.7
			c-12.6-1.9-26.6-5.3-26.6-21.5c0-15.9,13.4-23,30.9-23c14.9,0,24.9,5.4,31.9,12.8l-5.9,5.6c-4.4-5.1-11.8-10.9-26.4-10.9
			c-13.5,0-21.6,5-21.6,14.9c0,9.8,7.5,12.4,17.1,13.8l12.6,1.9c12.6,1.9,26.4,5.3,26.4,21.5c0,16-13.4,24.4-32.7,24.4
			C1176.6,291.9,1164.8,286.1,1156.2,276.2z"/>
	</g>
</g>
</svg>
