<svg xmlns="http://www.w3.org/2000/svg" viewBox="0 0 1200 400"><defs><style>.cls-1,.cls-4{fill:none;stroke-miterlimit:10;stroke-width:4px;}.cls-1{stroke:#000;opacity:0.2;}.cls-2{opacity:0.7;}.cls-3{fill:#005b72;}.cls-4{stroke:#005b72;}.cls-5{fill:#fff;}</style></defs><title>font-characteristics</title><g id="lines"><line class="cls-1" y1="292" x2="1200" y2="292"/><line class="cls-1" x1="796" y1="180.05" x2="1088" y2="180.05"/><line class="cls-1" x1="88.5" y1="178.31" x2="402" y2="178.31"/></g><g id="font"><path d="M40,290V180.31H56v46.14h52.05V180.31h16V290h-16V240H56v50Z"/><path d="M150.56,215.48q4.19-2.08,7.84-3.74a51,51,0,0,1,7.31-2.7,53.24,53.24,0,0,1,7.49-1.57,61.61,61.61,0,0,1,8.35-.52A49,49,0,0,1,194,208.43a24.37,24.37,0,0,1,9.75,5,22.79,22.79,0,0,1,6.35,9.14,38.45,38.45,0,0,1,2.27,14.19V290H199.66l-1.92-9.06h-.34a31.61,31.61,0,0,1-11.84,8.18,40,40,0,0,1-14.28,2.44,34.29,34.29,0,0,1-10.88-1.65,26.28,26.28,0,0,1-8.62-4.7,20.89,20.89,0,0,1-5.66-7.4,23.12,23.12,0,0,1-2-9.75q0-12.88,10.19-19.59t26.89-6.7h15.67v-7c0-5.91-1.51-10-4.52-12.09s-7.08-3.23-12.19-3.23A43,43,0,0,0,169.8,221a57.14,57.14,0,0,0-13.32,5.66Zm46.49,36.73-12.89.35q-13,.36-18.54,4.62t-5.48,10.36a14,14,0,0,0,1.22,6.18,9.74,9.74,0,0,0,3.22,3.91,13.25,13.25,0,0,0,4.7,2,26,26,0,0,0,5.66.61,28,28,0,0,0,11.66-2.7,27.57,27.57,0,0,0,10.45-8.62Z"/><path d="M250.15,290H234.83V208.17h11.84l2.26,11.31a49.53,49.53,0,0,1,12.36-9.14A34.36,34.36,0,0,1,277.13,207c5.81,0,10.56,1.19,14.28,3.57a22.06,22.06,0,0,1,8.36,9.84,45.09,45.09,0,0,1,13.4-9.93A37.2,37.2,0,0,1,329.36,207q12.54,0,18.89,7.05t6.36,19.59V290H339.29V236.37q0-8.18-3.48-12.53t-11.5-4.36q-11.83,0-22.11,10.62a8.74,8.74,0,0,1,.18,1.75V290H287.06V236.37q0-8.18-3.48-12.53t-11.5-4.36q-11.83,0-21.93,11.15Z"/><path d="M453.84,249.08a49.36,49.36,0,0,1-3,17.59,41.44,41.44,0,0,1-8,13.4A34.19,34.19,0,0,1,431,288.6a35.86,35.86,0,0,1-14.45,3,39.64,39.64,0,0,1-14-2.26,35.39,35.39,0,0,1-11.23-7H391L389.43,290h-11V166.38H393.6v52.06a35.83,35.83,0,0,1,12.28-8.71,36.29,36.29,0,0,1,14-2.78q15.67,0,24.81,11.14T453.84,249.08Zm-16,.18q0-13.59-5.75-21.68t-16.19-8.1a24.57,24.57,0,0,0-12,3,40,40,0,0,0-10.28,8.36v39.7a30.41,30.41,0,0,0,8.27,6.7,22,22,0,0,0,10.71,2.52,26.7,26.7,0,0,0,9.49-1.74,21.2,21.2,0,0,0,8.1-5.48,27.74,27.74,0,0,0,5.57-9.49A40.38,40.38,0,0,0,437.83,249.26Z"/><path d="M527.14,208.17h15.32V290h-12l-2.09-10.28h-.7a37.91,37.91,0,0,1-11.23,8.45,34.08,34.08,0,0,1-15.58,3.39q-12.71,0-20.63-7.22t-7.92-21.85V208.17h15.32v52.4a26.58,26.58,0,0,0,1.3,8.88,15.42,15.42,0,0,0,3.48,5.83,12.64,12.64,0,0,0,5.14,3.14,20.75,20.75,0,0,0,6.44,1,26.38,26.38,0,0,0,12.54-3,43.17,43.17,0,0,0,10.62-8.19Z"/><path d="M565.79,290V208.17h11.49l2.61,16.36a27.13,27.13,0,0,1,9.75-12.71A26.23,26.23,0,0,1,605.31,207a33.09,33.09,0,0,1,7.48.7,32,32,0,0,1,5.4,1.74l-3,13.4a26.29,26.29,0,0,0-4.61-1.74,23,23,0,0,0-6-.69,24.38,24.38,0,0,0-9.31,1.74,20.8,20.8,0,0,0-7.49,5.22,24.71,24.71,0,0,0-5,8.62,34.88,34.88,0,0,0-1.83,11.75V290Z"/><path d="M625.33,235.33a28.61,28.61,0,0,1,2.44-12.1,24.88,24.88,0,0,1,6.87-9,29.78,29.78,0,0,1,10.54-5.48A45.79,45.79,0,0,1,658.41,207a36.07,36.07,0,0,1,5.05.35c1.62.23,3.24.52,4.87.87h35.34v11.31h-5.39l-13.93-1.91a25.44,25.44,0,0,1,7,17.58,28.76,28.76,0,0,1-2.43,12.1,25.5,25.5,0,0,1-6.8,9,28.74,28.74,0,0,1-10.44,5.48,45.84,45.84,0,0,1-13.23,1.83,55.94,55.94,0,0,1-9.4-.69,11.26,11.26,0,0,0-5.58,3.56,7.81,7.81,0,0,0-1.56,4.62q0,4,2.7,5.4a15.77,15.77,0,0,0,7.22,1.39h21.59q13.57,0,20.8,6.18t7.23,16.8a25,25,0,0,1-3,12.19A27.18,27.18,0,0,1,690,322.2,40.88,40.88,0,0,1,676.69,328a71.43,71.43,0,0,1-17.59,2q-17.76,0-28.29-6.36T620.28,305a15.15,15.15,0,0,1,4.09-10.8,25.91,25.91,0,0,1,10.71-6.61,19.12,19.12,0,0,1-5.23-5.14,13.17,13.17,0,0,1-1.74-7.22,13.9,13.9,0,0,1,3.22-9.23,22.11,22.11,0,0,1,8.8-6.09,24.77,24.77,0,0,1-10.88-9.14Q625.32,244.72,625.33,235.33ZM644,290q-8.88,4-8.88,12.53,0,15.32,24.72,15.32a47.11,47.11,0,0,0,12.36-1.39,25.49,25.49,0,0,0,8.18-3.66,15.06,15.06,0,0,0,4.62-5.05,12.15,12.15,0,0,0,1.48-5.74q0-7.32-5-9.66A29,29,0,0,0,669,290Zm31.86-54.32q0-9.23-4.79-13.58t-12.62-4.36q-7.85,0-12.62,4.36T641,235q0,9.06,4.79,13.32t12.62,4.26q7.83,0,12.62-4.18T675.82,235.68Z"/><path d="M786.89,250.82H728.22v.7q0,13.57,7.4,20.89t20.11,7.31a59.06,59.06,0,0,0,11.75-1,66.76,66.76,0,0,0,11.23-3.48l3.13,11.31a56.76,56.76,0,0,1-11.92,3.66,74,74,0,0,1-14.71,1.39,55,55,0,0,1-16.63-2.44,37.84,37.84,0,0,1-13.67-7.57,35.28,35.28,0,0,1-9.31-13.14,49,49,0,0,1-3.4-19.15,50.11,50.11,0,0,1,2.88-17.41,37.82,37.82,0,0,1,8.09-13.32A36.16,36.16,0,0,1,735.79,210,43.38,43.38,0,0,1,752.42,207a37.05,37.05,0,0,1,14.19,2.61,31.56,31.56,0,0,1,10.88,7.31,32.19,32.19,0,0,1,7,11.32,42.15,42.15,0,0,1,2.43,14.62Zm-15.84-11a30.48,30.48,0,0,0-1.13-8.44,20,20,0,0,0-3.48-6.88,16.74,16.74,0,0,0-6-4.7,20.56,20.56,0,0,0-8.88-1.74q-9.57,0-15.58,6.1t-7.4,16Z"/><path d="M835.81,165.51a40.12,40.12,0,0,1,10.19,1.4,49.4,49.4,0,0,1,9.49,3.48L852.35,181a50.88,50.88,0,0,0-6.61-2.18,27.35,27.35,0,0,0-6.62-.78q-8.36,0-11.92,4.7t-3.57,16v9.4h24.89v11.49H823.63V290H808.48V219.66h-12V208.17h12V193.72q0-13.59,7-20.89T835.81,165.51Z"/><path d="M934.35,248.21a50.58,50.58,0,0,1-3.13,18.37,39.53,39.53,0,0,1-8.62,13.67,36.54,36.54,0,0,1-12.79,8.44A43.1,43.1,0,0,1,894,291.56a44.64,44.64,0,0,1-15.75-2.7,34.49,34.49,0,0,1-12.54-8,37.58,37.58,0,0,1-8.35-13.06A48.35,48.35,0,0,1,854.27,250a49.9,49.9,0,0,1,3.13-18.28A38.65,38.65,0,0,1,866,218.18a37.08,37.08,0,0,1,12.8-8.36A43,43,0,0,1,894.66,207a46.12,46.12,0,0,1,15.76,2.61A34.16,34.16,0,0,1,923,217.4a36.71,36.71,0,0,1,8.36,13A48.51,48.51,0,0,1,934.35,248.21Zm-16,.87a41,41,0,0,0-2.09-13.93,27.24,27.24,0,0,0-5.49-9.4,20.4,20.4,0,0,0-7.74-5.31,24.93,24.93,0,0,0-8.88-1.65,28.9,28.9,0,0,0-8.88,1.39,18,18,0,0,0-7.66,4.88,25,25,0,0,0-5.31,9.31,45.79,45.79,0,0,0-2,14.71,41.54,41.54,0,0,0,2.09,14,27.13,27.13,0,0,0,5.48,9.48,21.18,21.18,0,0,0,7.75,5.4,23.72,23.72,0,0,0,8.88,1.74,27.29,27.29,0,0,0,8.87-1.48,18.44,18.44,0,0,0,7.67-5.05,26,26,0,0,0,5.3-9.4A45.72,45.72,0,0,0,918.34,249.08Z"/><path d="M968.3,290H953V208.17h12l2.26,11.31a47,47,0,0,1,12.79-9.31A35.15,35.15,0,0,1,995.46,207q12.54,0,19.68,7.05t7.13,19.59V290H1007V235.85q0-7.48-3.91-11.93t-11.93-4.44q-12.2,0-22.81,11Z"/><path d="M1088.08,219.66h-24v47.53c0,4.06,1,6.79,3,8.18a13.73,13.73,0,0,0,7.92,2.09,42.05,42.05,0,0,0,7.66-.78,58.47,58.47,0,0,0,7.31-1.83l2.44,11.66a50.54,50.54,0,0,1-8.88,2.44,59.19,59.19,0,0,1-11.32,1.05q-12.18,0-17.76-5.31t-5.57-15.41V219.66h-12.18V208.17h12.18V182.05h15.15v26.12h24Z"/><path d="M1154.42,223.49a48.59,48.59,0,0,0-10.45-3.83,43,43,0,0,0-9.4-1q-8.35,0-12.36,3a9.68,9.68,0,0,0-4,8.1,8.56,8.56,0,0,0,2.79,6.35q2.77,2.7,11.66,5.31l5.23,1.57q11.65,3.48,17.67,9t6,14.89q0,11.15-8.26,17.93t-23.07,6.79a79.2,79.2,0,0,1-15.06-1.39,53.2,53.2,0,0,1-12.45-3.83l3.66-12a56.71,56.71,0,0,0,11,3.91,49.21,49.21,0,0,0,12,1.48q7.83,0,12.44-2.78t4.62-9.23q0-5.56-4-7.92a54.81,54.81,0,0,0-11.49-4.61l-5.39-1.75q-11.32-3.65-16.81-9.14t-5.48-14.19a20.4,20.4,0,0,1,2.26-9.57,21.47,21.47,0,0,1,6.18-7.31,29.88,29.88,0,0,1,9.32-4.62,40.34,40.34,0,0,1,11.84-1.65,74.31,74.31,0,0,1,12.62,1.13,53.66,53.66,0,0,1,12.45,3.74Z"/></g><g id="caption"><g class="cls-2"><circle class="cls-3" cx="692" cy="213" r="20"/><circle class="cls-3" cx="692" cy="72" r="40"/><line class="cls-4" x1="692" y1="212.5" x2="692" y2="71.5"/></g><path class="cls-5" d="M708,84.16h-6.36V94h-4.65V84.16H676.11V79.91l20.33-29h5.15v28.8H708Zm-11-4.43V65.49c0-2.79.09-5.94.29-9.46H697a44,44,0,0,1-2.64,4.66L681,79.73Z"/><g class="cls-2"><circle class="cls-3" cx="1057" cy="183" r="20"/><circle class="cls-3" cx="1057" cy="72" r="40"/><line class="cls-4" x1="1057" y1="182.5" x2="1057" y2="71.5"/></g><path class="cls-5" d="M1043.27,75.69q0-12.63,4.91-18.88t14.52-6.26a19.31,19.31,0,0,1,5.21.56V55.3a16.59,16.59,0,0,0-5.15-.73q-6.88,0-10.52,4.29t-4,13.49h.36q3.21-5,10.19-5,5.78,0,9.1,3.49t3.32,9.46q0,6.67-3.64,10.5a13,13,0,0,1-9.86,3.83,12.67,12.67,0,0,1-10.55-5Q1043.27,84.6,1043.27,75.69Zm14.39,14.77a8.14,8.14,0,0,0,6.46-2.63q2.3-2.62,2.3-7.57a9.75,9.75,0,0,0-2.14-6.68q-2.15-2.43-6.39-2.43a10.8,10.8,0,0,0-4.83,1.08,9,9,0,0,0-3.5,3,6.92,6.92,0,0,0-1.31,4,13.58,13.58,0,0,0,1.18,5.62,9.89,9.89,0,0,0,3.32,4.13A8.27,8.27,0,0,0,1057.66,90.46Z"/><g class="cls-2"><circle class="cls-3" cx="117" cy="176" r="20"/><circle class="cls-3" cx="117" cy="72" r="40"/><line class="cls-4" x1="117" y1="175.5" x2="117" y2="71.5"/></g><path class="cls-5" d="M120.79,94h-4.74V63.47q0-3.81.23-7.2c-.41.41-.87.84-1.37,1.28s-2.84,2.36-7,5.72l-2.58-3.34,11.34-8.76h4.1Z"/><g class="cls-2"><circle class="cls-3" cx="160" cy="218" r="20"/><circle class="cls-3" cx="243" cy="72" r="40"/><polyline class="cls-4" points="160 217.5 160 155 243 72"/><path class="cls-5" d="M256.93,94H228.78V89.81l11.28-11.34A81.59,81.59,0,0,0,246.85,71a18.51,18.51,0,0,0,2.46-4.33,12.38,12.38,0,0,0,.82-4.55,7.19,7.19,0,0,0-2.08-5.43,8,8,0,0,0-5.77-2,14.61,14.61,0,0,0-5.05.88,20.1,20.1,0,0,0-5.32,3.2l-2.58-3.32a19.77,19.77,0,0,1,12.89-4.92q6,0,9.47,3.09A10.65,10.65,0,0,1,255.11,62,16.1,16.1,0,0,1,252.83,70q-2.28,4-8.56,10.07l-9.37,9.17v.24h22Z"/></g><g class="cls-2"><circle class="cls-3" cx="775" cy="282" r="20"/><circle class="cls-3" cx="858" cy="72" r="40"/><polyline class="cls-4" points="775 281.5 775 155 858 72"/><path class="cls-5" d="M857.17,67.84q6.76,0,10.64,3.35a11.52,11.52,0,0,1,3.89,9.19q0,6.65-4.24,10.43t-11.67,3.78q-7.24,0-11-2.32V87.58a16.87,16.87,0,0,0,5.1,2.07,25,25,0,0,0,6,.75c3.43,0,6.11-.81,8-2.44a8.73,8.73,0,0,0,2.86-7q0-9-11-9a43.26,43.26,0,0,0-7.44.85l-2.52-1.61,1.61-20h21.3v4.48H851.54l-1.08,12.86A34,34,0,0,1,857.17,67.84Z"/></g><g class="cls-2"><circle class="cls-3" cx="414" cy="72" r="40"/><line class="cls-4" x1="414" y1="247.5" x2="414" y2="71.5"/><path class="cls-5" d="M426.32,61.25A9.8,9.8,0,0,1,424,68a11.52,11.52,0,0,1-6.52,3.48v.24q5.16.64,7.65,3.28a9.64,9.64,0,0,1,2.49,6.91q0,6.12-4.25,9.42t-12.07,3.3a34.26,34.26,0,0,1-6.23-.52,21.28,21.28,0,0,1-5.49-1.8V87.64a28,28,0,0,0,11.9,2.82q11.1,0,11.1-8.71,0-7.78-12.25-7.79h-4.22V69.77h4.28a12.9,12.9,0,0,0,7.94-2.21,7.27,7.27,0,0,0,2.93-6.14,6.06,6.06,0,0,0-2.15-4.92,8.91,8.91,0,0,0-5.85-1.79,18.3,18.3,0,0,0-5.3.76,23.59,23.59,0,0,0-5.68,2.82L399.83,55a20.52,20.52,0,0,1,6.08-3.27,22.19,22.19,0,0,1,7.26-1.19q6.24,0,9.69,2.86A9.61,9.61,0,0,1,426.32,61.25Z"/><path class="cls-3" d="M437.82,249.26q0-13.59-5.74-21.68t-16.19-8.1a24.57,24.57,0,0,0-12,3,40,40,0,0,0-10.28,8.36v39.7a30.41,30.41,0,0,0,8.27,6.7,22,22,0,0,0,10.71,2.52,26.7,26.7,0,0,0,9.49-1.74,21.09,21.09,0,0,0,8.09-5.48,27.75,27.75,0,0,0,5.58-9.49A40.39,40.39,0,0,0,437.82,249.26Z"/></g></g></svg>