<svg xmlns="http://www.w3.org/2000/svg" viewBox="0 0 1200 400"><defs><style>.cls-1,.cls-4{fill:none;stroke-miterlimit:10;stroke-width:4px;}.cls-1{stroke:#000;opacity:0.2;}.cls-2{opacity:0.7;}.cls-3{fill:#005b72;}.cls-4{stroke:#005b72;}.cls-5{fill:#fff;}</style></defs><title>font-characteristics</title><g id="lines"><line class="cls-1" y1="292" x2="1200" y2="292"/><line class="cls-1" x1="805" y1="185.5" x2="1090" y2="185.5"/><line class="cls-1" x1="94" y1="177" x2="406" y2="177"/></g><g id="font"><path d="M29.29,185.63l1-6.79H78.89l-.9,6.79L63,189v39.14h56V189.38l-16.35-3.75,1-6.79h48.79l-1.08,6.79L136.43,189v90.79l16.26,3L151.8,290H103.28l.89-6.62,14.84-4.2V237.37H63v42.44l16.44,3L78.26,290H29.92l.72-6.62,14.92-4.2v-89.8Z"/><path d="M173.07,292.14a19,19,0,0,1-8.76-2.06,15.76,15.76,0,0,1-6.39-5.94,17.23,17.23,0,0,1-2.37-9.16,21.76,21.76,0,0,1,4.38-13q4.38-6.07,13.63-10.23t23.19-5.14v-4.92q0-10.37-3.67-17.11t-12.15-6.75c-2.8,0-4.82.57-6.08,1.7a8.53,8.53,0,0,0-2.45,5.1q-.59,3.39-1.39,12.42a20.55,20.55,0,0,1-8.84-1.7q-3.58-1.69-3.58-7.51,0-4.63,4.92-8.89a37.64,37.64,0,0,1,12.15-6.83,40.08,40.08,0,0,1,13.49-2.59q11.81,0,16.93,6.56T211.22,237v32.43A20.58,20.58,0,0,0,212,276a6.32,6.32,0,0,0,2.9,3.49,20,20,0,0,0,6.3,1.92l4.47.8-1.16,7.69c-.9.11-2.27.35-4.11.71a35.83,35.83,0,0,1-8.05,1,15.91,15.91,0,0,1-7.95-1.78,11,11,0,0,1-4.51-4.52,12.37,12.37,0,0,1-1.39-5.67v-1.34h-1a27.81,27.81,0,0,1-8.71,9.43Q182.72,292.15,173.07,292.14Zm23.68-40.39q-14,2.77-19.75,7.46a14.36,14.36,0,0,0-5.81,11.57,10.94,10.94,0,0,0,1.16,4.74,10.39,10.39,0,0,0,3.44,4,9.15,9.15,0,0,0,5.41,1.61,16.88,16.88,0,0,0,8.58-2.5,29.48,29.48,0,0,0,7-5.45Z"/><path d="M270.55,290H229.36l.9-6.62,13.4-3.57V225.75l-14.3-4.56.9-6.7,27.16-3.75,1.61,1.87-1.61,11.26h.8A40.8,40.8,0,0,1,270.06,214a30,30,0,0,1,15-4,22,22,0,0,1,12.29,3.58q5.49,3.57,7.46,11.17h1.07a40.19,40.19,0,0,1,11.57-10.06,28.93,28.93,0,0,1,14.79-4q21.09,0,21.09,24.93v44.14l12.33,3.22L364.47,290h-38l.63-6.53,11.17-3.57V237.72a16.08,16.08,0,0,0-4-11.17q-4-4.47-11-4.47a17.49,17.49,0,0,0-9.24,2.37,37.79,37.79,0,0,0-7.82,6.57v48.79l13.22,3.13-.89,7.06H279l1-6.62,11.7-3.57V237.72a16.28,16.28,0,0,0-2-8.13,14.26,14.26,0,0,0-5.49-5.54,15.59,15.59,0,0,0-7.78-2,23.93,23.93,0,0,0-9.65,2,22.17,22.17,0,0,0-7.95,5.76v49.95l12.78,3.13Z"/><path d="M379.21,188.31l-13.49-4.74,1.16-6.79,24.75-1.87,2.15,2.05v37.17l-1.26,9.38h1a50.66,50.66,0,0,1,12.06-10.18,26.11,26.11,0,0,1,13.4-3.67,24.72,24.72,0,0,1,15.11,4.83A31.48,31.48,0,0,1,444.22,228a51.17,51.17,0,0,1,3.62,19.84q0,13.67-6,23.68a40.4,40.4,0,0,1-16.12,15.28,46.68,46.68,0,0,1-21.9,5.27,54,54,0,0,1-12.95-1.61,39.23,39.23,0,0,1-11.62-4.82ZM393.78,230v46.19a19.45,19.45,0,0,0,7.86,4.38,34.83,34.83,0,0,0,11,1.7,16.22,16.22,0,0,0,9.65-3.13,20.94,20.94,0,0,0,7-9.56q2.6-6.43,2.59-16a65.89,65.89,0,0,0-1.7-15,28.68,28.68,0,0,0-5.89-12.24,14.1,14.1,0,0,0-11.35-5Q401.91,221.37,393.78,230Z"/><path d="M466.42,224.94,454.09,220l1.25-7.06,24-1.88,2.23,2.15v48.43q0,18.13,13.76,18.14A22.72,22.72,0,0,0,504.8,278a23.68,23.68,0,0,0,7.1-5.09V225.48l-14.2-3.75.89-8.22,26.27-2.42,1.88,2.15v57.54a14.8,14.8,0,0,0,1.11,6.48,6.55,6.55,0,0,0,3,3.08,26.23,26.23,0,0,0,5.54,1.7l4.11.9-.81,7.41c-2.8.66-5.09,1.1-6.88,1.34a50.8,50.8,0,0,1-6.61.36q-6.44,0-9.78-3.57a13.15,13.15,0,0,1-3.35-9.39v-.8H511.9q-9.47,13.75-25.55,13.76-9.3,0-14.61-6.12t-5.32-19.79Z"/><path d="M594.83,290H545.5l.9-6.62,13.67-3.57V224.94l-14.57-4.37,1.25-6.79,25.65-3.31,2.05,2.14-1.78,20.56h1.69a48.48,48.48,0,0,1,6-13.23,29.1,29.1,0,0,1,7.77-8.18,14.71,14.71,0,0,1,8.14-2.72,9.3,9.3,0,0,1,7.14,3,10,10,0,0,1,2.77,7q0,5.63-5.09,9.91a25,25,0,0,0-5.45-2.54,17.36,17.36,0,0,0-5.45-.94,10.75,10.75,0,0,0-5.9,2.19,20.69,20.69,0,0,0-5.85,6.57A28.11,28.11,0,0,0,574.9,245v34.22l20.82,3Z"/><path d="M642.09,324.49q-14,0-23.18-4.7t-9.16-15.32q0-8,14.29-16.08v-.81a15.83,15.83,0,0,1-6.34-5.18,12.1,12.1,0,0,1-2.23-7.06,8.87,8.87,0,0,1,2.28-5.23,29.5,29.5,0,0,1,5.8-5.49,31.77,31.77,0,0,1,6.84-3.93v-.63c-1.67-.42-3.66-1.71-6-3.89a29.45,29.45,0,0,1-6-8.26,22.92,22.92,0,0,1-2.55-10.54,23.68,23.68,0,0,1,4.29-13.5,31.68,31.68,0,0,1,11.22-10.14,29.43,29.43,0,0,1,14.34-3.8q11,0,18.76,5.63c2.39-.12,5.72-.34,10-.67s7.36-.58,9.2-.76l1.79,2.06L682,226.11h-1.43l-11-3.58v1.52a44.16,44.16,0,0,1,2.05,5.9,23.9,23.9,0,0,1,1,6.52,22.33,22.33,0,0,1-4.6,13.85,31.35,31.35,0,0,1-11.61,9.43,32.29,32.29,0,0,1-14,3.35,34.33,34.33,0,0,1-4.64-.31c-1.55-.21-2.68-.41-3.4-.58q-4.47,4.64-4.47,7.86c0,2.08,1.12,3.68,3.35,4.78s6.57,1.65,13,1.65h12.15q10.89,0,17.82,4.29t6.93,13.67q0,7.6-5.94,14.52a43.51,43.51,0,0,1-15.51,11.22A47.31,47.31,0,0,1,642.09,324.49Zm-12-34.76c0-.18-.43.09-1.29.8a9.31,9.31,0,0,0-2.33,3.26,14,14,0,0,0-1,5.86q0,15.27,21.45,15.27,9.55,0,15.32-3.84T668,298.93q0-3.93-2.19-5.9T659,290.4a99.2,99.2,0,0,0-13.31-.67Zm13.4-73.27q-6.69,0-10,5.09t-3.35,14.12a24,24,0,0,0,2.24,10.54,19.25,19.25,0,0,0,5.67,7.24,11.33,11.33,0,0,0,6.84,2.59c4.16,0,7.4-1.46,9.69-4.38s3.44-7.41,3.44-13.49a30.57,30.57,0,0,0-1.74-10.1,21.87,21.87,0,0,0-5-8.31A10.5,10.5,0,0,0,643.52,216.46Z"/><path d="M725.46,292.68a31,31,0,0,1-16.39-4.7,33.64,33.64,0,0,1-12.47-14q-4.74-9.28-4.73-22.25,0-12.78,5.4-22.34a39.06,39.06,0,0,1,13.9-14.65,33.41,33.41,0,0,1,17.42-5.1,23,23,0,0,1,12.06,3.27,22.57,22.57,0,0,1,8.63,9.65,34.63,34.63,0,0,1,3.17,15.5,48.82,48.82,0,0,1-.45,5.67,59.79,59.79,0,0,1-1,5.95l-43.25.53A44.09,44.09,0,0,0,711,264.8a28.53,28.53,0,0,0,8.35,11.57,20.37,20.37,0,0,0,13.36,4.51q4.29,0,6.79-.22a26.73,26.73,0,0,0,5.81-1.3A48.93,48.93,0,0,0,753,276l1.87,4.73a37.44,37.44,0,0,1-13,8.8A42.24,42.24,0,0,1,725.46,292.68Zm-1.25-74.26a11.94,11.94,0,0,0-7.32,2.73,20.47,20.47,0,0,0-6,8.31,39.7,39.7,0,0,0-2.9,13.8l28.06-2a16.21,16.21,0,0,0,.4-2.91c.09-1.28.13-2.36.13-3.26Q736.54,218.42,724.21,218.42Z"/><path d="M812.76,290H761.92l1.07-6.53,13.58-3.84V219.94H763.26l1.07-6.52,12.33-2q1.44-13,6.84-22.16t12.64-13.85q7.25-4.65,14-4.65,7.51,0,12.11,2.6a8.3,8.3,0,0,1,4.6,7.68,9,9,0,0,1-2.68,6,14.14,14.14,0,0,1-5.27,4,45.93,45.93,0,0,0-7.69-7.51c-2.86-2.2-5.53-3.3-8-3.3a9.19,9.19,0,0,0-8.35,4.87q-2.91,4.86-3.17,17.2L791.5,212h23l-1.07,7.95H791.5v59.24l21.89,3.4Z"/><path d="M862.18,292.41q-11.53,0-19.8-5.27a33.92,33.92,0,0,1-12.59-14.43,48,48,0,0,1-4.34-20.78q0-13.05,5.45-22.74a38.24,38.24,0,0,1,14.34-14.79,37.72,37.72,0,0,1,19.08-5.09,33.85,33.85,0,0,1,18.81,5.18A33.26,33.26,0,0,1,895.37,229a51.68,51.68,0,0,1,4.25,21.58,46.52,46.52,0,0,1-5,21.71,37,37,0,0,1-13.54,14.84A35.51,35.51,0,0,1,862.18,292.41Zm-1.61-73.72a16.12,16.12,0,0,0-10.77,3.66,21.44,21.44,0,0,0-6.39,9.79,42,42,0,0,0-2,13.45,69,69,0,0,0,2.41,18.58,31.9,31.9,0,0,0,7.77,14.12,18.38,18.38,0,0,0,13.68,5.45A14.85,14.85,0,0,0,875.4,280a22.3,22.3,0,0,0,6.26-9.6,37.77,37.77,0,0,0,2.05-12.51,72.21,72.21,0,0,0-2.37-18.59,35.5,35.5,0,0,0-7.59-14.79A16.93,16.93,0,0,0,860.57,218.69Z"/><path d="M949,290H907.57l.89-6.53,13.5-3.66V225.57l-13.76-4.65.89-6.79,26.63-3.48,1.52,1.7-1.52,11.43h.89a45,45,0,0,1,12.06-10.09,29.14,29.14,0,0,1,14.84-4q10.46,0,16,6.62T985,235v44.86l12.87,3.13L997,290H956.89l.9-6.53,12.33-3.66V238.44q0-8.31-4.25-12.38T954.57,222a24.06,24.06,0,0,0-9.65,2,22.68,22.68,0,0,0-7.95,5.67v50.13l13.31,3.13Z"/><path d="M1012.83,221.82h-11.35V217a106.15,106.15,0,0,0,11.35-11,162.56,162.56,0,0,0,10.72-13.13h4.74v21.26h25.29l-.81,7.87h-24.66l-.27,39.49a33.28,33.28,0,0,0,1.34,10.55,9.59,9.59,0,0,0,4.2,5.45,15.52,15.52,0,0,0,7.6,1.6,16,16,0,0,0,5.81-1.11,29.76,29.76,0,0,0,5-2.46,16.53,16.53,0,0,0,2.09-1.43l1.88,4.83a30.56,30.56,0,0,1-10.45,9.65,27.83,27.83,0,0,1-13.76,3.48q-9,0-14.08-5.67t-5-19.62Z"/><path d="M1087.35,293a43.86,43.86,0,0,1-13.58-1.92,22.44,22.44,0,0,1-9.11-5.14,9.53,9.53,0,0,1-3.22-6.79,13,13,0,0,1,3-8.57,10.81,10.81,0,0,1,7.95-3.94q3,8.76,7.6,13.18a14.48,14.48,0,0,0,10.18,4.43,15.07,15.07,0,0,0,8.49-2.19c2.2-1.46,3.31-3.74,3.31-6.84a8.38,8.38,0,0,0-2-5.32,22,22,0,0,0-5-4.46q-3-2-8.35-5.05a134,134,0,0,1-11.93-7.55,32,32,0,0,1-7.86-8.27,20,20,0,0,1-3.27-11.35,22.46,22.46,0,0,1,3-11,24.64,24.64,0,0,1,9.07-9.07,27.73,27.73,0,0,1,14.52-3.61,29.54,29.54,0,0,1,11.44,2.09,18.33,18.33,0,0,1,7.73,5.72,13.11,13.11,0,0,1,2.72,8.09,11,11,0,0,1-3.35,8.31q-3.35,3.22-9.16,3.58-1.6-10.2-5.18-15.24t-8.75-5a9.18,9.18,0,0,0-7.29,3.13,11.13,11.13,0,0,0-2.72,7.59,10.34,10.34,0,0,0,2.23,6.48,23.56,23.56,0,0,0,5.54,5.14q3.3,2.24,9.2,5.54A122.72,122.72,0,0,1,1104.2,252a30.34,30.34,0,0,1,7.55,7.73,18.43,18.43,0,0,1,3.12,10.59,18.81,18.81,0,0,1-3.93,11.57,26.54,26.54,0,0,1-10.32,8.17A31.25,31.25,0,0,1,1087.35,293Z"/></g><g id="caption"><g class="cls-2"><circle class="cls-3" cx="393" cy="52" r="40"/><line class="cls-4" x1="393" y1="227.5" x2="393" y2="51.5"/><path class="cls-3" d="M394.94,200.93q-12.9,0-18.6,5.13t-5.69,17.3q0,12.16,5.84,17.4T395.25,246q11.61,0,17.31-5.87t5.69-16.88q0-11.26-5.69-16.8T394.94,200.93Z"/></g><path class="cls-5" d="M405.32,41.25A9.8,9.8,0,0,1,403,48a11.52,11.52,0,0,1-6.52,3.48v.24q5.16.65,7.65,3.28a9.64,9.64,0,0,1,2.49,6.91q0,6.12-4.25,9.42t-12.07,3.3a34.26,34.26,0,0,1-6.23-.52,21.28,21.28,0,0,1-5.49-1.8V67.64a28,28,0,0,0,11.9,2.82q11.1,0,11.1-8.71,0-7.78-12.25-7.79h-4.22V49.77h4.28a12.9,12.9,0,0,0,7.94-2.21,7.27,7.27,0,0,0,2.93-6.14,6.06,6.06,0,0,0-2.15-4.92,8.91,8.91,0,0,0-5.85-1.79,18.3,18.3,0,0,0-5.3.76,23.59,23.59,0,0,0-5.68,2.82L378.83,35a20.52,20.52,0,0,1,6.08-3.27,22.19,22.19,0,0,1,7.26-1.19q6.24,0,9.69,2.86A9.61,9.61,0,0,1,405.32,41.25Z"/><g class="cls-2"><circle class="cls-3" cx="676" cy="217" r="20"/><circle class="cls-3" cx="676" cy="78" r="40"/><line class="cls-4" x1="676" y1="216.5" x2="676" y2="77.5"/></g><path class="cls-5" d="M692,90.16h-6.36V100h-4.65V90.16H660.11V85.91l20.33-29h5.15v28.8H692Zm-11-4.43V71.49c0-2.79.09-5.94.29-9.46H681a44,44,0,0,1-2.64,4.66L665,85.73Z"/><g class="cls-2"><circle class="cls-3" cx="785" cy="281" r="20"/><circle class="cls-3" cx="785" cy="72" r="40"/><line class="cls-4" x1="785" y1="280.5" x2="785" y2="71.5"/></g><path class="cls-5" d="M784.17,67.84q6.76,0,10.64,3.35a11.52,11.52,0,0,1,3.89,9.19q0,6.65-4.24,10.43t-11.67,3.78q-7.24,0-11-2.32V87.58a16.87,16.87,0,0,0,5.1,2.07,25,25,0,0,0,6,.75c3.43,0,6.11-.81,8-2.44a8.73,8.73,0,0,0,2.86-7q0-9-11-9a43.26,43.26,0,0,0-7.44.85l-2.52-1.61,1.61-20h21.3v4.48H778.54l-1.08,12.86A34,34,0,0,1,784.17,67.84Z"/><g class="cls-2"><circle class="cls-3" cx="932" cy="220" r="20"/><circle class="cls-3" cx="932" cy="106" r="40"/><line class="cls-4" x1="932" y1="219.5" x2="932" y2="105.5"/></g><path class="cls-5" d="M918.27,109.69q0-12.63,4.91-18.88t14.52-6.26a19.31,19.31,0,0,1,5.21.56V89.3a16.59,16.59,0,0,0-5.15-.73q-6.88,0-10.52,4.29t-4,13.49h.36q3.21-5,10.19-5,5.78,0,9.1,3.49t3.32,9.46q0,6.67-3.64,10.5a13,13,0,0,1-9.86,3.83,12.67,12.67,0,0,1-10.55-5Q918.27,118.6,918.27,109.69Zm14.39,14.77a8.14,8.14,0,0,0,6.46-2.63q2.29-2.62,2.3-7.57a9.75,9.75,0,0,0-2.14-6.68q-2.14-2.43-6.39-2.43a10.8,10.8,0,0,0-4.83,1.08,9,9,0,0,0-3.5,3,6.92,6.92,0,0,0-1.31,4,13.58,13.58,0,0,0,1.18,5.62,9.89,9.89,0,0,0,3.32,4.13A8.27,8.27,0,0,0,932.66,124.46Z"/><g class="cls-2"><circle class="cls-3" cx="1104" cy="224" r="20"/><circle class="cls-3" cx="1104" cy="110" r="40"/><line class="cls-4" x1="1104" y1="223.5" x2="1104" y2="109.5"/></g><path class="cls-5" d="M1095.2,132,1113,93.65H1089.6V89.17h28.51v3.89L1100.59,132Z"/><g class="cls-2"><circle class="cls-3" cx="68" cy="183" r="20"/><circle class="cls-3" cx="68" cy="85" r="40"/><line class="cls-4" x1="68" y1="182.5" x2="68" y2="84.5"/></g><path class="cls-5" d="M71.79,107H67.05V76.47q0-3.81.23-7.2c-.41.41-.87.84-1.37,1.28s-2.84,2.36-7,5.72l-2.58-3.34,11.34-8.76h4.1Z"/><g class="cls-2"><circle class="cls-3" cx="201" cy="250" r="20"/><circle class="cls-3" cx="201" cy="85" r="40"/><line class="cls-4" x1="201" y1="246" x2="201" y2="84.5"/></g><path class="cls-5" d="M214.93,107H186.78v-4.19l11.28-11.34A81.59,81.59,0,0,0,204.85,84a18.51,18.51,0,0,0,2.46-4.33,12.38,12.38,0,0,0,.82-4.55,7.19,7.19,0,0,0-2.08-5.43,8,8,0,0,0-5.77-2,14.61,14.61,0,0,0-5.05.88,20.1,20.1,0,0,0-5.32,3.2l-2.58-3.32a19.77,19.77,0,0,1,12.89-4.92q6,0,9.47,3.09A10.65,10.65,0,0,1,213.11,75,16.1,16.1,0,0,1,210.83,83q-2.28,4-8.56,10.07l-9.37,9.17v.24h22Z"/></g></svg>