<?xml version="1.0" encoding="utf-8"?>
<!-- Generator: Adobe Illustrator 22.0.1, SVG Export Plug-In . SVG Version: 6.00 Build 0)  -->
<svg version="1.1" id="Ebene_1" xmlns="http://www.w3.org/2000/svg" xmlns:xlink="http://www.w3.org/1999/xlink" x="0px" y="0px"
	 viewBox="0 0 841.9 251.9" style="enable-background:new 0 0 841.9 251.9;" xml:space="preserve">
<style type="text/css">
	.st0{fill:none;stroke:#B2B2B2;stroke-width:3;stroke-miterlimit:10;}
	.st1{fill:none;stroke:#025770;stroke-width:3;stroke-miterlimit:10;}
	.st2{fill:#025770;}
	.st3{fill:#FFFFFF;}
	.st4{font-family:'OpenSans';}
	.st5{font-size:30px;}
</style>
<line class="st0" x1="-15.5" y1="145" x2="853.7" y2="145"/>
<line class="st0" x1="-15.5" y1="127.4" x2="853.7" y2="127.4"/>
<line class="st0" x1="-15.3" y1="201.5" x2="853.9" y2="201.5"/>
<line class="st1" x1="109.9" y1="121" x2="109.9" y2="70.2"/>
<circle class="st2" cx="109.4" cy="57" r="24.1"/>
<line class="st1" x1="154" y1="176.8" x2="154" y2="104.2"/>
<circle class="st2" cx="153.6" cy="91" r="24.1"/>
<line class="st1" x1="194.4" y1="136.8" x2="194.4" y2="64.2"/>
<circle class="st2" cx="193.9" cy="51" r="24.1"/>
<line class="st1" x1="305.8" y1="172" x2="305.8" y2="64.2"/>
<circle class="st2" cx="305.4" cy="51" r="24.1"/>
<line class="st1" x1="460.8" y1="203.9" x2="460.8" y2="64.2"/>
<circle class="st2" cx="460.4" cy="51" r="24.1"/>
<line class="st1" x1="538" y1="188.8" x2="538" y2="104.2"/>
<circle class="st2" cx="537.6" cy="91" r="24.1"/>
<line class="st1" x1="584.8" y1="135.8" x2="584.8" y2="63.2"/>
<circle class="st2" cx="584.4" cy="50" r="24.1"/>
<circle class="st2" cx="110.4" cy="125.1" r="14.2"/>
<circle class="st2" cx="194.8" cy="149.3" r="14.2"/>
<ellipse class="st2" cx="304.6" cy="173.2" rx="18.4" ry="25"/>
<polygon class="st2" points="165.7,170.9 143,172.4 134.6,179.3 133,187.8 134.8,193.1 139.7,196.5 148.4,196.5 156.4,195.6 
	165.3,187.6 "/>
<circle class="st2" cx="585.1" cy="127.8" r="14.2"/>
<circle class="st2" cx="539.1" cy="194.3" r="14.2"/>
<polygon class="st2" points="470.3,195.2 458.9,196.1 448.3,198.8 442.6,207.3 442.8,213.6 447,217.3 455.9,220.2 466.7,220.1 
	475.7,217.3 481.5,212.5 483.1,206.7 481.4,200.9 477.7,197.1 "/>
<g>
	<path d="M113.9,200.1h-8.3v-33.6H68v33.6h-8.3v-71.4H68v30.4h37.6v-30.4h8.3V200.1z"/>
	<path d="M165.1,200.1l-1.6-7.6h-0.4c-2.7,3.4-5.3,5.6-8,6.8c-2.7,1.2-6,1.8-9.9,1.8c-5.3,0-9.5-1.4-12.5-4.1
		c-3-2.7-4.5-6.6-4.5-11.7c0-10.8,8.6-16.5,25.9-17l9.1-0.3v-3.3c0-4.2-0.9-7.3-2.7-9.3s-4.7-3-8.7-3c-4.5,0-9.5,1.4-15.1,4.1
		l-2.5-6.2c2.6-1.4,5.5-2.6,8.7-3.4c3.1-0.8,6.3-1.2,9.4-1.2c6.4,0,11.1,1.4,14.2,4.2s4.6,7.4,4.6,13.6v36.5H165.1z M146.8,194.4
		c5,0,9-1.4,11.9-4.2c2.9-2.8,4.3-6.6,4.3-11.6v-4.8l-8.1,0.3c-6.4,0.2-11.1,1.2-13.9,3c-2.8,1.8-4.3,4.5-4.3,8.3
		c0,2.9,0.9,5.2,2.7,6.7C141.1,193.6,143.6,194.4,146.8,194.4z"/>
	<path d="M256,200.1v-34.8c0-4.3-0.9-7.5-2.7-9.6c-1.8-2.1-4.7-3.2-8.5-3.2c-5,0-8.8,1.4-11.2,4.3c-2.4,2.9-3.6,7.4-3.6,13.4v29.9
		h-8.1v-34.8c0-4.3-0.9-7.5-2.7-9.6c-1.8-2.1-4.7-3.2-8.5-3.2c-5.1,0-8.8,1.5-11.2,4.6c-2.4,3-3.5,8-3.5,15v28.1h-8.1v-53.5h6.6
		l1.3,7.3h0.4c1.5-2.6,3.7-4.6,6.5-6.1s5.9-2.2,9.4-2.2c8.4,0,13.8,3,16.4,9.1h0.4c1.6-2.8,3.9-5,6.9-6.6c3-1.6,6.5-2.4,10.4-2.4
		c6.1,0,10.6,1.6,13.6,4.7c3,3.1,4.5,8.1,4.5,14.9v34.9H256z"/>
	<path d="M305.8,145.7c7,0,12.5,2.4,16.4,7.2c3.9,4.8,5.8,11.6,5.8,20.4s-2,15.6-5.9,20.5c-3.9,4.9-9.4,7.3-16.3,7.3
		c-3.5,0-6.7-0.6-9.5-1.9s-5.3-3.3-7.3-5.9h-0.6l-1.7,6.9h-5.8v-76h8.1v18.5c0,4.1-0.1,7.8-0.4,11.1h0.4
		C292.7,148.4,298.3,145.7,305.8,145.7z M304.6,152.5c-5.5,0-9.5,1.6-12,4.8s-3.7,8.5-3.7,16s1.3,12.9,3.8,16.1
		c2.5,3.2,6.5,4.9,12.1,4.9c5,0,8.7-1.8,11.1-5.4c2.4-3.6,3.7-8.8,3.7-15.6c0-7-1.2-12.2-3.7-15.6S309.7,152.5,304.6,152.5z"/>
	<path d="M349.7,146.6v34.7c0,4.4,1,7.6,3,9.8c2,2.1,5.1,3.2,9.3,3.2c5.6,0,9.7-1.5,12.3-4.6c2.6-3.1,3.9-8.1,3.9-15v-28.1h8.1v53.5
		h-6.7l-1.2-7.2H378c-1.7,2.6-4,4.7-6.9,6.1c-2.9,1.4-6.3,2.1-10.1,2.1c-6.5,0-11.4-1.5-14.6-4.6c-3.2-3.1-4.9-8-4.9-14.8v-35H349.7
		z"/>
	<path d="M427.9,145.6c2.4,0,4.5,0.2,6.4,0.6l-1.1,7.5c-2.2-0.5-4.2-0.7-5.9-0.7c-4.3,0-8,1.8-11.1,5.3s-4.6,7.9-4.6,13.1v28.7h-8.1
		v-53.5h6.7l0.9,9.9h0.4c2-3.5,4.4-6.2,7.2-8.1C421.5,146.5,424.6,145.6,427.9,145.6z"/>
	<path d="M488.1,146.6v5.1l-9.9,1.2c0.9,1.1,1.7,2.6,2.4,4.5c0.7,1.8,1.1,3.9,1.1,6.2c0,5.2-1.8,9.4-5.4,12.5
		c-3.6,3.1-8.5,4.7-14.7,4.7c-1.6,0-3.1-0.1-4.5-0.4c-3.5,1.8-5.2,4.1-5.2,6.9c0,1.5,0.6,2.5,1.8,3.2c1.2,0.7,3.3,1,6.2,1h9.5
		c5.8,0,10.2,1.2,13.4,3.7s4.7,6,4.7,10.6c0,5.9-2.4,10.4-7.1,13.5c-4.8,3.1-11.7,4.7-20.8,4.7c-7,0-12.4-1.3-16.2-3.9
		c-3.8-2.6-5.7-6.3-5.7-11c0-3.3,1-6.1,3.1-8.4c2.1-2.4,5-4,8.8-4.8c-1.4-0.6-2.5-1.6-3.4-2.9c-0.9-1.3-1.4-2.8-1.4-4.5
		c0-2,0.5-3.7,1.6-5.1c1-1.5,2.7-2.9,4.9-4.2c-2.8-1.1-5-3.1-6.8-5.8s-2.6-5.9-2.6-9.4c0-5.9,1.8-10.4,5.3-13.5s8.5-4.8,14.9-4.8
		c2.8,0,5.3,0.3,7.6,1H488.1z M445.5,209.1c0,2.9,1.2,5.1,3.7,6.6c2.4,1.5,5.9,2.2,10.5,2.2c6.8,0,11.8-1,15.1-3.1
		c3.3-2,4.9-4.8,4.9-8.3c0-2.9-0.9-4.9-2.7-6c-1.8-1.1-5.2-1.7-10.1-1.7h-9.7c-3.7,0-6.5,0.9-8.6,2.6S445.5,205.8,445.5,209.1z
		 M449.8,163.7c0,3.7,1.1,6.6,3.2,8.5c2.1,1.9,5.1,2.9,8.8,2.9c7.9,0,11.9-3.8,11.9-11.5c0-8-4-12.1-12-12.1c-3.8,0-6.7,1-8.8,3.1
		S449.8,159.7,449.8,163.7z"/>
	<path d="M521.7,201.1c-7.9,0-14.2-2.4-18.7-7.2c-4.6-4.8-6.9-11.5-6.9-20.1c0-8.6,2.1-15.5,6.4-20.6s10-7.6,17.1-7.6
		c6.7,0,12,2.2,15.9,6.6c3.9,4.4,5.9,10.2,5.9,17.5v5.1h-36.9c0.2,6.3,1.7,11.1,4.8,14.3c3,3.3,7.3,4.9,12.7,4.9
		c5.8,0,11.5-1.2,17.1-3.6v7.2c-2.9,1.2-5.6,2.1-8.1,2.7S525.3,201.1,521.7,201.1z M519.5,152.4c-4.3,0-7.7,1.4-10.3,4.2
		c-2.6,2.8-4.1,6.7-4.5,11.6h28c0-5.1-1.1-9-3.4-11.7C527,153.7,523.8,152.4,519.5,152.4z"/>
	<path d="M579.3,152.9h-13.6v47.2h-8.1v-47.2H548v-3.7l9.6-2.9v-3c0-13.2,5.7-19.7,17.2-19.7c2.8,0,6.2,0.6,10,1.7l-2.1,6.5
		c-3.1-1-5.8-1.5-8-1.5c-3.1,0-5.3,1-6.8,3.1c-1.5,2-2.2,5.3-2.2,9.8v3.5h13.6V152.9z"/>
	<path d="M635.3,173.3c0,8.7-2.2,15.5-6.6,20.4c-4.4,4.9-10.5,7.3-18.2,7.3c-4.8,0-9-1.1-12.7-3.4s-6.6-5.5-8.6-9.7
		c-2-4.2-3-9.1-3-14.7c0-8.7,2.2-15.5,6.5-20.4c4.4-4.9,10.4-7.3,18.2-7.3c7.5,0,13.4,2.5,17.8,7.5S635.3,164.8,635.3,173.3z
		 M594.5,173.3c0,6.8,1.4,12,4.1,15.6c2.7,3.6,6.8,5.4,12.1,5.4c5.3,0,9.3-1.8,12.1-5.3s4.1-8.8,4.1-15.6c0-6.8-1.4-12-4.1-15.5
		c-2.8-3.5-6.8-5.3-12.2-5.3c-5.3,0-9.3,1.7-12,5.2C595.9,161.2,594.5,166.4,594.5,173.3z"/>
	<path d="M686.1,200.1v-34.6c0-4.4-1-7.6-3-9.8c-2-2.1-5.1-3.2-9.3-3.2c-5.6,0-9.7,1.5-12.3,4.5c-2.6,3-3.9,8-3.9,15v28.1h-8.1
		v-53.5h6.6l1.3,7.3h0.4c1.7-2.6,4-4.7,7-6.1c3-1.4,6.3-2.2,10-2.2c6.4,0,11.3,1.6,14.6,4.7c3.3,3.1,4.9,8.1,4.9,14.9v34.9H686.1z"
		/>
	<path d="M728.2,194.4c1.4,0,2.8-0.1,4.2-0.3c1.3-0.2,2.4-0.4,3.2-0.7v6.2c-0.9,0.4-2.2,0.8-3.9,1c-1.7,0.3-3.2,0.4-4.6,0.4
		c-10.4,0-15.5-5.5-15.5-16.4v-31.8h-7.7V149l7.7-3.4l3.4-11.4h4.7v12.4h15.5v6.3h-15.5v31.5c0,3.2,0.8,5.7,2.3,7.4
		C723.4,193.5,725.5,194.4,728.2,194.4z"/>
	<path d="M780.7,185.5c0,5-1.9,8.8-5.6,11.5c-3.7,2.7-8.9,4.1-15.6,4.1c-7.1,0-12.6-1.1-16.6-3.4v-7.5c2.6,1.3,5.3,2.3,8.3,3.1
		c2.9,0.7,5.8,1.1,8.5,1.1c4.2,0,7.5-0.7,9.8-2c2.3-1.4,3.4-3.4,3.4-6.2c0-2.1-0.9-3.9-2.7-5.3c-1.8-1.5-5.3-3.2-10.6-5.2
		c-5-1.9-8.5-3.5-10.6-4.9c-2.1-1.4-3.7-3-4.7-4.7s-1.5-3.9-1.5-6.3c0-4.4,1.8-7.8,5.3-10.3c3.5-2.5,8.4-3.8,14.6-3.8
		c5.8,0,11.4,1.2,16.9,3.5l-2.9,6.6c-5.4-2.2-10.2-3.3-14.6-3.3c-3.8,0-6.7,0.6-8.7,1.8c-2,1.2-2.9,2.9-2.9,5c0,1.4,0.4,2.7,1.1,3.7
		c0.7,1,1.9,2,3.5,2.9c1.6,0.9,4.8,2.2,9.4,4c6.3,2.3,10.6,4.6,12.9,7S780.7,181.9,780.7,185.5z"/>
</g>
<text transform="matrix(1 0 0 1 100.8706 65.0082)" class="st3 st4 st5">1</text>
<text transform="matrix(1 0 0 1 145.7958 100.5889)" class="st3 st4 st5">2</text>
<text transform="matrix(1 0 0 1 185.8146 60.886)" class="st3 st4 st5">3</text>
<text transform="matrix(1 0 0 1 295.2813 60.6762)" class="st3 st4 st5">4</text>
<text transform="matrix(1 0 0 1 452.032 61.2792)" class="st3 st4 st5">5</text>
<text transform="matrix(1 0 0 1 528.9849 101.555)" class="st3 st4 st5">7</text>
<text transform="matrix(1 0 0 1 575.6603 59.4587)" class="st3 st4 st5">8</text>
</svg>
