<svg id="Ebene_1" data-name="Ebene 1" xmlns="http://www.w3.org/2000/svg" xmlns:xlink="http://www.w3.org/1999/xlink" viewBox="0 0 1200 400"><defs><style>.cls-1,.cls-13,.cls-5{fill:none;}.cls-2{clip-path:url(#clip-path);}.cls-3{opacity:0.2;}.cls-4{clip-path:url(#clip-path-3);}.cls-5{stroke:#000;}.cls-13,.cls-5{stroke-miterlimit:10;stroke-width:4px;}.cls-6{clip-path:url(#clip-path-5);}.cls-7{clip-path:url(#clip-path-6);}.cls-8{clip-path:url(#clip-path-7);}.cls-9{clip-path:url(#clip-path-8);}.cls-10{opacity:0.7;}.cls-11{clip-path:url(#clip-path-10);}.cls-12{fill:#005b72;}.cls-13{stroke:#005b72;}.cls-14{fill:#fff;}.cls-15{clip-path:url(#clip-path-12);}.cls-16{clip-path:url(#clip-path-15);}.cls-17{clip-path:url(#clip-path-17);}.cls-18{clip-path:url(#clip-path-19);}.cls-19{clip-path:url(#clip-path-21);}.cls-20{clip-path:url(#clip-path-23);}</style><clipPath id="clip-path"><rect class="cls-1" width="1200" height="400"/></clipPath><clipPath id="clip-path-3"><rect class="cls-1" y="290" width="1200" height="4"/></clipPath><clipPath id="clip-path-5"><rect class="cls-1" x="807.47" y="132.82" width="285" height="4"/></clipPath><clipPath id="clip-path-6"><rect class="cls-1" x="807.47" y="132.82" width="285" height="4"/></clipPath><clipPath id="clip-path-7"><rect class="cls-1" x="94" y="119.92" width="312" height="4"/></clipPath><clipPath id="clip-path-8"><rect class="cls-1" x="94" y="119.92" width="312" height="4"/></clipPath><clipPath id="clip-path-10"><rect class="cls-1" x="140" y="-7991" width="281.85" height="16383"/></clipPath><clipPath id="clip-path-12"><rect class="cls-1" x="361.85" y="-30.48" width="80" height="248.96"/></clipPath><clipPath id="clip-path-15"><rect class="cls-1" x="605" y="32" width="101" height="283.11"/></clipPath><clipPath id="clip-path-17"><rect class="cls-1" x="731.92" y="26.39" width="93.08" height="274.61"/></clipPath><clipPath id="clip-path-19"><rect class="cls-1" x="1026" y="4" width="80" height="202"/></clipPath><clipPath id="clip-path-21"><rect class="cls-1" x="77" y="-15.84" width="80" height="158"/></clipPath><clipPath id="clip-path-23"><rect class="cls-1" x="1114" y="55" width="80" height="202"/></clipPath></defs><title>Zeichenfläche 1</title><g class="cls-2"><path d="M37.74,124H60.91V195.7h42.64V124h23.16V290H103.55V212.3H60.91V290H37.74Z"/><path d="M160,287.74a26.46,26.46,0,0,1-8.5-10.25,30.07,30.07,0,0,1-3.08-13.32q0-14,5.95-22.66a44.07,44.07,0,0,1,15.17-13.84A235.66,235.66,0,0,1,195.18,216v-8.41q0-11.69-2.36-16.5t-9.53-4.81q-12.51,0-12.5,16.81V209l-21.73-.82q.41-19.68,9-29t26.65-9.32q17,0,24.7,9.32t7.69,28.19V261.5a212.9,212.9,0,0,0,2,28.5H199.08q-2.27-11.69-2.87-17.43a30,30,0,0,1-8.51,13.53q-6,5.53-15.48,5.53A20.48,20.48,0,0,1,160,287.74Zm29.21-18.35a26.27,26.27,0,0,0,6-6.45V229.32a127.14,127.14,0,0,0-13.63,8.5,34.17,34.17,0,0,0-8,8.3,19.72,19.72,0,0,0-3.17,11.28q0,7.38,2.66,11.38a8.77,8.77,0,0,0,7.79,4A13.09,13.09,0,0,0,189.23,269.39Z"/><path d="M238.23,171.5h20.29v11.28a42.27,42.27,0,0,1,13-9.94,34,34,0,0,1,14.86-3.38q15.18,0,19.27,15,12.3-15,29.52-15a19,19,0,0,1,15.07,6.76q5.85,6.76,5.84,20.71V290H336V198.36q0-8.19-2.66-11.38a9.38,9.38,0,0,0-7.59-3.17,20.42,20.42,0,0,0-9.43,2.56,32.7,32.7,0,0,0-9,7.07V290H287.22V198.36q0-8.19-2.66-11.38a9.38,9.38,0,0,0-7.59-3.17,20,20,0,0,0-9.22,2.56,35.59,35.59,0,0,0-9.23,7.07V290H238.23Z"/><path d="M400,281.38V290H378V124H400v57q9.64-11.07,22.35-11.07,16.19,0,21.63,13.83a83.5,83.5,0,0,1,5.43,30.65v28.7q0,48.58-29.32,48.58Q409.41,291.63,400,281.38Zm25.32-14.65q2.16-7.69,2.15-23.68v-28.7q0-13.11-2.46-20.19t-10.25-7.08q-7.17,0-14.76,5.95v76a24.43,24.43,0,0,0,15.58,5.34Q423.14,274.42,425.29,266.73Z"/><path d="M472.54,284.67q-4.1-7-4.1-17.22V171.5h21.94v89.38q0,6.78,2.05,10.15t7.38,3.39q6.56,0,15.37-7.38V171.5h21.94V290H515.18V278.31q-14.14,13.33-28.9,13.32Q476.64,291.63,472.54,284.67Z"/><path d="M560.07,171.5H582v16.81q6.15-10,12.61-14.14a25,25,0,0,1,13.63-4.1,29.39,29.39,0,0,1,3.48.2v24.2A34.66,34.66,0,0,0,599.64,192a17.94,17.94,0,0,0-9.54,2.57q-4.2,2.56-8.09,8.92V290H560.07Z"/><path d="M628.54,321.26q-10.24-5.44-10.25-16.92a20.36,20.36,0,0,1,4.82-13.52,35.42,35.42,0,0,1,12.2-9.23,17.23,17.23,0,0,1-8.51-5.13,11.43,11.43,0,0,1-3-7.58,18.47,18.47,0,0,1,3.07-10.66A67,67,0,0,1,637,247.36a32.36,32.36,0,0,1-10.36-13.43q-3.37-8.1-3.38-21.84,0-20.7,8.51-31.46t24.91-10.76q9.42,0,15.37,3.28a21.06,21.06,0,0,1,9,9.84,30.62,30.62,0,0,1,6.05-6.05,45.74,45.74,0,0,1,9.94-6.25l3.28-1.44,5.54,14.15a82.63,82.63,0,0,0-11.38,3.48q-7.28,2.67-8.71,4.1a55.84,55.84,0,0,1,2.56,10.25,69.17,69.17,0,0,1,1.13,11.48q0,19.48-7.59,30.24t-25.21,10.76a46.76,46.76,0,0,1-11.28-1.43q-3.9,5.73-3.89,9a4,4,0,0,0,2.35,3.59q2.36,1.33,7.49,1.74l18.45,1.64q13.93,1.23,20.7,8.41t6.77,20.5q0,29.52-41.21,29.52Q638.79,326.69,628.54,321.26Zm46.33-14.56a9.3,9.3,0,0,0,5.54-8.91q0-5.75-3.49-8.51t-12.71-3.59l-18.65-1.64a56.79,56.79,0,0,0-6.56,7.58,12.37,12.37,0,0,0-2.26,7.18,8.62,8.62,0,0,0,4.61,8.1q4.62,2.56,16.3,2.56T674.87,306.7Zm-6.76-74.51q2.65-6.16,2.66-20.1,0-14.13-2.66-20.6T656.83,185q-8.61,0-11.58,6.45t-3,20.6q0,12.72,3,19.48t11.38,6.76Q665.44,238.33,668.11,232.19Z"/><path d="M725.92,286.41q-7.59-5.24-10.66-15.48t-3.08-26.65V217.22q0-24.6,7.69-36t27.37-11.37q14.34,0,21.62,5.94t9.64,16.71q2.36,10.75,2.36,29v9.63H734.12v23.78q0,10.88,3.17,15.68t10.15,4.82q7,0,9.43-4.82T759.33,256v-7.17h21.32v4.51q0,18.66-8,28.49t-25.42,9.84Q733.5,291.63,725.92,286.41Zm33.41-67.14V208.61q0-12.09-2.36-17.32T747,186.06q-5.32,0-8.1,2.46c-1.84,1.64-3.11,4.34-3.79,8.1a98,98,0,0,0-1,16.3v6.35Z"/><path d="M807.71,187.7H793.56V171.5h14.15v-6.15q0-12.28,1.84-19.78A19.64,19.64,0,0,1,817,134q5.63-4.1,16.29-4.1a72.69,72.69,0,0,1,14.35,1.44v16a33.77,33.77,0,0,0-8.19-1c-4,0-6.6,1.27-7.9,3.79s-2,6.39-2,11.59v9.83h18v16.2h-18V290H807.71Z"/><path d="M865.42,280.46q-7.9-11.16-7.9-32.49V213.53q0-21.32,7.9-32.49t26.75-11.17q18.65,0,26.55,11.17t7.89,32.49V248q0,21.33-7.89,32.49t-26.55,11.17Q873.3,291.63,865.42,280.46Zm35.36-8.5a17.37,17.37,0,0,0,3.28-8.62,123.24,123.24,0,0,0,.61-13.93V212.3a126.29,126.29,0,0,0-.61-14,17.48,17.48,0,0,0-3.28-8.72q-2.67-3.48-8.61-3.48t-8.71,3.48a16.85,16.85,0,0,0-3.39,8.72,126.29,126.29,0,0,0-.61,14v37.11a123.24,123.24,0,0,0,.61,13.93,16.75,16.75,0,0,0,3.39,8.62q2.76,3.48,8.71,3.48T900.78,272Z"/><path d="M946.7,171.5h21.93v11.69q14.14-13.32,28.91-13.32,9.63,0,13.73,7t4.1,17.23V290H993.43V200.41q0-6.76-2-10T984,187.08q-6.56,0-15.37,7.39V290H946.7Z"/><path d="M1042.63,263.34V186.06h-12.5V171.5h12.5V136.86h21.94V171.5h19.06v14.56h-19.06v75.85c0,4.79.75,8.13,2.25,10s4.38,2.87,8.61,2.87a51.22,51.22,0,0,0,8-.62v16.2a102.77,102.77,0,0,1-15.17,1.22Q1042.63,291.63,1042.63,263.34Z"/><path d="M1104,282.62q-8.91-9-10.15-24.2l18.25-5.53c1.09,7.66,3,13.32,5.64,17s6.45,5.53,11.37,5.53q5.74,0,8.92-3.38t3.18-9.12a18.78,18.78,0,0,0-2.26-9.23,30.89,30.89,0,0,0-7.38-8.41l-20.29-17.42a47.52,47.52,0,0,1-10.76-12.61q-3.79-6.66-3.8-16.29,0-13.74,8.2-21.43t22.35-7.68q13.53,0,21.22,8.71t8.91,22.45l-14.76,5.53q-1.43-10-4.71-15.27a12,12,0,0,0-18.35-1.75,12.33,12.33,0,0,0-3.18,8.62q0,6.56,6,11.88l20.91,19.28a70.52,70.52,0,0,1,12.4,14.55q4.41,7.19,4.41,17.42,0,14.76-8.82,22.55t-24,7.79Q1112.95,291.63,1104,282.62Z"/><g class="cls-2"><g class="cls-3"><g class="cls-4"><g class="cls-4"><line class="cls-5" y1="292" x2="1200" y2="292"/></g></g></g><g class="cls-3"><g class="cls-6"><g class="cls-7"><line class="cls-5" x1="807.47" y1="134.82" x2="1092.47" y2="134.82"/></g></g></g><g class="cls-3"><g class="cls-8"><g class="cls-9"><line class="cls-5" x1="94" y1="121.92" x2="406" y2="121.92"/></g></g></g></g><g class="cls-2"><g class="cls-10"><g class="cls-11"><path class="cls-12" d="M180,218a20,20,0,1,1-20-20,20,20,0,0,1,20,20"/><path class="cls-12" d="M421.85,186.22a20,20,0,1,1-20-20,20,20,0,0,1,20,20"/><path class="cls-12" d="M266,72a40,40,0,1,1-40-40,40,40,0,0,1,40,40"/><polyline class="cls-13" points="160 217.5 160 138 226 72"/></g></g></g><path class="cls-14" d="M239.93,94H211.78V89.81l11.28-11.34A81.59,81.59,0,0,0,229.85,71a18.51,18.51,0,0,0,2.46-4.33,12.38,12.38,0,0,0,.82-4.55,7.19,7.19,0,0,0-2.08-5.43,8,8,0,0,0-5.77-2,14.61,14.61,0,0,0-5.05.88,20.1,20.1,0,0,0-5.32,3.2l-2.58-3.32a19.77,19.77,0,0,1,12.89-4.92q6,0,9.47,3.09A10.65,10.65,0,0,1,238.11,62,16.1,16.1,0,0,1,235.83,70q-2.28,4-8.56,10.07l-9.37,9.17v.24h22Z"/><g class="cls-2"><g class="cls-10"><g class="cls-15"><g class="cls-15"><path class="cls-12" d="M441.85,76.67a40,40,0,1,1-40-40,40,40,0,0,1,40,40"/><line class="cls-13" x1="401.85" y1="185.02" x2="401.85" y2="106.75"/></g></g></g></g><path class="cls-14" d="M414.5,65.92a9.8,9.8,0,0,1-2.3,6.71,11.5,11.5,0,0,1-6.52,3.48v.24q5.16.65,7.65,3.28a9.7,9.7,0,0,1,2.49,6.91q0,6.13-4.25,9.42t-12.07,3.3a35.22,35.22,0,0,1-6.23-.51,21.7,21.7,0,0,1-5.49-1.81V92.32a28.17,28.17,0,0,0,11.89,2.81q11.1,0,11.11-8.7,0-7.8-12.25-7.8h-4.22V74.44h4.28a12.84,12.84,0,0,0,7.94-2.21,7.26,7.26,0,0,0,2.93-6.14,6,6,0,0,0-2.16-4.92,8.86,8.86,0,0,0-5.84-1.78,17.92,17.92,0,0,0-5.3.76A23.74,23.74,0,0,0,390.47,63L388,59.68a20.52,20.52,0,0,1,6.08-3.27,22.13,22.13,0,0,1,7.25-1.18q6.24,0,9.7,2.85A9.65,9.65,0,0,1,414.5,65.92Z"/><g class="cls-2"><g class="cls-10"><g class="cls-16"><path class="cls-12" d="M666,295.11a20,20,0,1,1-20-20,20,20,0,0,1,20,20"/><path class="cls-12" d="M685,116.67a40,40,0,1,1-40-40,40,40,0,0,1,40,40"/><line class="cls-13" x1="645" y1="283.38" x2="645" y2="153.48"/></g></g></g><path class="cls-14" d="M659.11,128.08h-6.36v9.84h-4.66v-9.84H627.26v-4.25l20.33-29h5.16v28.8h6.36Zm-11-4.42V109.42c0-2.79.1-6,.29-9.46h-.23a44.74,44.74,0,0,1-2.64,4.65l-13.39,19Z"/><g class="cls-2"><g class="cls-10"><g class="cls-17"><path class="cls-12" d="M791.92,255.11a20,20,0,1,1-20-20,20,20,0,0,1,20,20"/><path class="cls-12" d="M811.92,66.39a40,40,0,1,1-40-40,40,40,0,0,1,40,40"/><line class="cls-13" x1="771.92" y1="264.61" x2="771.92" y2="55.61"/></g></g></g><path class="cls-14" d="M771,64.84q6.76,0,10.65,3.35a11.54,11.54,0,0,1,3.88,9.19q0,6.65-4.24,10.43t-11.67,3.78q-7.25,0-11-2.32V84.58a16.87,16.87,0,0,0,5.1,2.07,25,25,0,0,0,6,.75c3.43,0,6.11-.81,8-2.44a8.73,8.73,0,0,0,2.86-7q0-9-11-9a43.26,43.26,0,0,0-7.44.85l-2.52-1.61,1.61-20h21.3v4.48H765.39l-1.08,12.86A34,34,0,0,1,771,64.84Z"/><g class="cls-2"><g class="cls-10"><g class="cls-18"><path class="cls-12" d="M1086,137.93a20,20,0,1,1-20-20,20,20,0,0,1,20,20"/><path class="cls-12" d="M1106,44a40,40,0,1,1-40-40,40,40,0,0,1,40,40"/><line class="cls-13" x1="1066" y1="151" x2="1066" y2="37"/></g></g></g><path class="cls-14" d="M1051.34,45.85q0-12.63,4.91-18.88t14.51-6.26a19.39,19.39,0,0,1,5.22.56v4.19a16.66,16.66,0,0,0-5.16-.73q-6.88,0-10.52,4.29t-4,13.49h.35q3.22-5,10.2-5c3.84,0,6.88,1.16,9.09,3.49s3.33,5.47,3.33,9.46q0,6.67-3.65,10.5t-9.86,3.83a12.66,12.66,0,0,1-10.54-5Q1051.34,54.76,1051.34,45.85Zm14.38,14.76a8.12,8.12,0,0,0,6.46-2.62c1.54-1.75,2.3-4.27,2.3-7.57a9.79,9.79,0,0,0-2.13-6.68q-2.14-2.43-6.39-2.43a10.84,10.84,0,0,0-4.84,1.08,9,9,0,0,0-3.5,3,6.9,6.9,0,0,0-1.3,3.95,13.58,13.58,0,0,0,1.17,5.63,9.83,9.83,0,0,0,3.33,4.13A8.23,8.23,0,0,0,1065.72,60.61Z"/><g class="cls-2"><g class="cls-10"><g class="cls-19"><g class="cls-19"><path class="cls-12" d="M137,122.16a20,20,0,1,1-20-20,20,20,0,0,1,20,20"/><path class="cls-12" d="M157,48.46a40,40,0,1,1-40-40,40,40,0,0,1,40,40"/><line class="cls-13" x1="117" y1="121.66" x2="117" y2="23.66"/></g></g></g></g><path class="cls-14" d="M120.79,71.57h-4.74V41q0-3.81.23-7.2c-.41.41-.87.84-1.37,1.28s-2.84,2.36-7,5.72l-2.58-3.34,11.34-8.76h4.1Z"/><g class="cls-10"><g class="cls-20"><path class="cls-12" d="M1174,188.93a20,20,0,1,1-20-20,20,20,0,0,1,20,20"/><path class="cls-12" d="M1194,95a40,40,0,1,1-40-40,40,40,0,0,1,40,40"/><line class="cls-13" x1="1154" y1="202" x2="1154" y2="88"/></g></g><path class="cls-14" d="M1143.26,117.16,1161,78.81h-23.35V74.33h28.5v3.89l-17.52,38.94Z"/></g></svg>