<svg xmlns="http://www.w3.org/2000/svg" viewBox="0 0 1200 400"><defs><style>.cls-1,.cls-4{fill:none;stroke-miterlimit:10;stroke-width:4px;}.cls-1{stroke:#000;opacity:0.2;}.cls-2{opacity:0.7;}.cls-3{fill:#005b72;}.cls-4{stroke:#005b72;}.cls-5{fill:#fff;}</style></defs><title>font-characteristics</title><g id="lines"><line class="cls-1" y1="292" x2="1200" y2="292"/><line class="cls-1" x1="805" y1="185.5" x2="1090" y2="185.5"/><line class="cls-1" x1="94" y1="177" x2="406" y2="177"/></g><g id="font"><path d="M122.62,290H108V238.9H52.24V290H37.66V179.44H52.24V227H108V179.44h14.65Z"/><path d="M197,290q-1.22-2.43-2-8.66a31.36,31.36,0,0,1-23.39,10.17q-12.15,0-19.93-6.87A22.22,22.22,0,0,1,144,267.22q0-12.84,9.75-19.93t27.45-7.1h13.67v-6.46q0-7.36-4.4-11.73t-13-4.36a20.47,20.47,0,0,0-12.6,3.79q-5.09,3.8-5.09,9.19H145.63A19.37,19.37,0,0,1,150,218.74a29.84,29.84,0,0,1,11.85-9.08,39.93,39.93,0,0,1,16.44-3.34q14.19,0,22.24,7.1T208.88,233v37.82q0,11.31,2.88,18V290Zm-23.31-10.71a24.69,24.69,0,0,0,12.53-3.42,20.68,20.68,0,0,0,8.58-8.88V250.13h-11q-25.81,0-25.82,15.11,0,6.61,4.41,10.33T173.72,279.29Z"/><path d="M244.11,207.84l.38,9.11q9-10.62,24.37-10.63,17.24,0,23.46,13.21A31.15,31.15,0,0,1,303,210a31.5,31.5,0,0,1,15.53-3.65q27,0,27.48,28.63V290H332V235.78q0-8.81-4-13.17t-13.51-4.37a18.64,18.64,0,0,0-13,4.67,19,19,0,0,0-6,12.57V290H281.31V236.16q0-17.91-17.54-17.92-13.81,0-18.9,11.77v60H230.82V207.84Z"/><path d="M436.74,249.83q0,18.82-8.66,30.26t-23.23,11.42q-15.57,0-24.07-11l-.69,9.5h-12.9V173.37h14v43.51q8.5-10.56,23.46-10.56t23.5,11.32q8.55,11.31,8.55,31Zm-14.05-1.6q0-14.34-5.54-22.17t-15.95-7.82q-13.89,0-20,12.91v35.54q6.45,12.9,20.12,12.9,10.09,0,15.72-7.82T422.69,248.23Z"/><path d="M505.15,281.87q-8.2,9.64-24.07,9.64-13.14,0-20-7.63t-6.95-22.59V207.84h14.05v53.08q0,18.68,15.18,18.67,16.11,0,21.42-12V207.84h14V290H505.45Z"/><path d="M579.86,220.45a41.49,41.49,0,0,0-6.91-.54q-13.82,0-18.75,11.77V290H540.15V207.84h13.67l.22,9.49q6.91-11,19.59-11a14.32,14.32,0,0,1,6.23,1.07Z"/><path d="M588,248.23q0-19.2,8.89-30.56t23.53-11.35q15,0,23.47,10.63l.68-9.11h12.83V288q0,15.94-9.45,25.13t-25.4,9.19a42.29,42.29,0,0,1-17.39-3.8,29.88,29.88,0,0,1-13-10.4l7.29-8.43q9,11.18,22.09,11.17,10.26,0,16-5.78t5.73-16.24v-7.07q-8.43,9.73-23,9.72T596.9,279.9Q588,268.27,588,248.23Zm14.13,1.6q0,13.89,5.69,21.83t16,7.93q13.28,0,19.51-12.07V230q-6.45-11.76-19.36-11.77-10.26,0-16,8T602.11,249.83Z"/><path d="M712.66,291.51q-16.71,0-27.19-11T675,251.2v-2.59a49.15,49.15,0,0,1,4.67-21.82,36.39,36.39,0,0,1,13.05-15,32.86,32.86,0,0,1,18.19-5.43q16,0,24.9,10.56t8.89,30.22v5.84H689q.3,12.15,7.1,19.63a22.31,22.31,0,0,0,17.28,7.48,24.39,24.39,0,0,0,12.6-3,31.6,31.6,0,0,0,9-8.05l8.58,6.68Q733.31,291.51,712.66,291.51Zm-1.75-73.65a18.74,18.74,0,0,0-14.27,6.19q-5.77,6.19-7.14,17.35h41.15v-1.06q-.6-10.71-5.77-16.59T710.91,217.86Z"/><path d="M767.86,290V218.7h-13V207.84h13v-8.43q0-13.2,7.06-20.42t20-7.21a36.91,36.91,0,0,1,9.64,1.28l-.76,11.32a40,40,0,0,0-7.59-.68q-6.84,0-10.56,4t-3.72,11.46v8.68h17.54V218.7H781.9V290Z"/><path d="M811.21,248.16A48.46,48.46,0,0,1,816,226.44a35.36,35.36,0,0,1,13.21-14.88,36,36,0,0,1,19.32-5.24q16.78,0,27.15,11.62T886,248.84v1a49,49,0,0,1-4.59,21.53,34.89,34.89,0,0,1-13.14,14.84,36.4,36.4,0,0,1-19.63,5.31q-16.7,0-27.06-11.61t-10.37-30.75Zm14.12,1.67q0,13.66,6.34,21.94a21.48,21.48,0,0,0,34-.11q6.3-8.39,6.3-23.5,0-13.51-6.41-21.91a20.41,20.41,0,0,0-17-8.39,20.17,20.17,0,0,0-16.78,8.28Q825.34,234.42,825.33,249.83Z"/><path d="M916.9,207.84l.46,10.33A29.91,29.91,0,0,1,942,206.32q26,0,26.27,29.39V290H954.18V235.63q-.07-8.88-4.06-13.13t-12.41-4.26a20.27,20.27,0,0,0-12,3.65,24.74,24.74,0,0,0-8.05,9.57V290h-14V207.84Z"/><path d="M1008.47,188v19.89h15.34V218.7h-15.34v51c0,3.29.68,5.77,2,7.41s3.7,2.47,7,2.47a33.83,33.83,0,0,0,6.68-.91V290a40.83,40.83,0,0,1-10.78,1.51q-9.42,0-14.2-5.69t-4.79-16.17V218.7H979.47V207.84h14.95V188Z"/><path d="M1088,268.2a10.34,10.34,0,0,0-4.29-8.84q-4.29-3.15-15-5.43a70.61,70.61,0,0,1-16.94-5.47,24,24,0,0,1-9.26-7.59,18.17,18.17,0,0,1-3-10.48q0-10.09,8.54-17.08t21.83-7q14,0,22.67,7.22a22.93,22.93,0,0,1,8.69,18.45h-14.12a12.66,12.66,0,0,0-4.9-10,18.37,18.37,0,0,0-12.34-4.18q-7.67,0-12,3.35a10.49,10.49,0,0,0-4.33,8.73,8.54,8.54,0,0,0,4,7.67q4,2.58,14.54,4.93a75.8,75.8,0,0,1,17,5.62,24.93,24.93,0,0,1,9.68,7.86,19.31,19.31,0,0,1,3.15,11.2,21,21,0,0,1-8.81,17.65q-8.8,6.64-22.85,6.64A41.4,41.4,0,0,1,1053,288a28.4,28.4,0,0,1-11.88-9.76,23.49,23.49,0,0,1-4.29-13.55h14a14.53,14.53,0,0,0,5.66,11.2q5.26,4.14,13.93,4.14,8,0,12.79-3.23A9.9,9.9,0,0,0,1088,268.2Z"/></g><g id="caption"><g class="cls-2"><circle class="cls-3" cx="160" cy="218" r="20"/><circle class="cls-3" cx="226" cy="72" r="40"/><polyline class="cls-4" points="160 217.5 160 138 226 72"/></g><path class="cls-5" d="M213.31,94V90.76l4.14-4c10-9.48,14.46-14.52,14.52-20.4,0-4-1.92-7.62-7.74-7.62A13.28,13.28,0,0,0,216,62l-1.68-3.72a17.11,17.11,0,0,1,11-4c8.4,0,11.94,5.76,11.94,11.34,0,7.2-5.22,13-13.44,20.94l-3.12,2.88v.12h17.52V94Z"/><g class="cls-2"><circle class="cls-3" cx="400" cy="72" r="40"/><line class="cls-4" x1="400" y1="247.5" x2="400" y2="71.5"/><path class="cls-3" d="M401.94,216q-12.9,0-18.6,7.4t-5.69,24.94q0,17.54,5.84,25.09T402.25,281q11.61,0,17.31-8.47t5.69-24.33q0-16.24-5.69-24.22T401.94,216Z"/></g><path class="cls-5" d="M388.57,87.94a17.65,17.65,0,0,0,8.64,2.46c6.78,0,8.88-4.32,8.82-7.56-.06-5.46-5-7.8-10.08-7.8H393v-4H396c3.84,0,8.7-2,8.7-6.6,0-3.12-2-5.88-6.84-5.88a14.32,14.32,0,0,0-7.8,2.58l-1.38-3.84a18.54,18.54,0,0,1,10.2-3c7.68,0,11.16,4.56,11.16,9.3,0,4-2.4,7.44-7.2,9.18v.12c4.8,1,8.7,4.56,8.7,10,0,6.24-4.86,11.7-14.22,11.7A19.82,19.82,0,0,1,387.13,92Z"/><g class="cls-2"><circle class="cls-3" cx="621" cy="207" r="20"/><circle class="cls-3" cx="621" cy="68" r="40"/><line class="cls-4" x1="621" y1="206.5" x2="621" y2="67.5"/></g><path class="cls-5" d="M624.63,90V79.38H606.51V75.9L623.91,51h5.7V75.24h5.46v4.14h-5.46V90Zm0-14.76v-13q0-3.06.18-6.12h-.18c-1.2,2.28-2.16,4-3.24,5.76l-9.54,13.26v.12Z"/><g class="cls-2"><circle class="cls-3" cx="742" cy="270" r="20"/><circle class="cls-3" cx="742" cy="61" r="40"/><line class="cls-4" x1="742" y1="269.5" x2="742" y2="60.5"/></g><path class="cls-5" d="M752.59,48.44H737.71l-1.5,10a20.85,20.85,0,0,1,3.18-.24,16.48,16.48,0,0,1,8.4,2.1,11.12,11.12,0,0,1,5.58,10c0,7.62-6.06,13.32-14.52,13.32a19.09,19.09,0,0,1-9.72-2.4l1.32-4a17.46,17.46,0,0,0,8.34,2.16c5,0,9.24-3.24,9.24-8.46-.06-5-3.42-8.64-11.22-8.64a40.35,40.35,0,0,0-5.4.42L733.93,44h18.66Z"/><g class="cls-2"><circle class="cls-3" cx="1001" cy="186" r="20"/><circle class="cls-3" cx="1001" cy="72" r="40"/><line class="cls-4" x1="1001" y1="185.5" x2="1001" y2="71.5"/></g><path class="cls-5" d="M1010.57,58.72a19.07,19.07,0,0,0-4,.24,15.85,15.85,0,0,0-13.56,13.86h.18a11.62,11.62,0,0,1,9.42-4.5c6.9,0,11.76,5,11.76,12.6,0,7.14-4.86,13.74-13,13.74-8.34,0-13.8-6.48-13.8-16.62,0-7.68,2.76-13.74,6.6-17.58a21.23,21.23,0,0,1,12.48-5.76,25.35,25.35,0,0,1,3.84-.3Zm-1.5,22.5c0-5.58-3.18-8.94-8-8.94a8.69,8.69,0,0,0-7.56,4.8,4.49,4.49,0,0,0-.6,2.34c.12,6.42,3.06,11.16,8.58,11.16C1006,90.58,1009.07,86.8,1009.07,81.22Z"/><g class="cls-2"><circle class="cls-3" cx="117" cy="170" r="20"/><circle class="cls-3" cx="117" cy="72" r="40"/><line class="cls-4" x1="117" y1="169.5" x2="117" y2="71.5"/></g><path class="cls-5" d="M115.77,59.92h-.12l-6.78,3.66-1-4L116.37,55h4.5V94h-5.1Z"/></g></svg>