<svg xmlns="http://www.w3.org/2000/svg" viewBox="0 0 1200 400"><defs><style>.cls-1,.cls-4{fill:none;stroke-miterlimit:10;stroke-width:4px;}.cls-1{stroke:#000;opacity:0.2;}.cls-2{fill:#005b72;}.cls-3{opacity:0.7;}.cls-4{stroke:#005b72;}.cls-5{fill:#fff;}</style></defs><title>font-characteristics</title><g id="lines"><line class="cls-1" y1="292" x2="1200" y2="292"/><line class="cls-1" x1="757" y1="185.5" x2="1090" y2="185.5"/><line class="cls-1" x1="94" y1="180" x2="406" y2="180"/><path class="cls-2" d="M393.42,216q-14.31,0-20.62,8.2t-6.31,27.64q0,19.44,6.48,27.82T393.75,288q12.88,0,19.19-9.38t6.31-27q0-18-6.31-26.85T393.42,216Z"/></g><g id="font"><path d="M106,182.23h15.08V290H106V240.24H53.28V290H38.2V182.23H53.28v44.94H106Z"/><path d="M173,207.11a42,42,0,0,1,14.69,2.26,23.81,23.81,0,0,1,9.64,6.37,24.19,24.19,0,0,1,5.21,9.8,47.22,47.22,0,0,1,1.56,12.52V288.6l-5.21.85c-2.23.37-4.75.7-7.54,1s-5.84.6-9.1.86-6.51.39-9.72.39a53.49,53.49,0,0,1-12.6-1.4,28.36,28.36,0,0,1-9.95-4.43,20.37,20.37,0,0,1-6.53-8,28.13,28.13,0,0,1-2.33-12,23.07,23.07,0,0,1,2.72-11.5,21.62,21.62,0,0,1,7.39-7.78,34.06,34.06,0,0,1,10.88-4.35,59,59,0,0,1,13.06-1.4c1.45,0,3,.08,4.51.23s3,.37,4.43.62l3.66.7c1,.21,1.76.37,2.18.47v-4a32.41,32.41,0,0,0-.78-7.08,16.23,16.23,0,0,0-2.8-6.22,14.25,14.25,0,0,0-5.52-4.35,21.63,21.63,0,0,0-9.1-1.64,68.71,68.71,0,0,0-12.52,1,44.73,44.73,0,0,0-8,2.1l-1.71-12a44.47,44.47,0,0,1,9.33-2.41A80.29,80.29,0,0,1,173,207.11Zm1.24,72.47q5.13,0,9.1-.24a39.86,39.86,0,0,0,6.61-.85v-24.1a18.7,18.7,0,0,0-5.06-1.33,56.62,56.62,0,0,0-8.47-.54,54.86,54.86,0,0,0-6.92.47,21.4,21.4,0,0,0-6.69,1.94,14.31,14.31,0,0,0-5.05,4,10.62,10.62,0,0,0-2,6.77q0,7.77,5,10.8T174.26,279.58Z"/><path d="M228.06,211.47q5-1.25,13.14-2.65a113.21,113.21,0,0,1,18.89-1.4,35.58,35.58,0,0,1,13.07,2.1,23,23,0,0,1,8.86,6.15c.72-.52,1.87-1.25,3.42-2.18a38.05,38.05,0,0,1,5.75-2.72,60.45,60.45,0,0,1,7.62-2.33,38.16,38.16,0,0,1,9-1q9.33,0,15.24,2.73a21.88,21.88,0,0,1,9.25,7.69,29.84,29.84,0,0,1,4.51,11.82A88.77,88.77,0,0,1,338,244.59V290H323.54V247.7a92.12,92.12,0,0,0-.7-12.29,23.93,23.93,0,0,0-2.64-8.55,12.14,12.14,0,0,0-5.29-5.05,19.71,19.71,0,0,0-8.63-1.63,31.92,31.92,0,0,0-12,1.94,23.59,23.59,0,0,0-6.46,3.5,53.77,53.77,0,0,1,1.87,8.86,80,80,0,0,1,.62,10.11V290H275.8V247.7a83.3,83.3,0,0,0-.78-12.29,24.72,24.72,0,0,0-2.72-8.55,12.14,12.14,0,0,0-5.29-5.05,19.26,19.26,0,0,0-8.47-1.63c-1.45,0-3,0-4.67.15s-3.24.23-4.74.39-2.88.34-4.12.54-2.07.37-2.49.47V290H228.06Z"/><path d="M376.41,212.71a39.23,39.23,0,0,1,8-3.58,37.62,37.62,0,0,1,12.36-1.86,36.71,36.71,0,0,1,15.47,3.11,32.14,32.14,0,0,1,11.43,8.71,38.23,38.23,0,0,1,7.07,13.37,57.45,57.45,0,0,1,2.42,17.1,50.93,50.93,0,0,1-2.88,17.65,37.06,37.06,0,0,1-8.17,13.3,35.89,35.89,0,0,1-12.75,8.4,45.25,45.25,0,0,1-16.79,2.95,102,102,0,0,1-17.88-1.4q-7.79-1.4-12.75-2.8V171.81l14.46-2.48Zm0,64.69a48.78,48.78,0,0,0,6.14,1.17,75,75,0,0,0,9.87.54q11.67,0,18.66-7.7t7-21.85a52.25,52.25,0,0,0-1.24-11.66,26.35,26.35,0,0,0-4-9.41,19.44,19.44,0,0,0-7.23-6.21A23.13,23.13,0,0,0,394.91,220,28.75,28.75,0,0,0,384,222a29.79,29.79,0,0,0-7.62,4.2Z"/><path d="M517.91,287.66q-5,1.24-13.14,2.65a113.21,113.21,0,0,1-18.89,1.4A40,40,0,0,1,470.17,289a25.26,25.26,0,0,1-10.26-7.69,31.29,31.29,0,0,1-5.6-11.74,61.24,61.24,0,0,1-1.71-15V209.13h14.46v42.3q0,14.77,4.67,21.15t15.7,6.38c1.56,0,3.16-.06,4.82-.16s3.22-.23,4.67-.39,2.77-.31,4-.47a11.34,11.34,0,0,0,2.57-.54V209.13h14.46Z"/><path d="M572.65,207.42c1.24,0,2.66.08,4.27.24s3.19.36,4.74.62,3,.52,4.28.78a25.41,25.41,0,0,1,2.88.7l-2.49,12.59A47.66,47.66,0,0,0,570.47,220a37.85,37.85,0,0,0-8,.86c-2.64.57-4.38,1-5.21,1.16v68H542.79V212.56a97.49,97.49,0,0,1,12.75-3.5A81.8,81.8,0,0,1,572.65,207.42Z"/><path d="M653.5,281.91a38.58,38.58,0,0,1-7.23,3.19A36.83,36.83,0,0,1,633.75,287,40.29,40.29,0,0,1,620,284.71a30,30,0,0,1-11.27-7.23,35,35,0,0,1-7.62-12.21,48.61,48.61,0,0,1-2.8-17.42,47.94,47.94,0,0,1,2.64-16.24,36.19,36.19,0,0,1,7.7-12.76A35.39,35.39,0,0,1,621,210.46a42.74,42.74,0,0,1,16.49-3,93.26,93.26,0,0,1,17.65,1.48q7.53,1.48,12.67,2.72v72.16q0,18.64-9.64,27.05t-29.24,8.4A80.3,80.3,0,0,1,614.55,318a83.72,83.72,0,0,1-11.74-3l2.64-12.59a69.49,69.49,0,0,0,10.66,3,63.79,63.79,0,0,0,13.14,1.32q12.9,0,18.58-5.13t5.67-16.33Zm-.15-60a46.59,46.59,0,0,0-5.83-1.17,71,71,0,0,0-9.88-.54q-11.65,0-18,7.61T613.38,248a35.51,35.51,0,0,0,1.79,12,23.62,23.62,0,0,0,4.82,8.24,18.78,18.78,0,0,0,7,4.82,22.11,22.11,0,0,0,8.16,1.56A32.79,32.79,0,0,0,645.73,273a26.22,26.22,0,0,0,7.62-3.81Z"/><path d="M688.18,249.72A51.5,51.5,0,0,1,691.29,231a39,39,0,0,1,8.24-13.29,33.34,33.34,0,0,1,11.82-7.93A36.94,36.94,0,0,1,725,207.11q16.34,0,25,10.19t8.7,31v2.41a22.74,22.74,0,0,1-.15,2.72H703.26q.93,12.6,7.31,19.13t19.9,6.53a53.1,53.1,0,0,0,12.83-1.32,46.47,46.47,0,0,0,7.86-2.57l2,12.13a42.89,42.89,0,0,1-9.26,3,66.06,66.06,0,0,1-15,1.55,47.49,47.49,0,0,1-18.27-3.19A34.1,34.1,0,0,1,698,279.89a35.86,35.86,0,0,1-7.38-13.3A56.1,56.1,0,0,1,688.18,249.72Zm55.51-7.93q.15-9.79-4.9-16.09t-13.91-6.3a19.15,19.15,0,0,0-8.79,1.94,20.66,20.66,0,0,0-6.45,5.06,22.9,22.9,0,0,0-4.12,7.15,35,35,0,0,0-1.95,8.24Z"/><path d="M811.18,169.33a55.94,55.94,0,0,1,11,.93,38.6,38.6,0,0,1,6.45,1.71L826,184.41a26.92,26.92,0,0,0-5.29-1.79,35.23,35.23,0,0,0-8.4-.85q-10.1,0-14.15,5.52t-4,14.85v7h31.1v12.13h-31.1V290H779.61V201.83q0-15.56,7.62-24T811.18,169.33Z"/><path d="M911,249.56a51.3,51.3,0,0,1-2.8,17.42,39.8,39.8,0,0,1-7.86,13.37A34.38,34.38,0,0,1,888.3,289a39.7,39.7,0,0,1-30.47,0,34.42,34.42,0,0,1-12.06-8.63A39.78,39.78,0,0,1,837.92,267a55.31,55.31,0,0,1,0-34.75,39.67,39.67,0,0,1,7.85-13.45,34.42,34.42,0,0,1,12.06-8.63,39.7,39.7,0,0,1,30.47,0,34.38,34.38,0,0,1,12.05,8.63,39.69,39.69,0,0,1,7.86,13.45A51.43,51.43,0,0,1,911,249.56Zm-15.09,0q0-13.68-6.14-21.69t-16.72-8q-10.57,0-16.71,8t-6.14,21.69q0,13.69,6.14,21.7t16.71,8q10.58,0,16.72-8T895.92,249.56Z"/><path d="M931.38,211.47q5-1.25,13.21-2.65a114.74,114.74,0,0,1,19-1.4q9.65,0,16,2.73a25.06,25.06,0,0,1,10.19,7.62,29.62,29.62,0,0,1,5.36,11.74,67.89,67.89,0,0,1,1.56,15.08V290H982.22V247.7a68.43,68.43,0,0,0-1-12.75,21.55,21.55,0,0,0-3.34-8.55,13.24,13.24,0,0,0-6.22-4.75,27.46,27.46,0,0,0-9.64-1.47c-1.56,0-3.16,0-4.82.15s-3.24.23-4.74.39-2.86.34-4.05.54l-2.56.47V290H931.38Z"/><path d="M1034.16,209.13h30.63v12.13h-30.63v37.32a44.93,44.93,0,0,0,.93,10,15,15,0,0,0,2.8,6.22,10,10,0,0,0,4.67,3.19,20.68,20.68,0,0,0,6.53.94,30.79,30.79,0,0,0,10.49-1.48q4-1.49,5.52-2.1l2.8,12a53.24,53.24,0,0,1-7.62,2.72,43.25,43.25,0,0,1-12.44,1.64,37.65,37.65,0,0,1-13.6-2.1,19.75,19.75,0,0,1-8.63-6.3A25.2,25.2,0,0,1,1021,273a68.31,68.31,0,0,1-1.32-14.23V186.59l14.46-2.49Z"/><path d="M1102,279.58c5.91,0,10.28-.78,13.14-2.34a7.87,7.87,0,0,0,4.27-7.46,9.93,9.93,0,0,0-4.2-8.4q-4.18-3.11-13.84-7-4.66-1.87-8.94-3.81A31.48,31.48,0,0,1,1085,246a20,20,0,0,1-5-6.38,20.41,20.41,0,0,1-1.86-9.17q0-10.73,7.93-17t21.61-6.3a60.32,60.32,0,0,1,6.84.39q3.42.39,6.38.94c2,.36,3.7.75,5.21,1.16s2.66.78,3.5,1.09L1127,223.13a36.82,36.82,0,0,0-7.31-2.57,47.64,47.64,0,0,0-12-1.32,22.16,22.16,0,0,0-10.57,2.41,8,8,0,0,0-4.51,7.55,10.21,10.21,0,0,0,1,4.66,10.61,10.61,0,0,0,3.11,3.65,25.67,25.67,0,0,0,5.21,3q3.11,1.39,7.46,2.95c3.83,1.45,7.26,2.88,10.26,4.28a32.07,32.07,0,0,1,7.7,4.9,18.8,18.8,0,0,1,4.9,6.76,24.52,24.52,0,0,1,1.71,9.72q0,11.19-8.32,16.95T1102,291.86q-10.74,0-16.8-1.79t-8.24-2.72l2.64-12.44c1.66.62,4.31,1.56,7.94,2.8S1095.94,279.58,1102,279.58Z"/></g><g id="caption"><g class="cls-3"><circle class="cls-2" cx="160" cy="214" r="20"/><circle class="cls-2" cx="226" cy="72" r="40"/><polyline class="cls-4" points="160 217.5 160 138 226 72"/></g><path class="cls-5" d="M239.93,94H211.78V89.81l11.28-11.34A81.59,81.59,0,0,0,229.85,71a18.51,18.51,0,0,0,2.46-4.33,12.38,12.38,0,0,0,.82-4.55,7.19,7.19,0,0,0-2.08-5.43,8,8,0,0,0-5.77-2,14.61,14.61,0,0,0-5.05.88,20.1,20.1,0,0,0-5.32,3.2l-2.58-3.32a19.77,19.77,0,0,1,12.89-4.92q6,0,9.47,3.09A10.65,10.65,0,0,1,238.11,62,16.1,16.1,0,0,1,235.83,70q-2.28,4-8.56,10.07l-9.37,9.17v.24h22Z"/><g class="cls-3"><circle class="cls-2" cx="394" cy="72" r="40"/><line class="cls-4" x1="394" y1="247.5" x2="394" y2="71.5"/></g><path class="cls-5" d="M406.32,61.25A9.8,9.8,0,0,1,404,68a11.52,11.52,0,0,1-6.52,3.48v.24q5.16.64,7.65,3.28a9.64,9.64,0,0,1,2.49,6.91q0,6.12-4.25,9.42t-12.07,3.3a34.26,34.26,0,0,1-6.23-.52,21.28,21.28,0,0,1-5.49-1.8V87.64a28,28,0,0,0,11.9,2.82q11.1,0,11.1-8.71,0-7.78-12.25-7.79h-4.22V69.77h4.28a12.9,12.9,0,0,0,7.94-2.21,7.27,7.27,0,0,0,2.93-6.14,6.06,6.06,0,0,0-2.15-4.92,8.91,8.91,0,0,0-5.85-1.79,18.3,18.3,0,0,0-5.3.76,23.59,23.59,0,0,0-5.68,2.82L379.83,55a20.52,20.52,0,0,1,6.08-3.27,22.19,22.19,0,0,1,7.26-1.19q6.24,0,9.69,2.86A9.61,9.61,0,0,1,406.32,61.25Z"/><g class="cls-3"><circle class="cls-2" cx="666" cy="211" r="20"/><circle class="cls-2" cx="666" cy="72" r="40"/><line class="cls-4" x1="666" y1="210.5" x2="666" y2="71.5"/></g><path class="cls-5" d="M682,84.16h-6.36V94h-4.65V84.16H650.11V79.91l20.33-29h5.15v28.8H682Zm-11-4.43V65.49c0-2.79.09-5.94.29-9.46H671a44,44,0,0,1-2.64,4.66L655,79.73Z"/><g class="cls-3"><circle class="cls-2" cx="939" cy="214" r="20"/><circle class="cls-2" cx="939" cy="72" r="40"/><line class="cls-4" x1="939" y1="200" x2="939" y2="71.5"/></g><path class="cls-5" d="M938.17,67.84q6.76,0,10.64,3.35a11.52,11.52,0,0,1,3.89,9.19q0,6.65-4.24,10.43t-11.67,3.78q-7.24,0-11-2.32V87.58a16.87,16.87,0,0,0,5.1,2.07,25,25,0,0,0,6,.75c3.43,0,6.11-.81,8-2.44a8.73,8.73,0,0,0,2.86-7q0-9-11-9a43.26,43.26,0,0,0-7.44.85l-2.52-1.61,1.61-20h21.3v4.48H932.54l-1.08,12.86A34,34,0,0,1,938.17,67.84Z"/><g class="cls-3"><circle class="cls-2" cx="1028" cy="186" r="20"/><circle class="cls-2" cx="1028" cy="72" r="40"/><line class="cls-4" x1="1028" y1="185.5" x2="1028" y2="71.5"/></g><path class="cls-5" d="M1014.27,75.69q0-12.63,4.91-18.88t14.52-6.26a19.31,19.31,0,0,1,5.21.56V55.3a16.59,16.59,0,0,0-5.15-.73q-6.88,0-10.52,4.29t-4,13.49h.36q3.21-5,10.19-5,5.78,0,9.1,3.49t3.32,9.46q0,6.67-3.64,10.5a13,13,0,0,1-9.86,3.83,12.67,12.67,0,0,1-10.55-5Q1014.27,84.6,1014.27,75.69Zm14.39,14.77a8.14,8.14,0,0,0,6.46-2.63q2.3-2.62,2.3-7.57a9.75,9.75,0,0,0-2.14-6.68q-2.15-2.43-6.39-2.43a10.8,10.8,0,0,0-4.83,1.08,9,9,0,0,0-3.5,3,6.92,6.92,0,0,0-1.31,4,13.58,13.58,0,0,0,1.18,5.62,9.89,9.89,0,0,0,3.32,4.13A8.27,8.27,0,0,0,1028.66,90.46Z"/><g class="cls-3"><circle class="cls-2" cx="114" cy="183" r="20"/><circle class="cls-2" cx="114" cy="72" r="40"/><line class="cls-4" x1="114" y1="169.5" x2="114" y2="71.5"/></g><path class="cls-5" d="M117.79,94h-4.74V63.47q0-3.81.23-7.2c-.41.41-.87.84-1.37,1.28s-2.84,2.36-7,5.72l-2.58-3.34,11.34-8.76h4.1Z"/></g></svg>