<svg xmlns="http://www.w3.org/2000/svg" viewBox="0 0 950 396"><defs><style>.cls-1,.cls-4{fill:none;}.cls-1{stroke:#000;opacity:0.2;}.cls-1,.cls-3,.cls-4{stroke-miterlimit:10;stroke-width:2px;}.cls-2{opacity:0.7;}.cls-3,.cls-5{fill:#005b72;}.cls-3,.cls-4{stroke:#005b72;}.cls-6{fill:#fff;}</style></defs><title>font-lines</title><g id="lines"><line class="cls-1" x1="40" y1="290" x2="910" y2="290"/><line class="cls-1" x1="40" y1="179" x2="910" y2="179"/><line class="cls-1" x1="40" y1="171" x2="910" y2="171"/><line class="cls-1" x1="40" y1="206" x2="910" y2="206"/><line class="cls-1" x1="40" y1="327" x2="910" y2="327"/></g><g id="font"><path d="M367.37,290H354.46V237.76H296V290H283.09V179H296v47.23h58.46V179h12.91Z"/><path d="M434.64,291.51a36,36,0,0,1-14.84-3,27.86,27.86,0,0,1-11.28-9.22h-.91a111.18,111.18,0,0,1,.91,13.82v34.24h-12.6V206.78h10.25l1.74,11.39h.61a29.21,29.21,0,0,1,11.31-9.87,34.35,34.35,0,0,1,14.81-3q16.55,0,25.55,11.31t9,31.74q0,20.51-9.15,31.85T434.64,291.51ZM432.82,216q-12.76,0-18.45,7.06t-5.85,22.47v2.81q0,17.54,5.85,25.09T433.12,281a19.52,19.52,0,0,0,16.9-8.73q6.11-8.73,6.11-24.07,0-15.57-6.11-23.88T432.82,216Z"/><path d="M503.81,290h-12.6V171.85h12.6Z"/><path d="M550.58,247.4l-28.93-40.62H536l22,31.89,21.86-31.89H594L565.08,247.4,595.53,290H581.26L558,256.28,534.41,290H520.13Z"/></g><g id="caption"><g class="cls-2"><rect class="cls-3" x="618.5" y="206" width="7" height="84"/><path class="cls-4" d="M640,112V222.64c0,5.5-3.18,13.18-7.07,17.07L621.63,251"/><circle class="cls-5" cx="640" cy="112" r="20"/><path class="cls-6" d="M646.91,122.79,644.25,116h-8.59L633,122.79h-2.52l8.46-21.5h2.1l8.42,21.5Zm-3.44-9.05L641,107.1q-.48-1.26-1-3.09a28.75,28.75,0,0,1-.93,3.09l-2.52,6.64Z"/></g><g class="cls-2"><rect class="cls-3" x="718.5" y="179" width="7" height="111"/><path class="cls-4" d="M740,112V222.64c0,5.5-3.18,13.18-7.07,17.07L721.63,251"/><circle class="cls-5" cx="740" cy="112" r="20"/><path class="cls-6" d="M742.65,103.29a7,7,0,0,0-5.57,2.35,9.46,9.46,0,0,0-2.05,6.44,9.71,9.71,0,0,0,2,6.5,7,7,0,0,0,5.62,2.29,19,19,0,0,0,5.11-.81v2.19a15.86,15.86,0,0,1-5.49.83,9.3,9.3,0,0,1-7.3-2.87c-1.72-1.91-2.57-4.63-2.57-8.16a12.8,12.8,0,0,1,1.24-5.8,8.85,8.85,0,0,1,3.57-3.84,10.8,10.8,0,0,1,5.5-1.34,13.27,13.27,0,0,1,5.89,1.23l-1.06,2.13A11.36,11.36,0,0,0,742.65,103.29Z"/></g><g class="cls-2"><rect class="cls-3" x="768.5" y="171" width="7" height="119"/><path class="cls-4" d="M790,112V222.64c0,5.5-3.18,13.18-7.07,17.07L771.63,251"/><circle class="cls-5" cx="790" cy="112" r="20"/><path class="cls-6" d="M799.1,111.88q0,5.3-2.87,8.1c-1.92,1.87-4.69,2.81-8.29,2.81H782V101.37h6.56c3.33,0,5.92.93,7.77,2.77S799.1,108.57,799.1,111.88Zm-2.63.08q0-4.18-2.1-6.31c-1.41-1.42-3.49-2.12-6.25-2.12H784.5v17.11h3q4.46,0,6.7-2.19T796.47,112Z"/></g><g class="cls-2"><rect class="cls-3" x="818.5" y="171" width="7" height="8"/><path class="cls-4" d="M840,112v38.64c0,5.5-3.18,13.18-7.07,17.07L821.63,179"/><circle class="cls-5" cx="840" cy="112" r="20"/><path class="cls-6" d="M846.54,122.79H834.6V101.37h11.94v2.21h-9.45v6.9H846v2.2h-8.88v7.88h9.45Z"/></g><g class="cls-2"><rect class="cls-3" x="868.5" y="162" width="7" height="171"/><path class="cls-4" d="M890,112V222.64c0,5.5-3.18,13.18-7.07,17.07L871.63,251"/><circle class="cls-5" cx="890" cy="112" r="20"/><path class="cls-6" d="M887.69,122.79H885.2V101.37h11.94v2.21h-9.45v7.84h8.88v2.21h-8.88Z"/></g><g class="cls-2"><rect class="cls-3" x="668.5" y="290" width="7" height="37"/><path class="cls-4" d="M690,112V285.64c0,5.5-3.18,13.18-7.07,17.07L671.63,314"/><circle class="cls-5" cx="690" cy="112" r="20"/><path class="cls-6" d="M683.22,101.37h6.06q4.26,0,6.16,1.28a4.5,4.5,0,0,1,1.91,4,4.65,4.65,0,0,1-1.07,3.14,5.09,5.09,0,0,1-3.09,1.6v.15q4.88.83,4.87,5.13a5.5,5.5,0,0,1-1.94,4.48,8.26,8.26,0,0,1-5.42,1.61h-7.48Zm2.49,9.17h4.11a6.61,6.61,0,0,0,3.79-.83,3.2,3.2,0,0,0,1.16-2.79,2.83,2.83,0,0,0-1.29-2.6,8.1,8.1,0,0,0-4.1-.79h-3.67Zm0,2.11v8h4.47a6.38,6.38,0,0,0,3.91-1,3.71,3.71,0,0,0,1.31-3.14,3.33,3.33,0,0,0-1.34-2.93,7.15,7.15,0,0,0-4.08-.94Z"/></g><g class="cls-2"><line class="cls-4" x1="60" y1="112" x2="60" y2="327"/><circle class="cls-5" cx="60" cy="112" r="20"/><path class="cls-6" d="M61.9,122.79H59.52V107.53c0-1.27,0-2.48.12-3.61-.2.21-.43.42-.69.65s-1.41,1.17-3.48,2.85l-1.29-1.67,5.67-4.38h2Z"/><circle class="cls-5" cx="60" cy="327" r="5"/></g><g class="cls-2"><line class="cls-4" x1="110" y1="112" x2="110" y2="290"/><circle class="cls-5" cx="110" cy="112" r="20"/><path class="cls-6" d="M117,122.79H102.89v-2.1l5.64-5.66a40.79,40.79,0,0,0,3.4-3.73,10,10,0,0,0,1.23-2.16,6.31,6.31,0,0,0,.41-2.27,3.61,3.61,0,0,0-1-2.72,4,4,0,0,0-2.89-1,7.35,7.35,0,0,0-2.53.43,10.29,10.29,0,0,0-2.65,1.6l-1.29-1.65a9.86,9.86,0,0,1,6.44-2.46,6.8,6.8,0,0,1,4.73,1.54,5.3,5.3,0,0,1,1.72,4.15,8,8,0,0,1-1.15,4,25.33,25.33,0,0,1-4.27,5L106,120.42v.11h11Z"/><circle class="cls-5" cx="110" cy="290" r="5"/></g><g class="cls-2"><line class="cls-4" x1="160" y1="112" x2="160" y2="206"/><circle class="cls-5" cx="160" cy="112" r="20"/><path class="cls-6" d="M166.16,106.41a4.88,4.88,0,0,1-1.15,3.36,5.73,5.73,0,0,1-3.26,1.74v.12a6.08,6.08,0,0,1,3.82,1.64,4.83,4.83,0,0,1,1.25,3.45,5.58,5.58,0,0,1-2.13,4.71,9.62,9.62,0,0,1-6,1.65,17.57,17.57,0,0,1-3.11-.25,10.58,10.58,0,0,1-2.75-.91v-2.31a14,14,0,0,0,5.95,1.41q5.55,0,5.55-4.35,0-3.9-6.12-3.9h-2.11v-2.1h2.14a6.43,6.43,0,0,0,4-1.1,3.65,3.65,0,0,0,1.46-3.07,3,3,0,0,0-1.08-2.46,4.39,4.39,0,0,0-2.92-.89,8.8,8.8,0,0,0-2.65.38,11.72,11.72,0,0,0-2.84,1.4l-1.23-1.64a10.19,10.19,0,0,1,3-1.63,10.86,10.86,0,0,1,3.62-.59,7.42,7.42,0,0,1,4.85,1.42A4.83,4.83,0,0,1,166.16,106.41Z"/><circle class="cls-5" cx="160" cy="206" r="5"/></g><g class="cls-2"><line class="cls-4" x1="210" y1="112" x2="210" y2="179"/><circle class="cls-5" cx="210" cy="112" r="20"/><path class="cls-6" d="M218,117.87H214.8v4.92h-2.33v-4.92H202.05v-2.13l10.17-14.48h2.58v14.4H218Zm-5.51-2.21v-7.12c0-1.4.05-3,.14-4.74h-.11a21.49,21.49,0,0,1-1.32,2.33l-6.7,9.53Z"/><circle class="cls-5" cx="210" cy="179" r="5"/></g><g class="cls-2"><line class="cls-4" x1="260" y1="112" x2="260" y2="171"/><circle class="cls-5" cx="260" cy="112" r="20"/><path class="cls-6" d="M259.58,109.71a7.93,7.93,0,0,1,5.33,1.67,5.77,5.77,0,0,1,1.94,4.6,6.64,6.64,0,0,1-2.12,5.21,8.46,8.46,0,0,1-5.84,1.89,10.65,10.65,0,0,1-5.52-1.16v-2.34a8.18,8.18,0,0,0,2.55,1,12.59,12.59,0,0,0,3,.38,6,6,0,0,0,4-1.22,4.36,4.36,0,0,0,1.43-3.51q0-4.49-5.5-4.49a22.47,22.47,0,0,0-3.72.43l-1.26-.81.81-10h10.65v2.24h-8.57l-.54,6.43A17.37,17.37,0,0,1,259.58,109.71Z"/><circle class="cls-5" cx="260" cy="171" r="5"/></g></g></svg>