<svg width="852" height="608" viewBox="0 0 852 608" fill="none" xmlns="http://www.w3.org/2000/svg">
<g clip-path="url(#clip0)">
<rect width="852" height="608" fill="white"/>
<rect y="39" width="852" height="61" fill="#EDEDED"/>
<rect x="852" y="309" width="852" height="61" transform="rotate(180 852 309)" fill="#EDEDED"/>
<rect x="6" y="45" width="525" height="49" fill="#5ABE8E"/>
<rect x="846" y="303" width="525" height="49" transform="rotate(180 846 303)" fill="#5ABE8E"/>
<path d="M16.0977 127.936C16.0977 130.051 15.7363 131.624 15.0137 132.652C14.291 133.681 13.1615 134.195 11.625 134.195C10.1081 134.195 8.98503 133.694 8.25586 132.691C7.52669 131.682 7.14909 130.178 7.12305 128.18V125.768C7.12305 123.678 7.48438 122.125 8.20703 121.109C8.92969 120.094 10.0625 119.586 11.6055 119.586C13.1354 119.586 14.2617 120.077 14.9844 121.061C15.707 122.037 16.0781 123.548 16.0977 125.592V127.936ZM14.291 125.465C14.291 123.935 14.0762 122.822 13.6465 122.125C13.2168 121.422 12.5365 121.07 11.6055 121.07C10.681 121.07 10.0072 121.419 9.58398 122.115C9.16081 122.812 8.94271 123.883 8.92969 125.328V128.219C8.92969 129.755 9.15104 130.891 9.59375 131.627C10.043 132.356 10.7201 132.721 11.625 132.721C12.5169 132.721 13.1777 132.376 13.6074 131.686C14.0436 130.995 14.2715 129.908 14.291 128.424V125.465ZM18.2559 122.516C18.2559 121.663 18.526 120.96 19.0664 120.406C19.6133 119.853 20.3132 119.576 21.166 119.576C22.0319 119.576 22.7318 119.856 23.2656 120.416C23.806 120.969 24.0762 121.689 24.0762 122.574V123.268C24.0762 124.127 23.8027 124.83 23.2559 125.377C22.7155 125.917 22.0254 126.188 21.1855 126.188C20.3392 126.188 19.6393 125.917 19.0859 125.377C18.5326 124.83 18.2559 124.104 18.2559 123.199V122.516ZM19.6035 123.268C19.6035 123.775 19.7467 124.195 20.0332 124.527C20.3197 124.853 20.7038 125.016 21.1855 125.016C21.6478 125.016 22.0189 124.856 22.2988 124.537C22.5853 124.218 22.7285 123.782 22.7285 123.229V122.516C22.7285 122.008 22.5885 121.588 22.3086 121.256C22.0286 120.924 21.6478 120.758 21.166 120.758C20.6842 120.758 20.3034 120.924 20.0234 121.256C19.7435 121.588 19.6035 122.021 19.6035 122.555V123.268ZM25.1797 130.514C25.1797 129.661 25.4499 128.961 25.9902 128.414C26.5371 127.861 27.237 127.584 28.0898 127.584C28.9427 127.584 29.6426 127.857 30.1895 128.404C30.7363 128.951 31.0098 129.677 31.0098 130.582V131.275C31.0098 132.128 30.7363 132.831 30.1895 133.385C29.6491 133.932 28.9557 134.205 28.1094 134.205C27.263 134.205 26.5632 133.935 26.0098 133.395C25.4564 132.848 25.1797 132.122 25.1797 131.217V130.514ZM26.5273 131.275C26.5273 131.79 26.6706 132.213 26.957 132.545C27.2435 132.87 27.6276 133.033 28.1094 133.033C28.5781 133.033 28.9525 132.874 29.2324 132.555C29.5124 132.229 29.6523 131.79 29.6523 131.236V130.514C29.6523 129.999 29.5091 129.579 29.2227 129.254C28.9427 128.928 28.5651 128.766 28.0898 128.766C27.6276 128.766 27.25 128.928 26.957 129.254C26.6706 129.573 26.5273 130.006 26.5273 130.553V131.275ZM21.5957 132.926L20.5703 132.281L27.5137 121.168L28.5391 121.812L21.5957 132.926Z" fill="black"/>
<path d="M16.0977 336.936C16.0977 339.051 15.7363 340.624 15.0137 341.652C14.291 342.681 13.1615 343.195 11.625 343.195C10.1081 343.195 8.98503 342.694 8.25586 341.691C7.52669 340.682 7.14909 339.178 7.12305 337.18V334.768C7.12305 332.678 7.48438 331.125 8.20703 330.109C8.92969 329.094 10.0625 328.586 11.6055 328.586C13.1354 328.586 14.2617 329.077 14.9844 330.061C15.707 331.037 16.0781 332.548 16.0977 334.592V336.936ZM14.291 334.465C14.291 332.935 14.0762 331.822 13.6465 331.125C13.2168 330.422 12.5365 330.07 11.6055 330.07C10.681 330.07 10.0072 330.419 9.58398 331.115C9.16081 331.812 8.94271 332.883 8.92969 334.328V337.219C8.92969 338.755 9.15104 339.891 9.59375 340.627C10.043 341.356 10.7201 341.721 11.625 341.721C12.5169 341.721 13.1777 341.376 13.6074 340.686C14.0436 339.995 14.2715 338.908 14.291 337.424V334.465ZM18.2559 331.516C18.2559 330.663 18.526 329.96 19.0664 329.406C19.6133 328.853 20.3132 328.576 21.166 328.576C22.0319 328.576 22.7318 328.856 23.2656 329.416C23.806 329.969 24.0762 330.689 24.0762 331.574V332.268C24.0762 333.127 23.8027 333.83 23.2559 334.377C22.7155 334.917 22.0254 335.188 21.1855 335.188C20.3392 335.188 19.6393 334.917 19.0859 334.377C18.5326 333.83 18.2559 333.104 18.2559 332.199V331.516ZM19.6035 332.268C19.6035 332.775 19.7467 333.195 20.0332 333.527C20.3197 333.853 20.7038 334.016 21.1855 334.016C21.6478 334.016 22.0189 333.856 22.2988 333.537C22.5853 333.218 22.7285 332.782 22.7285 332.229V331.516C22.7285 331.008 22.5885 330.588 22.3086 330.256C22.0286 329.924 21.6478 329.758 21.166 329.758C20.6842 329.758 20.3034 329.924 20.0234 330.256C19.7435 330.588 19.6035 331.021 19.6035 331.555V332.268ZM25.1797 339.514C25.1797 338.661 25.4499 337.961 25.9902 337.414C26.5371 336.861 27.237 336.584 28.0898 336.584C28.9427 336.584 29.6426 336.857 30.1895 337.404C30.7363 337.951 31.0098 338.677 31.0098 339.582V340.275C31.0098 341.128 30.7363 341.831 30.1895 342.385C29.6491 342.932 28.9557 343.205 28.1094 343.205C27.263 343.205 26.5632 342.935 26.0098 342.395C25.4564 341.848 25.1797 341.122 25.1797 340.217V339.514ZM26.5273 340.275C26.5273 340.79 26.6706 341.213 26.957 341.545C27.2435 341.87 27.6276 342.033 28.1094 342.033C28.5781 342.033 28.9525 341.874 29.2324 341.555C29.5124 341.229 29.6523 340.79 29.6523 340.236V339.514C29.6523 338.999 29.5091 338.579 29.2227 338.254C28.9427 337.928 28.5651 337.766 28.0898 337.766C27.6276 337.766 27.25 337.928 26.957 338.254C26.6706 338.573 26.5273 339.006 26.5273 339.553V340.275ZM21.5957 341.926L20.5703 341.281L27.5137 330.168L28.5391 330.812L21.5957 341.926Z" fill="black"/>
<path d="M11.0391 19.1758H18.5039V22H7.52344V4.9375H11.0391V19.1758ZM30.9609 7.78516H25.7344V22H22.2188V7.78516H17.0625V4.9375H30.9609V7.78516ZM39.293 15.7539H36.4922V22H32.9766V4.9375H39.3164C41.332 4.9375 42.8867 5.38672 43.9805 6.28516C45.0742 7.18359 45.6211 8.45312 45.6211 10.0938C45.6211 11.2578 45.3672 12.2305 44.8594 13.0117C44.3594 13.7852 43.5977 14.4023 42.5742 14.8633L46.2656 21.8359V22H42.4922L39.293 15.7539ZM36.4922 12.9062H39.3281C40.2109 12.9062 40.8945 12.6836 41.3789 12.2383C41.8633 11.7852 42.1055 11.1641 42.1055 10.375C42.1055 9.57031 41.875 8.9375 41.4141 8.47656C40.9609 8.01562 40.2617 7.78516 39.3164 7.78516H36.4922V12.9062Z" fill="black"/>
<path d="M13.8398 224.754H11.0391V231H7.52344V213.938H13.8633C15.8789 213.938 17.4336 214.387 18.5273 215.285C19.6211 216.184 20.168 217.453 20.168 219.094C20.168 220.258 19.9141 221.23 19.4062 222.012C18.9062 222.785 18.1445 223.402 17.1211 223.863L20.8125 230.836V231H17.0391L13.8398 224.754ZM11.0391 221.906H13.875C14.7578 221.906 15.4414 221.684 15.9258 221.238C16.4102 220.785 16.6523 220.164 16.6523 219.375C16.6523 218.57 16.4219 217.938 15.9609 217.477C15.5078 217.016 14.8086 216.785 13.8633 216.785H11.0391V221.906ZM35.1094 216.785H29.8828V231H26.3672V216.785H21.2109V213.938H35.1094V216.785ZM40.6406 228.176H48.1055V231H37.125V213.938H40.6406V228.176Z" fill="black"/>
<path d="M539.271 119.771V121.305H538.939C537.533 121.331 536.413 121.747 535.58 122.555C534.747 123.362 534.265 124.498 534.135 125.963C534.883 125.104 535.906 124.674 537.201 124.674C538.438 124.674 539.424 125.11 540.16 125.982C540.902 126.855 541.273 127.981 541.273 129.361C541.273 130.826 540.873 131.998 540.072 132.877C539.278 133.756 538.21 134.195 536.869 134.195C535.508 134.195 534.405 133.674 533.559 132.633C532.712 131.585 532.289 130.237 532.289 128.59V127.896C532.289 125.279 532.846 123.281 533.959 121.9C535.079 120.514 536.742 119.804 538.949 119.771H539.271ZM536.898 126.178C536.28 126.178 535.71 126.363 535.189 126.734C534.669 127.105 534.307 127.571 534.105 128.131V128.795C534.105 129.967 534.369 130.911 534.896 131.627C535.424 132.343 536.081 132.701 536.869 132.701C537.683 132.701 538.321 132.402 538.783 131.803C539.252 131.204 539.486 130.419 539.486 129.449C539.486 128.473 539.249 127.685 538.773 127.086C538.305 126.48 537.68 126.178 536.898 126.178ZM544.242 126.871L544.965 119.781H552.25V121.451H546.498L546.068 125.328C546.765 124.918 547.556 124.713 548.441 124.713C549.737 124.713 550.766 125.143 551.527 126.002C552.289 126.855 552.67 128.01 552.67 129.469C552.67 130.934 552.273 132.089 551.479 132.936C550.691 133.775 549.587 134.195 548.168 134.195C546.911 134.195 545.886 133.847 545.092 133.15C544.298 132.454 543.845 131.49 543.734 130.26H545.443C545.554 131.074 545.844 131.689 546.312 132.105C546.781 132.516 547.4 132.721 548.168 132.721C549.008 132.721 549.665 132.434 550.141 131.861C550.622 131.288 550.863 130.497 550.863 129.488C550.863 128.538 550.603 127.776 550.082 127.203C549.568 126.624 548.881 126.334 548.021 126.334C547.234 126.334 546.615 126.507 546.166 126.852L545.688 127.242L544.242 126.871ZM554.486 122.516C554.486 121.663 554.757 120.96 555.297 120.406C555.844 119.853 556.544 119.576 557.396 119.576C558.262 119.576 558.962 119.856 559.496 120.416C560.036 120.969 560.307 121.689 560.307 122.574V123.268C560.307 124.127 560.033 124.83 559.486 125.377C558.946 125.917 558.256 126.188 557.416 126.188C556.57 126.188 555.87 125.917 555.316 125.377C554.763 124.83 554.486 124.104 554.486 123.199V122.516ZM555.834 123.268C555.834 123.775 555.977 124.195 556.264 124.527C556.55 124.853 556.934 125.016 557.416 125.016C557.878 125.016 558.249 124.856 558.529 124.537C558.816 124.218 558.959 123.782 558.959 123.229V122.516C558.959 122.008 558.819 121.588 558.539 121.256C558.259 120.924 557.878 120.758 557.396 120.758C556.915 120.758 556.534 120.924 556.254 121.256C555.974 121.588 555.834 122.021 555.834 122.555V123.268ZM561.41 130.514C561.41 129.661 561.68 128.961 562.221 128.414C562.768 127.861 563.467 127.584 564.32 127.584C565.173 127.584 565.873 127.857 566.42 128.404C566.967 128.951 567.24 129.677 567.24 130.582V131.275C567.24 132.128 566.967 132.831 566.42 133.385C565.88 133.932 565.186 134.205 564.34 134.205C563.493 134.205 562.794 133.935 562.24 133.395C561.687 132.848 561.41 132.122 561.41 131.217V130.514ZM562.758 131.275C562.758 131.79 562.901 132.213 563.188 132.545C563.474 132.87 563.858 133.033 564.34 133.033C564.809 133.033 565.183 132.874 565.463 132.555C565.743 132.229 565.883 131.79 565.883 131.236V130.514C565.883 129.999 565.74 129.579 565.453 129.254C565.173 128.928 564.796 128.766 564.32 128.766C563.858 128.766 563.48 128.928 563.188 129.254C562.901 129.573 562.758 130.006 562.758 130.553V131.275ZM557.826 132.926L556.801 132.281L563.744 121.168L564.77 121.812L557.826 132.926Z" fill="black"/>
<path d="M292.271 328.771V330.305H291.939C290.533 330.331 289.413 330.747 288.58 331.555C287.747 332.362 287.265 333.498 287.135 334.963C287.883 334.104 288.906 333.674 290.201 333.674C291.438 333.674 292.424 334.11 293.16 334.982C293.902 335.855 294.273 336.981 294.273 338.361C294.273 339.826 293.873 340.998 293.072 341.877C292.278 342.756 291.21 343.195 289.869 343.195C288.508 343.195 287.405 342.674 286.559 341.633C285.712 340.585 285.289 339.237 285.289 337.59V336.896C285.289 334.279 285.846 332.281 286.959 330.9C288.079 329.514 289.742 328.804 291.949 328.771H292.271ZM289.898 335.178C289.28 335.178 288.71 335.363 288.189 335.734C287.669 336.105 287.307 336.571 287.105 337.131V337.795C287.105 338.967 287.369 339.911 287.896 340.627C288.424 341.343 289.081 341.701 289.869 341.701C290.683 341.701 291.321 341.402 291.783 340.803C292.252 340.204 292.486 339.419 292.486 338.449C292.486 337.473 292.249 336.685 291.773 336.086C291.305 335.48 290.68 335.178 289.898 335.178ZM297.242 335.871L297.965 328.781H305.25V330.451H299.498L299.068 334.328C299.765 333.918 300.556 333.713 301.441 333.713C302.737 333.713 303.766 334.143 304.527 335.002C305.289 335.855 305.67 337.01 305.67 338.469C305.67 339.934 305.273 341.089 304.479 341.936C303.691 342.775 302.587 343.195 301.168 343.195C299.911 343.195 298.886 342.847 298.092 342.15C297.298 341.454 296.845 340.49 296.734 339.26H298.443C298.554 340.074 298.844 340.689 299.312 341.105C299.781 341.516 300.4 341.721 301.168 341.721C302.008 341.721 302.665 341.434 303.141 340.861C303.622 340.288 303.863 339.497 303.863 338.488C303.863 337.538 303.603 336.776 303.082 336.203C302.568 335.624 301.881 335.334 301.021 335.334C300.234 335.334 299.615 335.507 299.166 335.852L298.688 336.242L297.242 335.871ZM307.486 331.516C307.486 330.663 307.757 329.96 308.297 329.406C308.844 328.853 309.544 328.576 310.396 328.576C311.262 328.576 311.962 328.856 312.496 329.416C313.036 329.969 313.307 330.689 313.307 331.574V332.268C313.307 333.127 313.033 333.83 312.486 334.377C311.946 334.917 311.256 335.188 310.416 335.188C309.57 335.188 308.87 334.917 308.316 334.377C307.763 333.83 307.486 333.104 307.486 332.199V331.516ZM308.834 332.268C308.834 332.775 308.977 333.195 309.264 333.527C309.55 333.853 309.934 334.016 310.416 334.016C310.878 334.016 311.249 333.856 311.529 333.537C311.816 333.218 311.959 332.782 311.959 332.229V331.516C311.959 331.008 311.819 330.588 311.539 330.256C311.259 329.924 310.878 329.758 310.396 329.758C309.915 329.758 309.534 329.924 309.254 330.256C308.974 330.588 308.834 331.021 308.834 331.555V332.268ZM314.41 339.514C314.41 338.661 314.68 337.961 315.221 337.414C315.768 336.861 316.467 336.584 317.32 336.584C318.173 336.584 318.873 336.857 319.42 337.404C319.967 337.951 320.24 338.677 320.24 339.582V340.275C320.24 341.128 319.967 341.831 319.42 342.385C318.88 342.932 318.186 343.205 317.34 343.205C316.493 343.205 315.794 342.935 315.24 342.395C314.687 341.848 314.41 341.122 314.41 340.217V339.514ZM315.758 340.275C315.758 340.79 315.901 341.213 316.188 341.545C316.474 341.87 316.858 342.033 317.34 342.033C317.809 342.033 318.183 341.874 318.463 341.555C318.743 341.229 318.883 340.79 318.883 340.236V339.514C318.883 338.999 318.74 338.579 318.453 338.254C318.173 337.928 317.796 337.766 317.32 337.766C316.858 337.766 316.48 337.928 316.188 338.254C315.901 338.573 315.758 339.006 315.758 339.553V340.275ZM310.826 341.926L309.801 341.281L316.744 330.168L317.77 330.812L310.826 341.926Z" fill="black"/>
<path d="M410.611 484.986V488.436H409.864C406.7 488.494 404.18 489.432 402.305 491.248C400.43 493.064 399.346 495.621 399.053 498.917C400.738 496.983 403.038 496.016 405.953 496.016C408.736 496.016 410.955 496.998 412.61 498.96C414.28 500.923 415.115 503.458 415.115 506.563C415.115 509.859 414.214 512.496 412.413 514.473C410.625 516.451 408.223 517.439 405.206 517.439C402.144 517.439 399.661 516.268 397.757 513.924C395.853 511.565 394.9 508.533 394.9 504.827V503.267C394.9 497.378 396.153 492.881 398.658 489.776C401.177 486.656 404.92 485.059 409.886 484.986H410.611ZM405.271 499.4C403.88 499.4 402.598 499.817 401.426 500.652C400.254 501.487 399.441 502.535 398.987 503.794V505.289C398.987 507.925 399.581 510.049 400.767 511.661C401.954 513.272 403.433 514.078 405.206 514.078C407.037 514.078 408.472 513.404 409.512 512.056C410.567 510.708 411.094 508.943 411.094 506.761C411.094 504.563 410.56 502.791 409.49 501.443C408.436 500.081 407.029 499.4 405.271 499.4ZM421.795 500.96L423.421 485.008H439.812V488.765H426.871L425.904 497.488C427.471 496.565 429.251 496.104 431.243 496.104C434.158 496.104 436.473 497.071 438.187 499.004C439.9 500.923 440.757 503.523 440.757 506.805C440.757 510.101 439.864 512.701 438.077 514.605C436.304 516.495 433.821 517.439 430.628 517.439C427.801 517.439 425.494 516.656 423.707 515.088C421.919 513.521 420.901 511.353 420.652 508.584H424.498C424.747 510.416 425.398 511.8 426.453 512.737C427.508 513.66 428.899 514.122 430.628 514.122C432.518 514.122 433.997 513.477 435.066 512.188C436.15 510.899 436.692 509.119 436.692 506.849C436.692 504.71 436.106 502.996 434.935 501.707C433.777 500.403 432.232 499.751 430.298 499.751C428.526 499.751 427.134 500.14 426.124 500.916L425.047 501.795L421.795 500.96ZM444.844 491.16C444.844 489.241 445.452 487.659 446.668 486.414C447.898 485.169 449.473 484.546 451.392 484.546C453.34 484.546 454.915 485.176 456.116 486.436C457.332 487.681 457.94 489.3 457.94 491.292V492.852C457.94 494.786 457.325 496.368 456.094 497.598C454.878 498.814 453.326 499.422 451.436 499.422C449.532 499.422 447.957 498.814 446.712 497.598C445.467 496.368 444.844 494.734 444.844 492.698V491.16ZM447.876 492.852C447.876 493.995 448.199 494.939 448.843 495.687C449.488 496.419 450.352 496.785 451.436 496.785C452.476 496.785 453.311 496.426 453.941 495.708C454.585 494.991 454.908 494.009 454.908 492.764V491.16C454.908 490.018 454.593 489.073 453.963 488.326C453.333 487.579 452.476 487.205 451.392 487.205C450.308 487.205 449.451 487.579 448.821 488.326C448.191 489.073 447.876 490.047 447.876 491.248V492.852ZM460.423 509.156C460.423 507.237 461.031 505.662 462.247 504.432C463.477 503.187 465.052 502.564 466.971 502.564C468.89 502.564 470.464 503.179 471.695 504.41C472.925 505.64 473.541 507.273 473.541 509.31V510.87C473.541 512.789 472.925 514.371 471.695 515.616C470.479 516.846 468.919 517.461 467.015 517.461C465.11 517.461 463.536 516.854 462.291 515.638C461.045 514.407 460.423 512.774 460.423 510.738V509.156ZM463.455 510.87C463.455 512.027 463.777 512.979 464.422 513.726C465.066 514.458 465.931 514.825 467.015 514.825C468.069 514.825 468.912 514.466 469.542 513.748C470.171 513.016 470.486 512.027 470.486 510.782V509.156C470.486 507.999 470.164 507.054 469.52 506.321C468.89 505.589 468.04 505.223 466.971 505.223C465.931 505.223 465.081 505.589 464.422 506.321C463.777 507.039 463.455 508.013 463.455 509.244V510.87ZM452.359 514.583L450.052 513.133L465.674 488.128L467.981 489.578L452.359 514.583Z" fill="black"/>
<path d="M807.119 134H805.303V121.959L801.66 123.297V121.656L806.836 119.713H807.119V134ZM821.328 127.936C821.328 130.051 820.967 131.624 820.244 132.652C819.521 133.681 818.392 134.195 816.855 134.195C815.339 134.195 814.215 133.694 813.486 132.691C812.757 131.682 812.38 130.178 812.354 128.18V125.768C812.354 123.678 812.715 122.125 813.438 121.109C814.16 120.094 815.293 119.586 816.836 119.586C818.366 119.586 819.492 120.077 820.215 121.061C820.938 122.037 821.309 123.548 821.328 125.592V127.936ZM819.521 125.465C819.521 123.935 819.307 122.822 818.877 122.125C818.447 121.422 817.767 121.07 816.836 121.07C815.911 121.07 815.238 121.419 814.814 122.115C814.391 122.812 814.173 123.883 814.16 125.328V128.219C814.16 129.755 814.382 130.891 814.824 131.627C815.273 132.356 815.951 132.721 816.855 132.721C817.747 132.721 818.408 132.376 818.838 131.686C819.274 130.995 819.502 129.908 819.521 128.424V125.465ZM832.559 127.936C832.559 130.051 832.197 131.624 831.475 132.652C830.752 133.681 829.622 134.195 828.086 134.195C826.569 134.195 825.446 133.694 824.717 132.691C823.988 131.682 823.61 130.178 823.584 128.18V125.768C823.584 123.678 823.945 122.125 824.668 121.109C825.391 120.094 826.523 119.586 828.066 119.586C829.596 119.586 830.723 120.077 831.445 121.061C832.168 122.037 832.539 123.548 832.559 125.592V127.936ZM830.752 125.465C830.752 123.935 830.537 122.822 830.107 122.125C829.678 121.422 828.997 121.07 828.066 121.07C827.142 121.07 826.468 121.419 826.045 122.115C825.622 122.812 825.404 123.883 825.391 125.328V128.219C825.391 129.755 825.612 130.891 826.055 131.627C826.504 132.356 827.181 132.721 828.086 132.721C828.978 132.721 829.639 132.376 830.068 131.686C830.505 130.995 830.732 129.908 830.752 128.424V125.465ZM834.717 122.516C834.717 121.663 834.987 120.96 835.527 120.406C836.074 119.853 836.774 119.576 837.627 119.576C838.493 119.576 839.193 119.856 839.727 120.416C840.267 120.969 840.537 121.689 840.537 122.574V123.268C840.537 124.127 840.264 124.83 839.717 125.377C839.176 125.917 838.486 126.188 837.646 126.188C836.8 126.188 836.1 125.917 835.547 125.377C834.993 124.83 834.717 124.104 834.717 123.199V122.516ZM836.064 123.268C836.064 123.775 836.208 124.195 836.494 124.527C836.781 124.853 837.165 125.016 837.646 125.016C838.109 125.016 838.48 124.856 838.76 124.537C839.046 124.218 839.189 123.782 839.189 123.229V122.516C839.189 122.008 839.049 121.588 838.77 121.256C838.49 120.924 838.109 120.758 837.627 120.758C837.145 120.758 836.764 120.924 836.484 121.256C836.204 121.588 836.064 122.021 836.064 122.555V123.268ZM841.641 130.514C841.641 129.661 841.911 128.961 842.451 128.414C842.998 127.861 843.698 127.584 844.551 127.584C845.404 127.584 846.104 127.857 846.65 128.404C847.197 128.951 847.471 129.677 847.471 130.582V131.275C847.471 132.128 847.197 132.831 846.65 133.385C846.11 133.932 845.417 134.205 844.57 134.205C843.724 134.205 843.024 133.935 842.471 133.395C841.917 132.848 841.641 132.122 841.641 131.217V130.514ZM842.988 131.275C842.988 131.79 843.132 132.213 843.418 132.545C843.704 132.87 844.089 133.033 844.57 133.033C845.039 133.033 845.413 132.874 845.693 132.555C845.973 132.229 846.113 131.79 846.113 131.236V130.514C846.113 129.999 845.97 129.579 845.684 129.254C845.404 128.928 845.026 128.766 844.551 128.766C844.089 128.766 843.711 128.928 843.418 129.254C843.132 129.573 842.988 130.006 842.988 130.553V131.275ZM838.057 132.926L837.031 132.281L843.975 121.168L845 121.812L838.057 132.926Z" fill="black"/>
<path d="M807.119 343H805.303V330.959L801.66 332.297V330.656L806.836 328.713H807.119V343ZM821.328 336.936C821.328 339.051 820.967 340.624 820.244 341.652C819.521 342.681 818.392 343.195 816.855 343.195C815.339 343.195 814.215 342.694 813.486 341.691C812.757 340.682 812.38 339.178 812.354 337.18V334.768C812.354 332.678 812.715 331.125 813.438 330.109C814.16 329.094 815.293 328.586 816.836 328.586C818.366 328.586 819.492 329.077 820.215 330.061C820.938 331.037 821.309 332.548 821.328 334.592V336.936ZM819.521 334.465C819.521 332.935 819.307 331.822 818.877 331.125C818.447 330.422 817.767 330.07 816.836 330.07C815.911 330.07 815.238 330.419 814.814 331.115C814.391 331.812 814.173 332.883 814.16 334.328V337.219C814.16 338.755 814.382 339.891 814.824 340.627C815.273 341.356 815.951 341.721 816.855 341.721C817.747 341.721 818.408 341.376 818.838 340.686C819.274 339.995 819.502 338.908 819.521 337.424V334.465ZM832.559 336.936C832.559 339.051 832.197 340.624 831.475 341.652C830.752 342.681 829.622 343.195 828.086 343.195C826.569 343.195 825.446 342.694 824.717 341.691C823.988 340.682 823.61 339.178 823.584 337.18V334.768C823.584 332.678 823.945 331.125 824.668 330.109C825.391 329.094 826.523 328.586 828.066 328.586C829.596 328.586 830.723 329.077 831.445 330.061C832.168 331.037 832.539 332.548 832.559 334.592V336.936ZM830.752 334.465C830.752 332.935 830.537 331.822 830.107 331.125C829.678 330.422 828.997 330.07 828.066 330.07C827.142 330.07 826.468 330.419 826.045 331.115C825.622 331.812 825.404 332.883 825.391 334.328V337.219C825.391 338.755 825.612 339.891 826.055 340.627C826.504 341.356 827.181 341.721 828.086 341.721C828.978 341.721 829.639 341.376 830.068 340.686C830.505 339.995 830.732 338.908 830.752 337.424V334.465ZM834.717 331.516C834.717 330.663 834.987 329.96 835.527 329.406C836.074 328.853 836.774 328.576 837.627 328.576C838.493 328.576 839.193 328.856 839.727 329.416C840.267 329.969 840.537 330.689 840.537 331.574V332.268C840.537 333.127 840.264 333.83 839.717 334.377C839.176 334.917 838.486 335.188 837.646 335.188C836.8 335.188 836.1 334.917 835.547 334.377C834.993 333.83 834.717 333.104 834.717 332.199V331.516ZM836.064 332.268C836.064 332.775 836.208 333.195 836.494 333.527C836.781 333.853 837.165 334.016 837.646 334.016C838.109 334.016 838.48 333.856 838.76 333.537C839.046 333.218 839.189 332.782 839.189 332.229V331.516C839.189 331.008 839.049 330.588 838.77 330.256C838.49 329.924 838.109 329.758 837.627 329.758C837.145 329.758 836.764 329.924 836.484 330.256C836.204 330.588 836.064 331.021 836.064 331.555V332.268ZM841.641 339.514C841.641 338.661 841.911 337.961 842.451 337.414C842.998 336.861 843.698 336.584 844.551 336.584C845.404 336.584 846.104 336.857 846.65 337.404C847.197 337.951 847.471 338.677 847.471 339.582V340.275C847.471 341.128 847.197 341.831 846.65 342.385C846.11 342.932 845.417 343.205 844.57 343.205C843.724 343.205 843.024 342.935 842.471 342.395C841.917 341.848 841.641 341.122 841.641 340.217V339.514ZM842.988 340.275C842.988 340.79 843.132 341.213 843.418 341.545C843.704 341.87 844.089 342.033 844.57 342.033C845.039 342.033 845.413 341.874 845.693 341.555C845.973 341.229 846.113 340.79 846.113 340.236V339.514C846.113 338.999 845.97 338.579 845.684 338.254C845.404 337.928 845.026 337.766 844.551 337.766C844.089 337.766 843.711 337.928 843.418 338.254C843.132 338.573 842.988 339.006 842.988 339.553V340.275ZM838.057 341.926L837.031 341.281L843.975 330.168L845 330.812L838.057 341.926Z" fill="black"/>
<path d="M515 499C515 548.706 474.706 589 425 589C375.294 589 335 548.706 335 499C335 449.294 375.294 409 425 409C474.706 409 515 449.294 515 499Z" stroke="#EDEDED" stroke-width="15"/>
<mask id="mask0" mask-type="alpha" maskUnits="userSpaceOnUse" x="309" y="370" width="259" height="236">
<path d="M424 499.5V370L523 385.5L567.5 581.5L424 606L309 581.5L424 499.5Z" fill="black"/>
</mask>
<g mask="url(#mask0)">
<path d="M515 499C515 548.706 474.706 589 425 589C375.294 589 335 548.706 335 499C335 449.294 375.294 409 425 409C474.706 409 515 449.294 515 499Z" stroke="#5ABE8E" stroke-width="15" stroke-miterlimit="14.3356"/>
</g>
</g>
<defs>
<clipPath id="clip0">
<rect width="852" height="608" fill="white"/>
</clipPath>
</defs>
</svg>
