<svg width="852" height="608" viewBox="0 0 852 608" fill="none" xmlns="http://www.w3.org/2000/svg">
<g clip-path="url(#clip0)">
<rect width="852" height="608" fill="white"/>
<rect y="39" width="852" height="61" fill="#EDEDED"/>
<rect x="852" y="309" width="852" height="61" transform="rotate(180 852 309)" fill="#EDEDED"/>
<rect x="6" y="45" width="420" height="49" fill="#878787"/>
<rect x="426" y="45" width="420" height="49" fill="#BABABA"/>
<rect x="846" y="303" width="420" height="49" transform="rotate(180 846 303)" fill="#878787"/>
<rect x="426" y="303" width="420" height="49" transform="rotate(180 426 303)" fill="#BABABA"/>
<path d="M16.0977 127.936C16.0977 130.051 15.7363 131.624 15.0137 132.652C14.291 133.681 13.1615 134.195 11.625 134.195C10.1081 134.195 8.98503 133.694 8.25586 132.691C7.52669 131.682 7.14909 130.178 7.12305 128.18V125.768C7.12305 123.678 7.48438 122.125 8.20703 121.109C8.92969 120.094 10.0625 119.586 11.6055 119.586C13.1354 119.586 14.2617 120.077 14.9844 121.061C15.707 122.037 16.0781 123.548 16.0977 125.592V127.936ZM14.291 125.465C14.291 123.935 14.0762 122.822 13.6465 122.125C13.2168 121.422 12.5365 121.07 11.6055 121.07C10.681 121.07 10.0072 121.419 9.58398 122.115C9.16081 122.812 8.94271 123.883 8.92969 125.328V128.219C8.92969 129.755 9.15104 130.891 9.59375 131.627C10.043 132.356 10.7201 132.721 11.625 132.721C12.5169 132.721 13.1777 132.376 13.6074 131.686C14.0436 130.995 14.2715 129.908 14.291 128.424V125.465ZM18.2559 122.516C18.2559 121.663 18.526 120.96 19.0664 120.406C19.6133 119.853 20.3132 119.576 21.166 119.576C22.0319 119.576 22.7318 119.856 23.2656 120.416C23.806 120.969 24.0762 121.689 24.0762 122.574V123.268C24.0762 124.127 23.8027 124.83 23.2559 125.377C22.7155 125.917 22.0254 126.188 21.1855 126.188C20.3392 126.188 19.6393 125.917 19.0859 125.377C18.5326 124.83 18.2559 124.104 18.2559 123.199V122.516ZM19.6035 123.268C19.6035 123.775 19.7467 124.195 20.0332 124.527C20.3197 124.853 20.7038 125.016 21.1855 125.016C21.6478 125.016 22.0189 124.856 22.2988 124.537C22.5853 124.218 22.7285 123.782 22.7285 123.229V122.516C22.7285 122.008 22.5885 121.588 22.3086 121.256C22.0286 120.924 21.6478 120.758 21.166 120.758C20.6842 120.758 20.3034 120.924 20.0234 121.256C19.7435 121.588 19.6035 122.021 19.6035 122.555V123.268ZM25.1797 130.514C25.1797 129.661 25.4499 128.961 25.9902 128.414C26.5371 127.861 27.237 127.584 28.0898 127.584C28.9427 127.584 29.6426 127.857 30.1895 128.404C30.7363 128.951 31.0098 129.677 31.0098 130.582V131.275C31.0098 132.128 30.7363 132.831 30.1895 133.385C29.6491 133.932 28.9557 134.205 28.1094 134.205C27.263 134.205 26.5632 133.935 26.0098 133.395C25.4564 132.848 25.1797 132.122 25.1797 131.217V130.514ZM26.5273 131.275C26.5273 131.79 26.6706 132.213 26.957 132.545C27.2435 132.87 27.6276 133.033 28.1094 133.033C28.5781 133.033 28.9525 132.874 29.2324 132.555C29.5124 132.229 29.6523 131.79 29.6523 131.236V130.514C29.6523 129.999 29.5091 129.579 29.2227 129.254C28.9427 128.928 28.5651 128.766 28.0898 128.766C27.6276 128.766 27.25 128.928 26.957 129.254C26.6706 129.573 26.5273 130.006 26.5273 130.553V131.275ZM21.5957 132.926L20.5703 132.281L27.5137 121.168L28.5391 121.812L21.5957 132.926Z" fill="black"/>
<path d="M16.0977 336.936C16.0977 339.051 15.7363 340.624 15.0137 341.652C14.291 342.681 13.1615 343.195 11.625 343.195C10.1081 343.195 8.98503 342.694 8.25586 341.691C7.52669 340.682 7.14909 339.178 7.12305 337.18V334.768C7.12305 332.678 7.48438 331.125 8.20703 330.109C8.92969 329.094 10.0625 328.586 11.6055 328.586C13.1354 328.586 14.2617 329.077 14.9844 330.061C15.707 331.037 16.0781 332.548 16.0977 334.592V336.936ZM14.291 334.465C14.291 332.935 14.0762 331.822 13.6465 331.125C13.2168 330.422 12.5365 330.07 11.6055 330.07C10.681 330.07 10.0072 330.419 9.58398 331.115C9.16081 331.812 8.94271 332.883 8.92969 334.328V337.219C8.92969 338.755 9.15104 339.891 9.59375 340.627C10.043 341.356 10.7201 341.721 11.625 341.721C12.5169 341.721 13.1777 341.376 13.6074 340.686C14.0436 339.995 14.2715 338.908 14.291 337.424V334.465ZM18.2559 331.516C18.2559 330.663 18.526 329.96 19.0664 329.406C19.6133 328.853 20.3132 328.576 21.166 328.576C22.0319 328.576 22.7318 328.856 23.2656 329.416C23.806 329.969 24.0762 330.689 24.0762 331.574V332.268C24.0762 333.127 23.8027 333.83 23.2559 334.377C22.7155 334.917 22.0254 335.188 21.1855 335.188C20.3392 335.188 19.6393 334.917 19.0859 334.377C18.5326 333.83 18.2559 333.104 18.2559 332.199V331.516ZM19.6035 332.268C19.6035 332.775 19.7467 333.195 20.0332 333.527C20.3197 333.853 20.7038 334.016 21.1855 334.016C21.6478 334.016 22.0189 333.856 22.2988 333.537C22.5853 333.218 22.7285 332.782 22.7285 332.229V331.516C22.7285 331.008 22.5885 330.588 22.3086 330.256C22.0286 329.924 21.6478 329.758 21.166 329.758C20.6842 329.758 20.3034 329.924 20.0234 330.256C19.7435 330.588 19.6035 331.021 19.6035 331.555V332.268ZM25.1797 339.514C25.1797 338.661 25.4499 337.961 25.9902 337.414C26.5371 336.861 27.237 336.584 28.0898 336.584C28.9427 336.584 29.6426 336.857 30.1895 337.404C30.7363 337.951 31.0098 338.677 31.0098 339.582V340.275C31.0098 341.128 30.7363 341.831 30.1895 342.385C29.6491 342.932 28.9557 343.205 28.1094 343.205C27.263 343.205 26.5632 342.935 26.0098 342.395C25.4564 341.848 25.1797 341.122 25.1797 340.217V339.514ZM26.5273 340.275C26.5273 340.79 26.6706 341.213 26.957 341.545C27.2435 341.87 27.6276 342.033 28.1094 342.033C28.5781 342.033 28.9525 341.874 29.2324 341.555C29.5124 341.229 29.6523 340.79 29.6523 340.236V339.514C29.6523 338.999 29.5091 338.579 29.2227 338.254C28.9427 337.928 28.5651 337.766 28.0898 337.766C27.6276 337.766 27.25 337.928 26.957 338.254C26.6706 338.573 26.5273 339.006 26.5273 339.553V340.275ZM21.5957 341.926L20.5703 341.281L27.5137 330.168L28.5391 330.812L21.5957 341.926Z" fill="black"/>
<path d="M11.0391 19.1758H18.5039V22H7.52344V4.9375H11.0391V19.1758ZM30.9609 7.78516H25.7344V22H22.2188V7.78516H17.0625V4.9375H30.9609V7.78516ZM39.293 15.7539H36.4922V22H32.9766V4.9375H39.3164C41.332 4.9375 42.8867 5.38672 43.9805 6.28516C45.0742 7.18359 45.6211 8.45312 45.6211 10.0938C45.6211 11.2578 45.3672 12.2305 44.8594 13.0117C44.3594 13.7852 43.5977 14.4023 42.5742 14.8633L46.2656 21.8359V22H42.4922L39.293 15.7539ZM36.4922 12.9062H39.3281C40.2109 12.9062 40.8945 12.6836 41.3789 12.2383C41.8633 11.7852 42.1055 11.1641 42.1055 10.375C42.1055 9.57031 41.875 8.9375 41.4141 8.47656C40.9609 8.01562 40.2617 7.78516 39.3164 7.78516H36.4922V12.9062Z" fill="black"/>
<path d="M13.8398 224.754H11.0391V231H7.52344V213.938H13.8633C15.8789 213.938 17.4336 214.387 18.5273 215.285C19.6211 216.184 20.168 217.453 20.168 219.094C20.168 220.258 19.9141 221.23 19.4062 222.012C18.9062 222.785 18.1445 223.402 17.1211 223.863L20.8125 230.836V231H17.0391L13.8398 224.754ZM11.0391 221.906H13.875C14.7578 221.906 15.4414 221.684 15.9258 221.238C16.4102 220.785 16.6523 220.164 16.6523 219.375C16.6523 218.57 16.4219 217.938 15.9609 217.477C15.5078 217.016 14.8086 216.785 13.8633 216.785H11.0391V221.906ZM35.1094 216.785H29.8828V231H26.3672V216.785H21.2109V213.938H35.1094V216.785ZM40.6406 228.176H48.1055V231H37.125V213.938H40.6406V228.176Z" fill="black"/>
<path d="M409.012 126.871L409.734 119.781H417.02V121.451H411.268L410.838 125.328C411.535 124.918 412.326 124.713 413.211 124.713C414.507 124.713 415.535 125.143 416.297 126.002C417.059 126.855 417.439 128.01 417.439 129.469C417.439 130.934 417.042 132.089 416.248 132.936C415.46 133.775 414.357 134.195 412.938 134.195C411.681 134.195 410.656 133.847 409.861 133.15C409.067 132.454 408.615 131.49 408.504 130.26H410.213C410.324 131.074 410.613 131.689 411.082 132.105C411.551 132.516 412.169 132.721 412.938 132.721C413.777 132.721 414.435 132.434 414.91 131.861C415.392 131.288 415.633 130.497 415.633 129.488C415.633 128.538 415.372 127.776 414.852 127.203C414.337 126.624 413.65 126.334 412.791 126.334C412.003 126.334 411.385 126.507 410.936 126.852L410.457 127.242L409.012 126.871ZM428.328 127.936C428.328 130.051 427.967 131.624 427.244 132.652C426.521 133.681 425.392 134.195 423.855 134.195C422.339 134.195 421.215 133.694 420.486 132.691C419.757 131.682 419.38 130.178 419.354 128.18V125.768C419.354 123.678 419.715 122.125 420.438 121.109C421.16 120.094 422.293 119.586 423.836 119.586C425.366 119.586 426.492 120.077 427.215 121.061C427.938 122.037 428.309 123.548 428.328 125.592V127.936ZM426.521 125.465C426.521 123.935 426.307 122.822 425.877 122.125C425.447 121.422 424.767 121.07 423.836 121.07C422.911 121.07 422.238 121.419 421.814 122.115C421.391 122.812 421.173 123.883 421.16 125.328V128.219C421.16 129.755 421.382 130.891 421.824 131.627C422.273 132.356 422.951 132.721 423.855 132.721C424.747 132.721 425.408 132.376 425.838 131.686C426.274 130.995 426.502 129.908 426.521 128.424V125.465ZM430.486 122.516C430.486 121.663 430.757 120.96 431.297 120.406C431.844 119.853 432.544 119.576 433.396 119.576C434.262 119.576 434.962 119.856 435.496 120.416C436.036 120.969 436.307 121.689 436.307 122.574V123.268C436.307 124.127 436.033 124.83 435.486 125.377C434.946 125.917 434.256 126.188 433.416 126.188C432.57 126.188 431.87 125.917 431.316 125.377C430.763 124.83 430.486 124.104 430.486 123.199V122.516ZM431.834 123.268C431.834 123.775 431.977 124.195 432.264 124.527C432.55 124.853 432.934 125.016 433.416 125.016C433.878 125.016 434.249 124.856 434.529 124.537C434.816 124.218 434.959 123.782 434.959 123.229V122.516C434.959 122.008 434.819 121.588 434.539 121.256C434.259 120.924 433.878 120.758 433.396 120.758C432.915 120.758 432.534 120.924 432.254 121.256C431.974 121.588 431.834 122.021 431.834 122.555V123.268ZM437.41 130.514C437.41 129.661 437.68 128.961 438.221 128.414C438.768 127.861 439.467 127.584 440.32 127.584C441.173 127.584 441.873 127.857 442.42 128.404C442.967 128.951 443.24 129.677 443.24 130.582V131.275C443.24 132.128 442.967 132.831 442.42 133.385C441.88 133.932 441.186 134.205 440.34 134.205C439.493 134.205 438.794 133.935 438.24 133.395C437.687 132.848 437.41 132.122 437.41 131.217V130.514ZM438.758 131.275C438.758 131.79 438.901 132.213 439.188 132.545C439.474 132.87 439.858 133.033 440.34 133.033C440.809 133.033 441.183 132.874 441.463 132.555C441.743 132.229 441.883 131.79 441.883 131.236V130.514C441.883 129.999 441.74 129.579 441.453 129.254C441.173 128.928 440.796 128.766 440.32 128.766C439.858 128.766 439.48 128.928 439.188 129.254C438.901 129.573 438.758 130.006 438.758 130.553V131.275ZM433.826 132.926L432.801 132.281L439.744 121.168L440.77 121.812L433.826 132.926Z" fill="black"/>
<path d="M409.012 335.871L409.734 328.781H417.02V330.451H411.268L410.838 334.328C411.535 333.918 412.326 333.713 413.211 333.713C414.507 333.713 415.535 334.143 416.297 335.002C417.059 335.855 417.439 337.01 417.439 338.469C417.439 339.934 417.042 341.089 416.248 341.936C415.46 342.775 414.357 343.195 412.938 343.195C411.681 343.195 410.656 342.847 409.861 342.15C409.067 341.454 408.615 340.49 408.504 339.26H410.213C410.324 340.074 410.613 340.689 411.082 341.105C411.551 341.516 412.169 341.721 412.938 341.721C413.777 341.721 414.435 341.434 414.91 340.861C415.392 340.288 415.633 339.497 415.633 338.488C415.633 337.538 415.372 336.776 414.852 336.203C414.337 335.624 413.65 335.334 412.791 335.334C412.003 335.334 411.385 335.507 410.936 335.852L410.457 336.242L409.012 335.871ZM428.328 336.936C428.328 339.051 427.967 340.624 427.244 341.652C426.521 342.681 425.392 343.195 423.855 343.195C422.339 343.195 421.215 342.694 420.486 341.691C419.757 340.682 419.38 339.178 419.354 337.18V334.768C419.354 332.678 419.715 331.125 420.438 330.109C421.16 329.094 422.293 328.586 423.836 328.586C425.366 328.586 426.492 329.077 427.215 330.061C427.938 331.037 428.309 332.548 428.328 334.592V336.936ZM426.521 334.465C426.521 332.935 426.307 331.822 425.877 331.125C425.447 330.422 424.767 330.07 423.836 330.07C422.911 330.07 422.238 330.419 421.814 331.115C421.391 331.812 421.173 332.883 421.16 334.328V337.219C421.16 338.755 421.382 339.891 421.824 340.627C422.273 341.356 422.951 341.721 423.855 341.721C424.747 341.721 425.408 341.376 425.838 340.686C426.274 339.995 426.502 338.908 426.521 337.424V334.465ZM430.486 331.516C430.486 330.663 430.757 329.96 431.297 329.406C431.844 328.853 432.544 328.576 433.396 328.576C434.262 328.576 434.962 328.856 435.496 329.416C436.036 329.969 436.307 330.689 436.307 331.574V332.268C436.307 333.127 436.033 333.83 435.486 334.377C434.946 334.917 434.256 335.188 433.416 335.188C432.57 335.188 431.87 334.917 431.316 334.377C430.763 333.83 430.486 333.104 430.486 332.199V331.516ZM431.834 332.268C431.834 332.775 431.977 333.195 432.264 333.527C432.55 333.853 432.934 334.016 433.416 334.016C433.878 334.016 434.249 333.856 434.529 333.537C434.816 333.218 434.959 332.782 434.959 332.229V331.516C434.959 331.008 434.819 330.588 434.539 330.256C434.259 329.924 433.878 329.758 433.396 329.758C432.915 329.758 432.534 329.924 432.254 330.256C431.974 330.588 431.834 331.021 431.834 331.555V332.268ZM437.41 339.514C437.41 338.661 437.68 337.961 438.221 337.414C438.768 336.861 439.467 336.584 440.32 336.584C441.173 336.584 441.873 336.857 442.42 337.404C442.967 337.951 443.24 338.677 443.24 339.582V340.275C443.24 341.128 442.967 341.831 442.42 342.385C441.88 342.932 441.186 343.205 440.34 343.205C439.493 343.205 438.794 342.935 438.24 342.395C437.687 341.848 437.41 341.122 437.41 340.217V339.514ZM438.758 340.275C438.758 340.79 438.901 341.213 439.188 341.545C439.474 341.87 439.858 342.033 440.34 342.033C440.809 342.033 441.183 341.874 441.463 341.555C441.743 341.229 441.883 340.79 441.883 340.236V339.514C441.883 338.999 441.74 338.579 441.453 338.254C441.173 337.928 440.796 337.766 440.32 337.766C439.858 337.766 439.48 337.928 439.188 338.254C438.901 338.573 438.758 339.006 438.758 339.553V340.275ZM433.826 341.926L432.801 341.281L439.744 330.168L440.77 330.812L433.826 341.926Z" fill="black"/>
<path d="M396.526 500.96L398.152 485.008H414.544V488.765H401.602L400.635 497.488C402.203 496.565 403.982 496.104 405.975 496.104C408.89 496.104 411.204 497.071 412.918 499.004C414.632 500.923 415.489 503.523 415.489 506.805C415.489 510.101 414.595 512.701 412.808 514.605C411.036 516.495 408.553 517.439 405.359 517.439C402.532 517.439 400.225 516.656 398.438 515.088C396.651 513.521 395.633 511.353 395.384 508.584H399.229C399.478 510.416 400.13 511.8 401.185 512.737C402.239 513.66 403.631 514.122 405.359 514.122C407.249 514.122 408.729 513.477 409.798 512.188C410.882 510.899 411.424 509.119 411.424 506.849C411.424 504.71 410.838 502.996 409.666 501.707C408.509 500.403 406.963 499.751 405.03 499.751C403.257 499.751 401.866 500.14 400.855 500.916L399.778 501.795L396.526 500.96ZM439.988 503.355C439.988 508.116 439.175 511.653 437.549 513.968C435.923 516.282 433.382 517.439 429.925 517.439C426.512 517.439 423.985 516.312 422.344 514.056C420.704 511.785 419.854 508.401 419.795 503.904V498.477C419.795 493.775 420.608 490.281 422.234 487.996C423.86 485.711 426.409 484.568 429.881 484.568C433.323 484.568 435.857 485.674 437.483 487.886C439.109 490.083 439.944 493.482 439.988 498.082V503.355ZM435.923 497.796C435.923 494.354 435.44 491.849 434.473 490.281C433.506 488.699 431.976 487.908 429.881 487.908C427.801 487.908 426.285 488.692 425.333 490.259C424.38 491.827 423.89 494.236 423.86 497.488V503.992C423.86 507.449 424.358 510.005 425.354 511.661C426.365 513.301 427.889 514.122 429.925 514.122C431.932 514.122 433.418 513.345 434.385 511.792C435.367 510.24 435.879 507.793 435.923 504.454V497.796ZM444.844 491.16C444.844 489.241 445.452 487.659 446.668 486.414C447.898 485.169 449.473 484.546 451.392 484.546C453.34 484.546 454.915 485.176 456.116 486.436C457.332 487.681 457.94 489.3 457.94 491.292V492.852C457.94 494.786 457.325 496.368 456.094 497.598C454.878 498.814 453.326 499.422 451.436 499.422C449.532 499.422 447.957 498.814 446.712 497.598C445.467 496.368 444.844 494.734 444.844 492.698V491.16ZM447.876 492.852C447.876 493.995 448.199 494.939 448.843 495.687C449.488 496.419 450.352 496.785 451.436 496.785C452.476 496.785 453.311 496.426 453.941 495.708C454.585 494.991 454.908 494.009 454.908 492.764V491.16C454.908 490.018 454.593 489.073 453.963 488.326C453.333 487.579 452.476 487.205 451.392 487.205C450.308 487.205 449.451 487.579 448.821 488.326C448.191 489.073 447.876 490.047 447.876 491.248V492.852ZM460.423 509.156C460.423 507.237 461.031 505.662 462.247 504.432C463.477 503.187 465.052 502.564 466.971 502.564C468.89 502.564 470.464 503.179 471.695 504.41C472.925 505.64 473.541 507.273 473.541 509.31V510.87C473.541 512.789 472.925 514.371 471.695 515.616C470.479 516.846 468.919 517.461 467.015 517.461C465.11 517.461 463.536 516.854 462.291 515.638C461.045 514.407 460.423 512.774 460.423 510.738V509.156ZM463.455 510.87C463.455 512.027 463.777 512.979 464.422 513.726C465.066 514.458 465.931 514.825 467.015 514.825C468.069 514.825 468.912 514.466 469.542 513.748C470.171 513.016 470.486 512.027 470.486 510.782V509.156C470.486 507.999 470.164 507.054 469.52 506.321C468.89 505.589 468.04 505.223 466.971 505.223C465.931 505.223 465.081 505.589 464.422 506.321C463.777 507.039 463.455 508.013 463.455 509.244V510.87ZM452.359 514.583L450.052 513.133L465.674 488.128L467.981 489.578L452.359 514.583Z" fill="black"/>
<path d="M807.119 134H805.303V121.959L801.66 123.297V121.656L806.836 119.713H807.119V134ZM821.328 127.936C821.328 130.051 820.967 131.624 820.244 132.652C819.521 133.681 818.392 134.195 816.855 134.195C815.339 134.195 814.215 133.694 813.486 132.691C812.757 131.682 812.38 130.178 812.354 128.18V125.768C812.354 123.678 812.715 122.125 813.438 121.109C814.16 120.094 815.293 119.586 816.836 119.586C818.366 119.586 819.492 120.077 820.215 121.061C820.938 122.037 821.309 123.548 821.328 125.592V127.936ZM819.521 125.465C819.521 123.935 819.307 122.822 818.877 122.125C818.447 121.422 817.767 121.07 816.836 121.07C815.911 121.07 815.238 121.419 814.814 122.115C814.391 122.812 814.173 123.883 814.16 125.328V128.219C814.16 129.755 814.382 130.891 814.824 131.627C815.273 132.356 815.951 132.721 816.855 132.721C817.747 132.721 818.408 132.376 818.838 131.686C819.274 130.995 819.502 129.908 819.521 128.424V125.465ZM832.559 127.936C832.559 130.051 832.197 131.624 831.475 132.652C830.752 133.681 829.622 134.195 828.086 134.195C826.569 134.195 825.446 133.694 824.717 132.691C823.988 131.682 823.61 130.178 823.584 128.18V125.768C823.584 123.678 823.945 122.125 824.668 121.109C825.391 120.094 826.523 119.586 828.066 119.586C829.596 119.586 830.723 120.077 831.445 121.061C832.168 122.037 832.539 123.548 832.559 125.592V127.936ZM830.752 125.465C830.752 123.935 830.537 122.822 830.107 122.125C829.678 121.422 828.997 121.07 828.066 121.07C827.142 121.07 826.468 121.419 826.045 122.115C825.622 122.812 825.404 123.883 825.391 125.328V128.219C825.391 129.755 825.612 130.891 826.055 131.627C826.504 132.356 827.181 132.721 828.086 132.721C828.978 132.721 829.639 132.376 830.068 131.686C830.505 130.995 830.732 129.908 830.752 128.424V125.465ZM834.717 122.516C834.717 121.663 834.987 120.96 835.527 120.406C836.074 119.853 836.774 119.576 837.627 119.576C838.493 119.576 839.193 119.856 839.727 120.416C840.267 120.969 840.537 121.689 840.537 122.574V123.268C840.537 124.127 840.264 124.83 839.717 125.377C839.176 125.917 838.486 126.188 837.646 126.188C836.8 126.188 836.1 125.917 835.547 125.377C834.993 124.83 834.717 124.104 834.717 123.199V122.516ZM836.064 123.268C836.064 123.775 836.208 124.195 836.494 124.527C836.781 124.853 837.165 125.016 837.646 125.016C838.109 125.016 838.48 124.856 838.76 124.537C839.046 124.218 839.189 123.782 839.189 123.229V122.516C839.189 122.008 839.049 121.588 838.77 121.256C838.49 120.924 838.109 120.758 837.627 120.758C837.145 120.758 836.764 120.924 836.484 121.256C836.204 121.588 836.064 122.021 836.064 122.555V123.268ZM841.641 130.514C841.641 129.661 841.911 128.961 842.451 128.414C842.998 127.861 843.698 127.584 844.551 127.584C845.404 127.584 846.104 127.857 846.65 128.404C847.197 128.951 847.471 129.677 847.471 130.582V131.275C847.471 132.128 847.197 132.831 846.65 133.385C846.11 133.932 845.417 134.205 844.57 134.205C843.724 134.205 843.024 133.935 842.471 133.395C841.917 132.848 841.641 132.122 841.641 131.217V130.514ZM842.988 131.275C842.988 131.79 843.132 132.213 843.418 132.545C843.704 132.87 844.089 133.033 844.57 133.033C845.039 133.033 845.413 132.874 845.693 132.555C845.973 132.229 846.113 131.79 846.113 131.236V130.514C846.113 129.999 845.97 129.579 845.684 129.254C845.404 128.928 845.026 128.766 844.551 128.766C844.089 128.766 843.711 128.928 843.418 129.254C843.132 129.573 842.988 130.006 842.988 130.553V131.275ZM838.057 132.926L837.031 132.281L843.975 121.168L845 121.812L838.057 132.926Z" fill="black"/>
<path d="M807.119 343H805.303V330.959L801.66 332.297V330.656L806.836 328.713H807.119V343ZM821.328 336.936C821.328 339.051 820.967 340.624 820.244 341.652C819.521 342.681 818.392 343.195 816.855 343.195C815.339 343.195 814.215 342.694 813.486 341.691C812.757 340.682 812.38 339.178 812.354 337.18V334.768C812.354 332.678 812.715 331.125 813.438 330.109C814.16 329.094 815.293 328.586 816.836 328.586C818.366 328.586 819.492 329.077 820.215 330.061C820.938 331.037 821.309 332.548 821.328 334.592V336.936ZM819.521 334.465C819.521 332.935 819.307 331.822 818.877 331.125C818.447 330.422 817.767 330.07 816.836 330.07C815.911 330.07 815.238 330.419 814.814 331.115C814.391 331.812 814.173 332.883 814.16 334.328V337.219C814.16 338.755 814.382 339.891 814.824 340.627C815.273 341.356 815.951 341.721 816.855 341.721C817.747 341.721 818.408 341.376 818.838 340.686C819.274 339.995 819.502 338.908 819.521 337.424V334.465ZM832.559 336.936C832.559 339.051 832.197 340.624 831.475 341.652C830.752 342.681 829.622 343.195 828.086 343.195C826.569 343.195 825.446 342.694 824.717 341.691C823.988 340.682 823.61 339.178 823.584 337.18V334.768C823.584 332.678 823.945 331.125 824.668 330.109C825.391 329.094 826.523 328.586 828.066 328.586C829.596 328.586 830.723 329.077 831.445 330.061C832.168 331.037 832.539 332.548 832.559 334.592V336.936ZM830.752 334.465C830.752 332.935 830.537 331.822 830.107 331.125C829.678 330.422 828.997 330.07 828.066 330.07C827.142 330.07 826.468 330.419 826.045 331.115C825.622 331.812 825.404 332.883 825.391 334.328V337.219C825.391 338.755 825.612 339.891 826.055 340.627C826.504 341.356 827.181 341.721 828.086 341.721C828.978 341.721 829.639 341.376 830.068 340.686C830.505 339.995 830.732 338.908 830.752 337.424V334.465ZM834.717 331.516C834.717 330.663 834.987 329.96 835.527 329.406C836.074 328.853 836.774 328.576 837.627 328.576C838.493 328.576 839.193 328.856 839.727 329.416C840.267 329.969 840.537 330.689 840.537 331.574V332.268C840.537 333.127 840.264 333.83 839.717 334.377C839.176 334.917 838.486 335.188 837.646 335.188C836.8 335.188 836.1 334.917 835.547 334.377C834.993 333.83 834.717 333.104 834.717 332.199V331.516ZM836.064 332.268C836.064 332.775 836.208 333.195 836.494 333.527C836.781 333.853 837.165 334.016 837.646 334.016C838.109 334.016 838.48 333.856 838.76 333.537C839.046 333.218 839.189 332.782 839.189 332.229V331.516C839.189 331.008 839.049 330.588 838.77 330.256C838.49 329.924 838.109 329.758 837.627 329.758C837.145 329.758 836.764 329.924 836.484 330.256C836.204 330.588 836.064 331.021 836.064 331.555V332.268ZM841.641 339.514C841.641 338.661 841.911 337.961 842.451 337.414C842.998 336.861 843.698 336.584 844.551 336.584C845.404 336.584 846.104 336.857 846.65 337.404C847.197 337.951 847.471 338.677 847.471 339.582V340.275C847.471 341.128 847.197 341.831 846.65 342.385C846.11 342.932 845.417 343.205 844.57 343.205C843.724 343.205 843.024 342.935 842.471 342.395C841.917 341.848 841.641 341.122 841.641 340.217V339.514ZM842.988 340.275C842.988 340.79 843.132 341.213 843.418 341.545C843.704 341.87 844.089 342.033 844.57 342.033C845.039 342.033 845.413 341.874 845.693 341.555C845.973 341.229 846.113 340.79 846.113 340.236V339.514C846.113 338.999 845.97 338.579 845.684 338.254C845.404 337.928 845.026 337.766 844.551 337.766C844.089 337.766 843.711 337.928 843.418 338.254C843.132 338.573 842.988 339.006 842.988 339.553V340.275ZM838.057 341.926L837.031 341.281L843.975 330.168L845 330.812L838.057 341.926Z" fill="black"/>
<path d="M515 499C515 548.706 474.706 589 425 589C375.294 589 335 548.706 335 499C335 449.294 375.294 409 425 409C474.706 409 515 449.294 515 499Z" stroke="#BABABA" stroke-width="15"/>
<mask id="mask0" mask-type="alpha" maskUnits="userSpaceOnUse" x="424" y="370" width="144" height="290">
<path d="M424 499.5V370L523 385.5L567.5 581.5L424 606V499.5Z" fill="black"/>
</mask>
<g mask="url(#mask0)">
<path d="M515 499C515 548.706 474.706 589 425 589C375.294 589 335 548.706 335 499C335 449.294 375.294 409 425 409C474.706 409 515 449.294 515 499Z" stroke="#878787" stroke-width="15" stroke-miterlimit="14.3356"/>
</g>
</g>
<defs>
<clipPath id="clip0">
<rect width="852" height="608" fill="white"/>
</clipPath>
</defs>
</svg>
