<svg width="319" height="88" viewBox="0 0 319 88" fill="none" xmlns="http://www.w3.org/2000/svg">
<rect width="319" height="88" rx="12" fill="white"/>
<path d="M75.616 27.2V24.528H77.968C78.192 24.528 78.4053 24.5493 78.608 24.592C78.8213 24.624 79.008 24.688 79.168 24.784C79.328 24.88 79.456 25.0133 79.552 25.184C79.648 25.3547 79.696 25.5733 79.696 25.84C79.696 26.32 79.552 26.6667 79.264 26.88C78.976 27.0933 78.608 27.2 78.16 27.2H75.616ZM73.104 22.576V34H78.64C79.152 34 79.648 33.936 80.128 33.808C80.6187 33.68 81.0507 33.4827 81.424 33.216C81.808 32.9493 82.112 32.608 82.336 32.192C82.56 31.7653 82.672 31.264 82.672 30.688C82.672 29.9733 82.496 29.3653 82.144 28.864C81.8027 28.352 81.28 27.9947 80.576 27.792C81.088 27.5467 81.472 27.232 81.728 26.848C81.9947 26.464 82.128 25.984 82.128 25.408C82.128 24.8747 82.0373 24.4267 81.856 24.064C81.6853 23.7013 81.44 23.4133 81.12 23.2C80.8 22.976 80.416 22.816 79.968 22.72C79.52 22.624 79.024 22.576 78.48 22.576H73.104ZM75.616 32.048V28.912H78.352C78.896 28.912 79.3333 29.04 79.664 29.296C79.9947 29.5413 80.16 29.9573 80.16 30.544C80.16 30.8427 80.1067 31.088 80 31.28C79.904 31.472 79.7707 31.6267 79.6 31.744C79.4293 31.8507 79.232 31.9307 79.008 31.984C78.784 32.0267 78.5493 32.048 78.304 32.048H75.616ZM86.4656 24.448V22.576H84.1936V24.448H86.4656ZM84.1936 25.728V34H86.4656V25.728H84.1936ZM91.1346 25.728V23.248H88.8626V25.728H87.4866V27.248H88.8626V32.128C88.8626 32.544 88.932 32.88 89.0706 33.136C89.2093 33.392 89.396 33.5893 89.6306 33.728C89.876 33.8667 90.1533 33.9573 90.4626 34C90.7826 34.0533 91.1186 34.08 91.4706 34.08C91.6946 34.08 91.924 34.0747 92.1586 34.064C92.3933 34.0533 92.6066 34.032 92.7986 34V32.24C92.692 32.2613 92.58 32.2773 92.4626 32.288C92.3453 32.2987 92.2226 32.304 92.0946 32.304C91.7106 32.304 91.4546 32.24 91.3266 32.112C91.1986 31.984 91.1346 31.728 91.1346 31.344V27.248H92.7986V25.728H91.1346ZM96.7596 25.728V23.248H94.4876V25.728H93.1116V27.248H94.4876V32.128C94.4876 32.544 94.557 32.88 94.6956 33.136C94.8343 33.392 95.021 33.5893 95.2556 33.728C95.501 33.8667 95.7783 33.9573 96.0876 34C96.4076 34.0533 96.7436 34.08 97.0956 34.08C97.3196 34.08 97.549 34.0747 97.7836 34.064C98.0183 34.0533 98.2316 34.032 98.4236 34V32.24C98.317 32.2613 98.205 32.2773 98.0876 32.288C97.9703 32.2987 97.8476 32.304 97.7196 32.304C97.3356 32.304 97.0796 32.24 96.9516 32.112C96.8236 31.984 96.7596 31.728 96.7596 31.344V27.248H98.4236V25.728H96.7596ZM105.073 28.976H101.377C101.387 28.816 101.419 28.6347 101.473 28.432C101.537 28.2293 101.638 28.0373 101.777 27.856C101.926 27.6747 102.118 27.5253 102.353 27.408C102.598 27.28 102.902 27.216 103.265 27.216C103.819 27.216 104.23 27.3653 104.497 27.664C104.774 27.9627 104.966 28.4 105.073 28.976ZM101.377 30.416H107.345C107.387 29.776 107.334 29.1627 107.185 28.576C107.035 27.9893 106.79 27.4667 106.449 27.008C106.118 26.5493 105.691 26.1867 105.169 25.92C104.646 25.6427 104.033 25.504 103.329 25.504C102.699 25.504 102.123 25.616 101.601 25.84C101.089 26.064 100.646 26.3733 100.273 26.768C99.8993 27.152 99.6113 27.6107 99.4086 28.144C99.206 28.6773 99.1046 29.2533 99.1046 29.872C99.1046 30.512 99.2006 31.0987 99.3926 31.632C99.5953 32.1653 99.878 32.624 100.241 33.008C100.603 33.392 101.046 33.6907 101.569 33.904C102.091 34.1067 102.678 34.208 103.329 34.208C104.267 34.208 105.067 33.9947 105.729 33.568C106.39 33.1413 106.881 32.432 107.201 31.44H105.201C105.126 31.696 104.923 31.9413 104.593 32.176C104.262 32.4 103.867 32.512 103.409 32.512C102.769 32.512 102.278 32.3467 101.937 32.016C101.595 31.6853 101.409 31.152 101.377 30.416ZM118.713 28.976H115.017C115.028 28.816 115.06 28.6347 115.113 28.432C115.177 28.2293 115.279 28.0373 115.417 27.856C115.567 27.6747 115.759 27.5253 115.993 27.408C116.239 27.28 116.543 27.216 116.905 27.216C117.46 27.216 117.871 27.3653 118.137 27.664C118.415 27.9627 118.607 28.4 118.713 28.976ZM115.017 30.416H120.985C121.028 29.776 120.975 29.1627 120.825 28.576C120.676 27.9893 120.431 27.4667 120.089 27.008C119.759 26.5493 119.332 26.1867 118.809 25.92C118.287 25.6427 117.673 25.504 116.969 25.504C116.34 25.504 115.764 25.616 115.241 25.84C114.729 26.064 114.287 26.3733 113.913 26.768C113.54 27.152 113.252 27.6107 113.049 28.144C112.847 28.6773 112.745 29.2533 112.745 29.872C112.745 30.512 112.841 31.0987 113.033 31.632C113.236 32.1653 113.519 32.624 113.881 33.008C114.244 33.392 114.687 33.6907 115.209 33.904C115.732 34.1067 116.319 34.208 116.969 34.208C117.908 34.208 118.708 33.9947 119.369 33.568C120.031 33.1413 120.521 32.432 120.841 31.44H118.841C118.767 31.696 118.564 31.9413 118.233 32.176C117.903 32.4 117.508 32.512 117.049 32.512C116.409 32.512 115.919 32.3467 115.577 32.016C115.236 31.6853 115.049 31.152 115.017 30.416ZM124.669 24.448V22.576H122.397V24.448H124.669ZM122.397 25.728V34H124.669V25.728H122.397ZM126.458 25.728V34H128.73V29.664C128.73 28.8213 128.868 28.2187 129.146 27.856C129.423 27.4827 129.871 27.296 130.49 27.296C131.034 27.296 131.412 27.4667 131.626 27.808C131.839 28.1387 131.946 28.6453 131.946 29.328V34H134.218V28.912C134.218 28.4 134.17 27.936 134.074 27.52C133.988 27.0933 133.834 26.736 133.61 26.448C133.386 26.1493 133.076 25.92 132.682 25.76C132.298 25.5893 131.802 25.504 131.194 25.504C130.714 25.504 130.244 25.616 129.786 25.84C129.327 26.0533 128.954 26.4 128.666 26.88H128.618V25.728H126.458ZM141.51 28.976H137.814C137.825 28.816 137.857 28.6347 137.91 28.432C137.974 28.2293 138.075 28.0373 138.214 27.856C138.363 27.6747 138.555 27.5253 138.79 27.408C139.035 27.28 139.339 27.216 139.702 27.216C140.257 27.216 140.667 27.3653 140.934 27.664C141.211 27.9627 141.403 28.4 141.51 28.976ZM137.814 30.416H143.782C143.825 29.776 143.771 29.1627 143.622 28.576C143.473 27.9893 143.227 27.4667 142.886 27.008C142.555 26.5493 142.129 26.1867 141.606 25.92C141.083 25.6427 140.47 25.504 139.766 25.504C139.137 25.504 138.561 25.616 138.038 25.84C137.526 26.064 137.083 26.3733 136.71 26.768C136.337 27.152 136.049 27.6107 135.846 28.144C135.643 28.6773 135.542 29.2533 135.542 29.872C135.542 30.512 135.638 31.0987 135.83 31.632C136.033 32.1653 136.315 32.624 136.678 33.008C137.041 33.392 137.483 33.6907 138.006 33.904C138.529 34.1067 139.115 34.208 139.766 34.208C140.705 34.208 141.505 33.9947 142.166 33.568C142.827 33.1413 143.318 32.432 143.638 31.44H141.638C141.563 31.696 141.361 31.9413 141.03 32.176C140.699 32.4 140.305 32.512 139.846 32.512C139.206 32.512 138.715 32.3467 138.374 32.016C138.033 31.6853 137.846 31.152 137.814 30.416ZM145.13 25.728V34H147.402V29.664C147.402 28.8213 147.54 28.2187 147.818 27.856C148.095 27.4827 148.543 27.296 149.162 27.296C149.706 27.296 150.084 27.4667 150.298 27.808C150.511 28.1387 150.618 28.6453 150.618 29.328V34H152.89V28.912C152.89 28.4 152.842 27.936 152.746 27.52C152.66 27.0933 152.506 26.736 152.282 26.448C152.058 26.1493 151.748 25.92 151.354 25.76C150.97 25.5893 150.474 25.504 149.866 25.504C149.386 25.504 148.916 25.616 148.458 25.84C147.999 26.0533 147.626 26.4 147.338 26.88H147.29V25.728H145.13ZM159.307 22.576V34H161.659V25.984H161.691L164.491 34H166.427L169.227 25.904H169.259V34H171.611V22.576H168.075L165.547 30.432H165.515L162.843 22.576H159.307ZM175.599 29.872C175.599 29.5413 175.631 29.216 175.695 28.896C175.759 28.576 175.865 28.2933 176.015 28.048C176.175 27.8027 176.383 27.6053 176.639 27.456C176.895 27.296 177.215 27.216 177.599 27.216C177.983 27.216 178.303 27.296 178.559 27.456C178.825 27.6053 179.033 27.8027 179.183 28.048C179.343 28.2933 179.455 28.576 179.519 28.896C179.583 29.216 179.615 29.5413 179.615 29.872C179.615 30.2027 179.583 30.528 179.519 30.848C179.455 31.1573 179.343 31.44 179.183 31.696C179.033 31.9413 178.825 32.1387 178.559 32.288C178.303 32.4373 177.983 32.512 177.599 32.512C177.215 32.512 176.895 32.4373 176.639 32.288C176.383 32.1387 176.175 31.9413 176.015 31.696C175.865 31.44 175.759 31.1573 175.695 30.848C175.631 30.528 175.599 30.2027 175.599 29.872ZM173.327 29.872C173.327 30.5333 173.428 31.1307 173.631 31.664C173.833 32.1973 174.121 32.656 174.495 33.04C174.868 33.4133 175.316 33.7013 175.839 33.904C176.361 34.1067 176.948 34.208 177.599 34.208C178.249 34.208 178.836 34.1067 179.359 33.904C179.892 33.7013 180.345 33.4133 180.719 33.04C181.092 32.656 181.38 32.1973 181.583 31.664C181.785 31.1307 181.887 30.5333 181.887 29.872C181.887 29.2107 181.785 28.6133 181.583 28.08C181.38 27.536 181.092 27.0773 180.719 26.704C180.345 26.32 179.892 26.0267 179.359 25.824C178.836 25.6107 178.249 25.504 177.599 25.504C176.948 25.504 176.361 25.6107 175.839 25.824C175.316 26.0267 174.868 26.32 174.495 26.704C174.121 27.0773 173.833 27.536 173.631 28.08C173.428 28.6133 173.327 29.2107 173.327 29.872ZM183.428 25.728V34H185.7V29.2C185.7 28.7947 185.759 28.4693 185.876 28.224C185.993 27.968 186.132 27.776 186.292 27.648C186.463 27.5093 186.633 27.4187 186.804 27.376C186.985 27.3227 187.129 27.296 187.236 27.296C187.599 27.296 187.871 27.36 188.052 27.488C188.244 27.6053 188.377 27.7653 188.452 27.968C188.537 28.1707 188.585 28.3947 188.596 28.64C188.607 28.8747 188.612 29.1147 188.612 29.36V34H190.884V29.392C190.884 29.136 190.9 28.8853 190.932 28.64C190.975 28.384 191.049 28.16 191.156 27.968C191.273 27.7653 191.428 27.6053 191.62 27.488C191.823 27.36 192.084 27.296 192.404 27.296C192.724 27.296 192.975 27.3493 193.156 27.456C193.348 27.5627 193.492 27.7067 193.588 27.888C193.684 28.0693 193.743 28.2827 193.764 28.528C193.785 28.7733 193.796 29.0347 193.796 29.312V34H196.068V28.464C196.068 27.9307 195.993 27.4773 195.844 27.104C195.695 26.72 195.487 26.4107 195.22 26.176C194.953 25.9413 194.633 25.7707 194.26 25.664C193.887 25.5573 193.481 25.504 193.044 25.504C192.468 25.504 191.967 25.6427 191.54 25.92C191.124 26.1973 190.793 26.5173 190.548 26.88C190.324 26.368 189.993 26.0107 189.556 25.808C189.129 25.6053 188.655 25.504 188.132 25.504C187.588 25.504 187.103 25.6213 186.676 25.856C186.26 26.0907 185.903 26.4213 185.604 26.848H185.572V25.728H183.428ZM203.432 28.976H199.736C199.747 28.816 199.779 28.6347 199.832 28.432C199.896 28.2293 199.997 28.0373 200.136 27.856C200.285 27.6747 200.477 27.5253 200.712 27.408C200.957 27.28 201.261 27.216 201.624 27.216C202.179 27.216 202.589 27.3653 202.856 27.664C203.133 27.9627 203.325 28.4 203.432 28.976ZM199.736 30.416H205.704C205.747 29.776 205.693 29.1627 205.544 28.576C205.395 27.9893 205.149 27.4667 204.808 27.008C204.477 26.5493 204.051 26.1867 203.528 25.92C203.005 25.6427 202.392 25.504 201.688 25.504C201.059 25.504 200.483 25.616 199.96 25.84C199.448 26.064 199.005 26.3733 198.632 26.768C198.259 27.152 197.971 27.6107 197.768 28.144C197.565 28.6773 197.464 29.2533 197.464 29.872C197.464 30.512 197.56 31.0987 197.752 31.632C197.955 32.1653 198.237 32.624 198.6 33.008C198.963 33.392 199.405 33.6907 199.928 33.904C200.451 34.1067 201.037 34.208 201.688 34.208C202.627 34.208 203.427 33.9947 204.088 33.568C204.749 33.1413 205.24 32.432 205.56 31.44H203.56C203.485 31.696 203.283 31.9413 202.952 32.176C202.621 32.4 202.227 32.512 201.768 32.512C201.128 32.512 200.637 32.3467 200.296 32.016C199.955 31.6853 199.768 31.152 199.736 30.416ZM207.052 25.728V34H209.324V29.664C209.324 28.8213 209.462 28.2187 209.74 27.856C210.017 27.4827 210.465 27.296 211.084 27.296C211.628 27.296 212.006 27.4667 212.22 27.808C212.433 28.1387 212.54 28.6453 212.54 29.328V34H214.812V28.912C214.812 28.4 214.764 27.936 214.668 27.52C214.582 27.0933 214.428 26.736 214.204 26.448C213.98 26.1493 213.67 25.92 213.276 25.76C212.892 25.5893 212.396 25.504 211.788 25.504C211.308 25.504 210.838 25.616 210.38 25.84C209.921 26.0533 209.548 26.4 209.26 26.88H209.212V25.728H207.052ZM219.416 25.728V23.248H217.144V25.728H215.768V27.248H217.144V32.128C217.144 32.544 217.213 32.88 217.352 33.136C217.491 33.392 217.677 33.5893 217.912 33.728C218.157 33.8667 218.435 33.9573 218.744 34C219.064 34.0533 219.4 34.08 219.752 34.08C219.976 34.08 220.205 34.0747 220.44 34.064C220.675 34.0533 220.888 34.032 221.08 34V32.24C220.973 32.2613 220.861 32.2773 220.744 32.288C220.627 32.2987 220.504 32.304 220.376 32.304C219.992 32.304 219.736 32.24 219.608 32.112C219.48 31.984 219.416 31.728 219.416 31.344V27.248H221.08V25.728H219.416ZM235.11 32.704L235.366 34H236.966V27.824H232.166V29.696H234.694C234.619 30.496 234.353 31.1093 233.894 31.536C233.446 31.952 232.806 32.16 231.974 32.16C231.409 32.16 230.929 32.0533 230.534 31.84C230.139 31.616 229.819 31.3227 229.574 30.96C229.329 30.5973 229.147 30.192 229.03 29.744C228.923 29.2853 228.87 28.816 228.87 28.336C228.87 27.8347 228.923 27.3493 229.03 26.88C229.147 26.4107 229.329 25.9947 229.574 25.632C229.819 25.2587 230.139 24.9653 230.534 24.752C230.929 24.528 231.409 24.416 231.974 24.416C232.582 24.416 233.099 24.576 233.526 24.896C233.953 25.216 234.241 25.696 234.39 26.336H236.79C236.726 25.6853 236.55 25.1093 236.262 24.608C235.974 24.1067 235.606 23.6853 235.158 23.344C234.721 23.0027 234.225 22.7467 233.67 22.576C233.126 22.3947 232.561 22.304 231.974 22.304C231.099 22.304 230.31 22.4587 229.606 22.768C228.913 23.0773 228.326 23.504 227.846 24.048C227.366 24.592 226.998 25.232 226.742 25.968C226.486 26.6933 226.358 27.4827 226.358 28.336C226.358 29.168 226.486 29.9467 226.742 30.672C226.998 31.3867 227.366 32.0107 227.846 32.544C228.326 33.0773 228.913 33.4987 229.606 33.808C230.31 34.1067 231.099 34.256 231.974 34.256C232.529 34.256 233.078 34.144 233.622 33.92C234.166 33.6853 234.662 33.28 235.11 32.704ZM244.323 28.976H240.627C240.637 28.816 240.669 28.6347 240.723 28.432C240.787 28.2293 240.888 28.0373 241.027 27.856C241.176 27.6747 241.368 27.5253 241.603 27.408C241.848 27.28 242.152 27.216 242.515 27.216C243.069 27.216 243.48 27.3653 243.747 27.664C244.024 27.9627 244.216 28.4 244.323 28.976ZM240.627 30.416H246.595C246.637 29.776 246.584 29.1627 246.435 28.576C246.285 27.9893 246.04 27.4667 245.699 27.008C245.368 26.5493 244.941 26.1867 244.419 25.92C243.896 25.6427 243.283 25.504 242.579 25.504C241.949 25.504 241.373 25.616 240.851 25.84C240.339 26.064 239.896 26.3733 239.523 26.768C239.149 27.152 238.861 27.6107 238.659 28.144C238.456 28.6773 238.355 29.2533 238.355 29.872C238.355 30.512 238.451 31.0987 238.643 31.632C238.845 32.1653 239.128 32.624 239.491 33.008C239.853 33.392 240.296 33.6907 240.819 33.904C241.341 34.1067 241.928 34.208 242.579 34.208C243.517 34.208 244.317 33.9947 244.979 33.568C245.64 33.1413 246.131 32.432 246.451 31.44H244.451C244.376 31.696 244.173 31.9413 243.843 32.176C243.512 32.4 243.117 32.512 242.659 32.512C242.019 32.512 241.528 32.3467 241.187 32.016C240.845 31.6853 240.659 31.152 240.627 30.416ZM253.814 29.84C253.814 30.1813 253.782 30.512 253.718 30.832C253.654 31.152 253.547 31.44 253.398 31.696C253.249 31.9413 253.046 32.1387 252.79 32.288C252.545 32.4373 252.235 32.512 251.862 32.512C251.51 32.512 251.206 32.4373 250.95 32.288C250.705 32.128 250.497 31.9253 250.326 31.68C250.166 31.424 250.049 31.136 249.974 30.816C249.899 30.496 249.862 30.176 249.862 29.856C249.862 29.5147 249.894 29.1893 249.958 28.88C250.033 28.56 250.145 28.2773 250.294 28.032C250.454 27.7867 250.662 27.5893 250.918 27.44C251.174 27.2907 251.489 27.216 251.862 27.216C252.235 27.216 252.545 27.2907 252.79 27.44C253.035 27.5893 253.233 27.7867 253.382 28.032C253.542 28.2667 253.654 28.544 253.718 28.864C253.782 29.1733 253.814 29.4987 253.814 29.84ZM253.846 32.944V34H256.006V22.576H253.734V26.736H253.702C253.446 26.3307 253.094 26.0267 252.646 25.824C252.209 25.6107 251.745 25.504 251.254 25.504C250.646 25.504 250.113 25.6267 249.654 25.872C249.195 26.1067 248.811 26.4213 248.502 26.816C248.203 27.2107 247.974 27.6693 247.814 28.192C247.665 28.704 247.59 29.2373 247.59 29.792C247.59 30.368 247.665 30.9227 247.814 31.456C247.974 31.9893 248.203 32.464 248.502 32.88C248.811 33.2853 249.201 33.6107 249.67 33.856C250.139 34.0907 250.683 34.208 251.302 34.208C251.846 34.208 252.331 34.112 252.758 33.92C253.195 33.7173 253.547 33.392 253.814 32.944H253.846ZM265.483 34V25.728H263.211V30.064C263.211 30.9067 263.073 31.5147 262.795 31.888C262.518 32.2507 262.07 32.432 261.451 32.432C260.907 32.432 260.529 32.2667 260.315 31.936C260.102 31.5947 259.995 31.0827 259.995 30.4V25.728H257.723V30.816C257.723 31.328 257.766 31.7973 257.851 32.224C257.947 32.64 258.107 32.9973 258.331 33.296C258.555 33.584 258.859 33.808 259.243 33.968C259.638 34.128 260.139 34.208 260.747 34.208C261.227 34.208 261.697 34.1013 262.155 33.888C262.614 33.6747 262.987 33.328 263.275 32.848H263.323V34H265.483ZM267.272 22.576V34H269.544V22.576H267.272ZM277.205 29.84C277.205 30.1813 277.173 30.512 277.109 30.832C277.045 31.152 276.938 31.44 276.789 31.696C276.639 31.9413 276.437 32.1387 276.181 32.288C275.935 32.4373 275.626 32.512 275.253 32.512C274.901 32.512 274.597 32.4373 274.341 32.288C274.095 32.128 273.887 31.9253 273.717 31.68C273.557 31.424 273.439 31.136 273.365 30.816C273.29 30.496 273.253 30.176 273.253 29.856C273.253 29.5147 273.285 29.1893 273.349 28.88C273.423 28.56 273.535 28.2773 273.685 28.032C273.845 27.7867 274.053 27.5893 274.309 27.44C274.565 27.2907 274.879 27.216 275.253 27.216C275.626 27.216 275.935 27.2907 276.181 27.44C276.426 27.5893 276.623 27.7867 276.773 28.032C276.933 28.2667 277.045 28.544 277.109 28.864C277.173 29.1733 277.205 29.4987 277.205 29.84ZM277.237 32.944V34H279.397V22.576H277.125V26.736H277.093C276.837 26.3307 276.485 26.0267 276.037 25.824C275.599 25.6107 275.135 25.504 274.645 25.504C274.037 25.504 273.503 25.6267 273.045 25.872C272.586 26.1067 272.202 26.4213 271.893 26.816C271.594 27.2107 271.365 27.6693 271.205 28.192C271.055 28.704 270.981 29.2373 270.981 29.792C270.981 30.368 271.055 30.9227 271.205 31.456C271.365 31.9893 271.594 32.464 271.893 32.88C272.202 33.2853 272.591 33.6107 273.061 33.856C273.53 34.0907 274.074 34.208 274.693 34.208C275.237 34.208 275.722 34.112 276.149 33.92C276.586 33.7173 276.938 33.392 277.205 32.944H277.237Z" fill="#353535"/>
<path d="M73.1963 58.5098H74.625V60H73.1963V58.5098ZM77.0928 58.5098H78.5215V60H77.0928V58.5098ZM80.9893 58.5098H82.418V60H80.9893V58.5098ZM89.2676 56.4248C89.2676 57.2087 89.4339 57.8649 89.7666 58.3936C90.0993 58.9222 90.6325 59.1865 91.3662 59.1865C91.9359 59.1865 92.403 58.9427 92.7676 58.4551C93.1367 57.9629 93.3213 57.2588 93.3213 56.3428C93.3213 55.4176 93.1322 54.734 92.7539 54.292C92.3757 53.8454 91.9085 53.6221 91.3525 53.6221C90.7327 53.6221 90.2292 53.859 89.8418 54.333C89.459 54.807 89.2676 55.5042 89.2676 56.4248ZM91.1201 52.5488C91.6807 52.5488 92.1501 52.6673 92.5283 52.9043C92.7471 53.041 92.9954 53.2803 93.2734 53.6221V49.9238H94.4561V60H93.3486V58.9814C93.0615 59.4326 92.722 59.7585 92.3301 59.959C91.9382 60.1595 91.4893 60.2598 90.9834 60.2598C90.1676 60.2598 89.4613 59.918 88.8643 59.2344C88.2673 58.5462 87.9688 57.6325 87.9688 56.4932C87.9688 55.4268 88.2399 54.5039 88.7822 53.7246C89.3291 52.9408 90.1084 52.5488 91.1201 52.5488ZM99.3301 52.5146C99.8496 52.5146 100.353 52.6377 100.841 52.8838C101.328 53.1253 101.7 53.4398 101.955 53.8271C102.201 54.1963 102.365 54.627 102.447 55.1191C102.52 55.4564 102.557 55.9941 102.557 56.7324H97.1904C97.2132 57.4753 97.3887 58.0723 97.7168 58.5234C98.0449 58.9701 98.5531 59.1934 99.2412 59.1934C99.8838 59.1934 100.396 58.9814 100.779 58.5576C100.998 58.3115 101.153 58.0267 101.244 57.7031H102.454C102.422 57.972 102.315 58.2728 102.133 58.6055C101.955 58.9336 101.755 59.2025 101.531 59.4121C101.158 59.7767 100.695 60.0228 100.144 60.1504C99.8473 60.2233 99.5124 60.2598 99.1387 60.2598C98.2272 60.2598 97.4548 59.9294 96.8213 59.2686C96.1878 58.6032 95.8711 57.6735 95.8711 56.4795C95.8711 55.3037 96.1901 54.349 96.8281 53.6152C97.4661 52.8815 98.3001 52.5146 99.3301 52.5146ZM101.292 55.7549C101.242 55.2217 101.126 54.7956 100.943 54.4766C100.606 53.8841 100.043 53.5879 99.2549 53.5879C98.6898 53.5879 98.2158 53.793 97.833 54.2031C97.4502 54.6087 97.2474 55.126 97.2246 55.7549H101.292ZM104.074 52.7129H105.325V60H104.074V52.7129ZM104.074 49.958H105.325V51.3525H104.074V49.958ZM107.191 52.6787H108.36V53.7178C108.707 53.2894 109.074 52.9818 109.461 52.7949C109.848 52.6081 110.279 52.5146 110.753 52.5146C111.792 52.5146 112.494 52.877 112.858 53.6016C113.059 53.998 113.159 54.5654 113.159 55.3037V60H111.908V55.3857C111.908 54.9391 111.842 54.5791 111.71 54.3057C111.491 53.8499 111.095 53.6221 110.521 53.6221C110.229 53.6221 109.99 53.6517 109.803 53.7109C109.465 53.8112 109.169 54.0117 108.914 54.3125C108.709 54.554 108.575 54.8047 108.511 55.0645C108.451 55.3197 108.422 55.6865 108.422 56.165V60H107.191V52.6787ZM118.033 52.5146C118.553 52.5146 119.056 52.6377 119.544 52.8838C120.032 53.1253 120.403 53.4398 120.658 53.8271C120.904 54.1963 121.068 54.627 121.15 55.1191C121.223 55.4564 121.26 55.9941 121.26 56.7324H115.894C115.916 57.4753 116.092 58.0723 116.42 58.5234C116.748 58.9701 117.256 59.1934 117.944 59.1934C118.587 59.1934 119.1 58.9814 119.482 58.5576C119.701 58.3115 119.856 58.0267 119.947 57.7031H121.157C121.125 57.972 121.018 58.2728 120.836 58.6055C120.658 58.9336 120.458 59.2025 120.234 59.4121C119.861 59.7767 119.398 60.0228 118.847 60.1504C118.55 60.2233 118.215 60.2598 117.842 60.2598C116.93 60.2598 116.158 59.9294 115.524 59.2686C114.891 58.6032 114.574 57.6735 114.574 56.4795C114.574 55.3037 114.893 54.349 115.531 53.6152C116.169 52.8815 117.003 52.5146 118.033 52.5146ZM119.995 55.7549C119.945 55.2217 119.829 54.7956 119.646 54.4766C119.309 53.8841 118.746 53.5879 117.958 53.5879C117.393 53.5879 116.919 53.793 116.536 54.2031C116.153 54.6087 115.951 55.126 115.928 55.7549H119.995ZM127.727 56.7598C127.758 57.3294 127.893 57.792 128.13 58.1475C128.581 58.8128 129.376 59.1455 130.516 59.1455C131.026 59.1455 131.491 59.0726 131.91 58.9268C132.721 58.6442 133.127 58.1383 133.127 57.4092C133.127 56.8623 132.956 56.4727 132.614 56.2402C132.268 56.0124 131.726 55.8141 130.987 55.6455L129.627 55.3379C128.738 55.1374 128.109 54.9163 127.74 54.6748C127.102 54.2555 126.783 53.6289 126.783 52.7949C126.783 51.8926 127.095 51.152 127.72 50.5732C128.344 49.9945 129.228 49.7051 130.372 49.7051C131.425 49.7051 132.318 49.9603 133.052 50.4707C133.79 50.9766 134.159 51.7878 134.159 52.9043H132.881C132.812 52.3665 132.667 51.9541 132.443 51.667C132.029 51.1429 131.325 50.8809 130.331 50.8809C129.529 50.8809 128.952 51.0495 128.602 51.3867C128.251 51.724 128.075 52.1159 128.075 52.5625C128.075 53.0547 128.28 53.4147 128.69 53.6426C128.959 53.7884 129.568 53.9707 130.516 54.1895L131.924 54.5107C132.603 54.6657 133.127 54.8776 133.496 55.1465C134.134 55.6159 134.453 56.2972 134.453 57.1904C134.453 58.3024 134.048 59.0977 133.236 59.5762C132.43 60.0547 131.491 60.2939 130.42 60.2939C129.171 60.2939 128.194 59.9749 127.487 59.3369C126.781 58.7035 126.435 57.8444 126.448 56.7598H127.727ZM137.242 52.6787V57.5391C137.242 57.9128 137.301 58.2181 137.42 58.4551C137.639 58.8926 138.047 59.1113 138.644 59.1113C139.5 59.1113 140.084 58.7285 140.394 57.9629C140.562 57.5527 140.646 56.9899 140.646 56.2744V52.6787H141.877V60H140.715L140.729 58.9199C140.569 59.1979 140.371 59.4326 140.134 59.624C139.664 60.0068 139.095 60.1982 138.425 60.1982C137.381 60.1982 136.67 59.8496 136.292 59.1523C136.087 58.7786 135.984 58.2796 135.984 57.6553V52.6787H137.242ZM146.628 52.4668C147.453 52.4668 148.123 52.6673 148.638 53.0684C149.157 53.4694 149.469 54.1598 149.574 55.1396H148.378C148.305 54.6885 148.139 54.3148 147.879 54.0186C147.619 53.7178 147.202 53.5674 146.628 53.5674C145.844 53.5674 145.284 53.9502 144.946 54.7158C144.728 55.2126 144.618 55.8255 144.618 56.5547C144.618 57.2884 144.773 57.9059 145.083 58.4072C145.393 58.9085 145.881 59.1592 146.546 59.1592C147.056 59.1592 147.46 59.0042 147.756 58.6943C148.057 58.3799 148.264 57.9515 148.378 57.4092H149.574C149.438 58.3799 149.096 59.0908 148.549 59.542C148.002 59.9886 147.302 60.2119 146.45 60.2119C145.493 60.2119 144.73 59.8633 144.16 59.166C143.59 58.4642 143.306 57.5892 143.306 56.541C143.306 55.2559 143.618 54.2555 144.242 53.54C144.867 52.8245 145.662 52.4668 146.628 52.4668ZM150.805 49.9238H152.035V53.6699C152.327 53.3008 152.589 53.041 152.821 52.8906C153.218 52.6309 153.712 52.501 154.305 52.501C155.367 52.501 156.087 52.8724 156.465 53.6152C156.67 54.0208 156.772 54.5837 156.772 55.3037V60H155.508V55.3857C155.508 54.848 155.439 54.4538 155.303 54.2031C155.079 53.8021 154.66 53.6016 154.045 53.6016C153.535 53.6016 153.072 53.777 152.657 54.1279C152.243 54.4788 152.035 55.1419 152.035 56.1172V60H150.805V49.9238ZM161.646 52.5146C162.166 52.5146 162.67 52.6377 163.157 52.8838C163.645 53.1253 164.016 53.4398 164.271 53.8271C164.518 54.1963 164.682 54.627 164.764 55.1191C164.837 55.4564 164.873 55.9941 164.873 56.7324H159.507C159.53 57.4753 159.705 58.0723 160.033 58.5234C160.361 58.9701 160.869 59.1934 161.558 59.1934C162.2 59.1934 162.713 58.9814 163.096 58.5576C163.314 58.3115 163.469 58.0267 163.561 57.7031H164.771C164.739 57.972 164.632 58.2728 164.449 58.6055C164.271 58.9336 164.071 59.2025 163.848 59.4121C163.474 59.7767 163.011 60.0228 162.46 60.1504C162.164 60.2233 161.829 60.2598 161.455 60.2598C160.544 60.2598 159.771 59.9294 159.138 59.2686C158.504 58.6032 158.188 57.6735 158.188 56.4795C158.188 55.3037 158.507 54.349 159.145 53.6152C159.783 52.8815 160.617 52.5146 161.646 52.5146ZM163.608 55.7549C163.558 55.2217 163.442 54.7956 163.26 54.4766C162.923 53.8841 162.36 53.5879 161.571 53.5879C161.006 53.5879 160.532 53.793 160.149 54.2031C159.767 54.6087 159.564 55.126 159.541 55.7549H163.608ZM170.854 52.6787L172.263 58.4482L173.691 52.6787H175.072L176.508 58.4141L178.005 52.6787H179.235L177.109 60H175.831L174.341 54.333L172.898 60H171.62L169.508 52.6787H170.854ZM180.404 52.7129H181.655V60H180.404V52.7129ZM180.404 49.958H181.655V51.3525H180.404V49.958ZM183.556 52.6787H184.725V53.9434C184.82 53.6973 185.055 53.3988 185.429 53.0479C185.802 52.6924 186.233 52.5146 186.721 52.5146C186.743 52.5146 186.782 52.5169 186.837 52.5215C186.892 52.526 186.985 52.5352 187.117 52.5488V53.8477C187.044 53.834 186.976 53.8249 186.912 53.8203C186.853 53.8158 186.787 53.8135 186.714 53.8135C186.094 53.8135 185.618 54.014 185.285 54.415C184.952 54.8115 184.786 55.2695 184.786 55.7891V60H183.556V52.6787ZM188.963 56.4248C188.963 57.2087 189.129 57.8649 189.462 58.3936C189.795 58.9222 190.328 59.1865 191.062 59.1865C191.631 59.1865 192.098 58.9427 192.463 58.4551C192.832 57.9629 193.017 57.2588 193.017 56.3428C193.017 55.4176 192.827 54.734 192.449 54.292C192.071 53.8454 191.604 53.6221 191.048 53.6221C190.428 53.6221 189.924 53.859 189.537 54.333C189.154 54.807 188.963 55.5042 188.963 56.4248ZM190.815 52.5488C191.376 52.5488 191.845 52.6673 192.224 52.9043C192.442 53.041 192.691 53.2803 192.969 53.6221V49.9238H194.151V60H193.044V58.9814C192.757 59.4326 192.417 59.7585 192.025 59.959C191.633 60.1595 191.185 60.2598 190.679 60.2598C189.863 60.2598 189.157 59.918 188.56 59.2344C187.963 58.5462 187.664 57.6325 187.664 56.4932C187.664 55.4268 187.935 54.5039 188.478 53.7246C189.024 52.9408 189.804 52.5488 190.815 52.5488ZM202.457 52.5488C203.031 52.5488 203.533 52.6901 203.961 52.9727C204.193 53.1322 204.43 53.3646 204.672 53.6699V52.7471H205.807V59.4053C205.807 60.335 205.67 61.0687 205.396 61.6064C204.886 62.5999 203.922 63.0967 202.505 63.0967C201.716 63.0967 201.053 62.9189 200.516 62.5635C199.978 62.2126 199.677 61.6611 199.613 60.9092H200.864C200.924 61.2373 201.042 61.4902 201.22 61.668C201.498 61.9414 201.935 62.0781 202.532 62.0781C203.476 62.0781 204.093 61.7454 204.385 61.0801C204.558 60.6882 204.638 59.9886 204.624 58.9814C204.378 59.3551 204.082 59.6331 203.735 59.8154C203.389 59.9977 202.931 60.0889 202.361 60.0889C201.568 60.0889 200.873 59.8086 200.276 59.248C199.684 58.6829 199.388 57.751 199.388 56.4521C199.388 55.2262 199.686 54.2692 200.283 53.5811C200.885 52.8929 201.609 52.5488 202.457 52.5488ZM204.672 56.3086C204.672 55.4017 204.485 54.7295 204.111 54.292C203.738 53.8545 203.261 53.6357 202.683 53.6357C201.817 53.6357 201.224 54.0413 200.905 54.8525C200.737 55.2855 200.652 55.8529 200.652 56.5547C200.652 57.3796 200.819 58.0085 201.151 58.4414C201.489 58.8698 201.94 59.084 202.505 59.084C203.389 59.084 204.011 58.6852 204.371 57.8877C204.572 57.4365 204.672 56.9102 204.672 56.3086ZM210.715 52.5146C211.234 52.5146 211.738 52.6377 212.226 52.8838C212.713 53.1253 213.085 53.4398 213.34 53.8271C213.586 54.1963 213.75 54.627 213.832 55.1191C213.905 55.4564 213.941 55.9941 213.941 56.7324H208.575C208.598 57.4753 208.773 58.0723 209.102 58.5234C209.43 58.9701 209.938 59.1934 210.626 59.1934C211.269 59.1934 211.781 58.9814 212.164 58.5576C212.383 58.3115 212.538 58.0267 212.629 57.7031H213.839C213.807 57.972 213.7 58.2728 213.518 58.6055C213.34 58.9336 213.139 59.2025 212.916 59.4121C212.542 59.7767 212.08 60.0228 211.528 60.1504C211.232 60.2233 210.897 60.2598 210.523 60.2598C209.612 60.2598 208.84 59.9294 208.206 59.2686C207.573 58.6032 207.256 57.6735 207.256 56.4795C207.256 55.3037 207.575 54.349 208.213 53.6152C208.851 52.8815 209.685 52.5146 210.715 52.5146ZM212.677 55.7549C212.627 55.2217 212.51 54.7956 212.328 54.4766C211.991 53.8841 211.428 53.5879 210.64 53.5879C210.075 53.5879 209.601 53.793 209.218 54.2031C208.835 54.6087 208.632 55.126 208.609 55.7549H212.677ZM215.493 49.958H216.724V60H215.493V49.958ZM219.52 58.0518C219.52 58.4072 219.649 58.6875 219.909 58.8926C220.169 59.0977 220.477 59.2002 220.832 59.2002C221.265 59.2002 221.684 59.0999 222.09 58.8994C222.773 58.5667 223.115 58.0221 223.115 57.2656V56.2744C222.965 56.3701 222.771 56.4499 222.534 56.5137C222.297 56.5775 222.065 56.623 221.837 56.6504L221.092 56.7461C220.645 56.8053 220.31 56.8988 220.087 57.0264C219.709 57.2406 219.52 57.5824 219.52 58.0518ZM222.5 55.5635C222.783 55.527 222.972 55.4085 223.067 55.208C223.122 55.0986 223.149 54.9414 223.149 54.7363C223.149 54.3171 222.999 54.014 222.698 53.8271C222.402 53.6357 221.976 53.54 221.42 53.54C220.777 53.54 220.322 53.7132 220.053 54.0596C219.902 54.251 219.804 54.5358 219.759 54.9141H218.61C218.633 54.0117 218.925 53.3851 219.485 53.0342C220.05 52.6787 220.704 52.501 221.447 52.501C222.309 52.501 223.008 52.665 223.546 52.9932C224.079 53.3213 224.346 53.8317 224.346 54.5244V58.7422C224.346 58.8698 224.371 58.9723 224.421 59.0498C224.476 59.1273 224.587 59.166 224.756 59.166C224.811 59.166 224.872 59.1637 224.94 59.1592C225.009 59.1501 225.082 59.1387 225.159 59.125V60.0342C224.968 60.0889 224.822 60.123 224.722 60.1367C224.621 60.1504 224.485 60.1572 224.312 60.1572C223.888 60.1572 223.58 60.0068 223.389 59.7061C223.288 59.5465 223.218 59.321 223.177 59.0293C222.926 59.3574 222.566 59.6423 222.097 59.8838C221.627 60.1253 221.11 60.2461 220.545 60.2461C219.866 60.2461 219.31 60.041 218.877 59.6309C218.449 59.2161 218.234 58.6989 218.234 58.0791C218.234 57.4001 218.446 56.8737 218.87 56.5C219.294 56.1263 219.85 55.8962 220.538 55.8096L222.5 55.5635ZM227.148 56.4248C227.148 57.2087 227.315 57.8649 227.647 58.3936C227.98 58.9222 228.513 59.1865 229.247 59.1865C229.817 59.1865 230.284 58.9427 230.648 58.4551C231.018 57.9629 231.202 57.2588 231.202 56.3428C231.202 55.4176 231.013 54.734 230.635 54.292C230.257 53.8454 229.789 53.6221 229.233 53.6221C228.614 53.6221 228.11 53.859 227.723 54.333C227.34 54.807 227.148 55.5042 227.148 56.4248ZM229.001 52.5488C229.562 52.5488 230.031 52.6673 230.409 52.9043C230.628 53.041 230.876 53.2803 231.154 53.6221V49.9238H232.337V60H231.229V58.9814C230.942 59.4326 230.603 59.7585 230.211 59.959C229.819 60.1595 229.37 60.2598 228.864 60.2598C228.049 60.2598 227.342 59.918 226.745 59.2344C226.148 58.5462 225.85 57.6325 225.85 56.4932C225.85 55.4268 226.121 54.5039 226.663 53.7246C227.21 52.9408 227.989 52.5488 229.001 52.5488ZM237.211 52.5146C237.73 52.5146 238.234 52.6377 238.722 52.8838C239.209 53.1253 239.581 53.4398 239.836 53.8271C240.082 54.1963 240.246 54.627 240.328 55.1191C240.401 55.4564 240.438 55.9941 240.438 56.7324H235.071C235.094 57.4753 235.27 58.0723 235.598 58.5234C235.926 58.9701 236.434 59.1934 237.122 59.1934C237.765 59.1934 238.277 58.9814 238.66 58.5576C238.879 58.3115 239.034 58.0267 239.125 57.7031H240.335C240.303 57.972 240.196 58.2728 240.014 58.6055C239.836 58.9336 239.635 59.2025 239.412 59.4121C239.038 59.7767 238.576 60.0228 238.024 60.1504C237.728 60.2233 237.393 60.2598 237.02 60.2598C236.108 60.2598 235.336 59.9294 234.702 59.2686C234.069 58.6032 233.752 57.6735 233.752 56.4795C233.752 55.3037 234.071 54.349 234.709 53.6152C235.347 52.8815 236.181 52.5146 237.211 52.5146ZM239.173 55.7549C239.123 55.2217 239.007 54.7956 238.824 54.4766C238.487 53.8841 237.924 53.5879 237.136 53.5879C236.571 53.5879 236.097 53.793 235.714 54.2031C235.331 54.6087 235.128 55.126 235.105 55.7549H239.173ZM241.955 52.6787H243.124V53.7178C243.47 53.2894 243.837 52.9818 244.225 52.7949C244.612 52.6081 245.043 52.5146 245.517 52.5146C246.556 52.5146 247.257 52.877 247.622 53.6016C247.823 53.998 247.923 54.5654 247.923 55.3037V60H246.672V55.3857C246.672 54.9391 246.606 54.5791 246.474 54.3057C246.255 53.8499 245.858 53.6221 245.284 53.6221C244.993 53.6221 244.753 53.6517 244.566 53.7109C244.229 53.8112 243.933 54.0117 243.678 54.3125C243.473 54.554 243.338 54.8047 243.274 55.0645C243.215 55.3197 243.186 55.6865 243.186 56.165V60H241.955V52.6787Z" fill="#353535"/>
<rect x="38.4" y="28" width="3.2" height="8" rx="1.6" fill="#41B297"/>
<rect opacity="0.58" x="38.4" y="52" width="3.2" height="8" rx="1.6" fill="#41B297"/>
<rect opacity="0.37" x="56" y="42.4" width="3.2" height="8" rx="1.6" transform="rotate(90 56 42.4)" fill="#41B297"/>
<rect opacity="0.79" x="32" y="42.4" width="3.2" height="8" rx="1.6" transform="rotate(90 32 42.4)" fill="#41B297"/>
<rect opacity="0.34" x="46.6145" y="29.3438" width="3.2" height="8" rx="1.6" transform="rotate(30 46.6145 29.3438)" fill="#41B297"/>
<rect opacity="0.65" x="34.6145" y="50.1285" width="3.2" height="8" rx="1.6" transform="rotate(30 34.6145 50.1285)" fill="#41B297"/>
<rect opacity="0.44" x="54.6564" y="50.6144" width="3.2" height="8" rx="1.6" transform="rotate(120 54.6564 50.6144)" fill="#41B297"/>
<rect opacity="0.86" x="33.8719" y="38.6144" width="3.2" height="8" rx="1.6" transform="rotate(120 33.8719 38.6144)" fill="#41B297"/>
<rect opacity="0.3" x="53.0564" y="34.6144" width="3.2" height="8" rx="1.6" transform="rotate(60 53.0564 34.6144)" fill="#41B297"/>
<rect opacity="0.72" x="32.2719" y="46.6144" width="3.2" height="8" rx="1.6" transform="rotate(60 32.2719 46.6144)" fill="#41B297"/>
<rect opacity="0.51" x="49.3857" y="57.0566" width="3.2" height="8" rx="1.6" transform="rotate(150 49.3857 57.0566)" fill="#41B297"/>
<rect opacity="0.93" x="37.3857" y="36.2719" width="3.2" height="8" rx="1.6" transform="rotate(150 37.3857 36.2719)" fill="#41B297"/>
</svg>
